<mxfile host="65bd71144e">
    <diagram id="bANungNgRHIHvXX9yd0y" name="Page-1">
        <mxGraphModel dx="1234" dy="659" grid="1" gridSize="10" guides="1" tooltips="1" connect="1" arrows="1" fold="1" page="1" pageScale="1" pageWidth="850" pageHeight="1100" math="0" shadow="0">
            <root>
                <mxCell id="0"/>
                <mxCell id="1" parent="0"/>
                <mxCell id="47" style="edgeStyle=none;html=1;entryX=0.5;entryY=0;entryDx=0;entryDy=0;" parent="1" source="37" target="45" edge="1">
                    <mxGeometry relative="1" as="geometry"/>
                </mxCell>
                <mxCell id="37" value="" style="shape=image;verticalLabelPosition=bottom;labelBackgroundColor=default;verticalAlign=top;aspect=fixed;imageAspect=0;image=data:image/png,iVBORw0KGgoAAAANSUhEUgAAAYEAAABzCAYAAAB+dL6CAAABXWlDQ1BJQ0MgUHJvZmlsZQAAKJF1kMErwwEUxz9jUlo4SNLKDovLaH6bcmQjqR3WbIXbb7/NqJlfv/0kNwfuKy5uwoGTGw47KH8AJQ4Sbv4A2YX1834btpH3en0/fXvv9XrQ5FJ1PesElnOmEZsKeWbn5j2tLzhppp0+FFXL6+PRaERa+NbGKN3hsPVm0N4VPzz3LjwFe8duBy7dxZPjv/0N0ZZK5zXRDylF0w0THH7h6Jqp27wh3GXIUcI7NmeqfGRzssrFSk88Fha+Fu7UFtWU8LOwL1nnZ+p4Obuqfd1gX+9K5xIzot1SbiaYJCLpIYHCCMOMisc/M8HKTJgVdNYxWCLDIqZMj4ujkyUtPE0OjSF8wgp+qYD9698/rHkr+zD6Bs2FmpfchbMt6Lmved496NiE0ytdNdSfzzpKzvxCQKmyKwQtj5b12g+t21AuWNb7vmWVD2T/A1zkPgHj1GQQDnfuJwAAAGJlWElmTU0AKgAAAAgAAgESAAMAAAABAAEAAIdpAAQAAAABAAAAJgAAAAAAA5KGAAcAAAASAAAAUKACAAQAAAABAAABgaADAAQAAAABAAAAcwAAAABBU0NJSQAAAFNjcmVlbnNob3Q3JZzTAAACPWlUWHRYTUw6Y29tLmFkb2JlLnhtcAAAAAAAPHg6eG1wbWV0YSB4bWxuczp4PSJhZG9iZTpuczptZXRhLyIgeDp4bXB0az0iWE1QIENvcmUgNi4wLjAiPgogICA8cmRmOlJERiB4bWxuczpyZGY9Imh0dHA6Ly93d3cudzMub3JnLzE5OTkvMDIvMjItcmRmLXN5bnRheC1ucyMiPgogICAgICA8cmRmOkRlc2NyaXB0aW9uIHJkZjphYm91dD0iIgogICAgICAgICAgICB4bWxuczpleGlmPSJodHRwOi8vbnMuYWRvYmUuY29tL2V4aWYvMS4wLyIKICAgICAgICAgICAgeG1sbnM6dGlmZj0iaHR0cDovL25zLmFkb2JlLmNvbS90aWZmLzEuMC8iPgogICAgICAgICA8ZXhpZjpQaXhlbFlEaW1lbnNpb24+MTE1PC9leGlmOlBpeGVsWURpbWVuc2lvbj4KICAgICAgICAgPGV4aWY6VXNlckNvbW1lbnQ+U2NyZWVuc2hvdDwvZXhpZjpVc2VyQ29tbWVudD4KICAgICAgICAgPGV4aWY6UGl4ZWxYRGltZW5zaW9uPjM4NTwvZXhpZjpQaXhlbFhEaW1lbnNpb24+CiAgICAgICAgIDx0aWZmOk9yaWVudGF0aW9uPjE8L3RpZmY6T3JpZW50YXRpb24+CiAgICAgIDwvcmRmOkRlc2NyaXB0aW9uPgogICA8L3JkZjpSREY+CjwveDp4bXBtZXRhPgp7bVPfAAA1AElEQVR4Ae19CXxV1bX3ujfzPM+BjISZMIVREEGsFRwBtY6tVatVq+2r/XxPv6r0fbX2adW2atFqrX5SKA6FogzOhElEQCAQpkDIQEISMs/h3rf/+2TfnHtzT3JvzIhr5Xdzztnz/p9z9tprrX32MiUmJlrJCVkDw8hUV0mWRfcThUSTeeWvnaTiIEaAEWAEGIGhjICnUeMlA7j+MSJPbzKvXm6UjMMZAUaAEWAEhjACZqO2W24SA39bqyYBeBjyCqPsHM4IMAKMACMwBBAwZAJUUUTm954ma0gUWZb+1xDoCjeREWAEGAFGwF0EDKf45k0ryBqbRtb5txOdznG3XE7PCDACjAAjMAQQMGQC1tRJZJ1xLVHudjLv2TgEusJNZAQYAUaAEXAXAUN1EBiAac8GyQCs4+a5Wy6nZwQYAUaAERgCCBgyAVP2KjLl7iDL9KvJOmH+EOgKN5ERYAQYAUbAXQQM1UGmgkNkgT1A2AVMm19xt1xOzwgwAowAIzAEEDBkApbFPyMKjiTT2mfJVF89BLrCTWQEGAFGgBFwFwFDdRAYgHnVE5IBWG543N1yOT0jwAgwAozAEEDAUBKQ20T4+JNlySNEjbVDoCvcREaAEWAEGAF3ETBkAtbQGLJecR9ReQGZN7/qbrmcnhFgBBgBRmAIIGCoDpIMIP+AZADW+BFDoCvcREaAEWAEGAF3ETAZ7SIqCxKbx1mwiVxLE5nf+a27ZXN6RoARYAQYgUGOgLE6KCiCrFc+SFRZQuYNLw3ybnDzGAFGgBFgBHqCgLE6CAygMFcyAGtMck/K5jyMACPACDACgxwBQyZAR3eSectKsqZkknXBHYO8Gxd+82Jiwig6OvTC76iLPXz7N+W0/rmzLqbmZL2JgLd/IHn7BfRmkXZlXTm3gQ6/U0TJ8W124YP5Am396s0zdHJdoWz7YG6rY9sMmYB594dkHTuHrDOXkGnvJsd8F+y1V1AkhY2ZR2Zv30HVx1dffYCeeYaZMW7KyKRWmju5ibbt9+nRPTIL/xip0+dTUGRcj/KrTBFJI2j4xFnqcsgfXe3PZQ8+RbNv+0Wf9XfDdj/y9SL6/c8q+6yO3i744VtrKDbiPK39wp9+8Yfw3i6+T8szZAKWrMVkzVxIpm1ryHR4W582YjAVHpwyhZIW/ZJ8QhMGU7O4LToEMDi0nSf6w9vBulDXTzGLHXfZMkqZdonrmZykHDP/GspcdLOTmKEZ5Gp/6s6VUnVJQZ91sq3NRBt3+tKMcc2UECVu9BCgaWObqaXVRA89G05gYkOJDJkAjZhGpo/+SiaxTNQy75Z+6ZNPWAIFDs8kT78gJ/WZyDcqmfzjRpLJbG/PNomZndlbA94zIJR8I4c7ya8FmcWKJ9SBsohMtnQoE2WYPbXZpYePOMd1e7m2hC6ceHt7UmCg1h5/fx+66KIxTlU5w4ZF0axZoykgwLnUkZQUTZMni72bTB3tVNWjDvz05OPjRZ6eHvogee7l5UkTJ6ZSVtYI8vPz7hSP8seMGS7rcpbf1f50KrgPAkICLTR5VAtt+8aXmls646KqDIkdRrEZE8gnoINRoJ9evv7yh3QeXl62a7PZHje/4DCKHZlJ4cPTxfNm/5p4evvIfCpclenl2/nlh+oE5fiHRqim9foR9UanjqGY9HHCG6yxdAQJKDJ5JEWnjbVL52p/0F/gtOXVp2jvv9902g9gHJaYKtuD+vSE/MAKR08fX4pKG6OPtjtf/mqoeO6J/u+dVXbhvXGBMcDD2783irKV4SEekcZm4+fRlnAQntjfJV0DTeues3M0r4vq9dOQjFly9o2bo6hkxyoq2fr/5WVg4jhKXfokmb3aH3CrlU5vfJ7OHfxExidccidFTlpMNXm7KTh1qgxrrjxDJ9Y8Ri3VpfIag3zGrX8gv+hUeY1/lpZG2v/CMnkdO/smiplxvS0u/cbf2c5zXr6dWusqbNfdnfz2t7fThAnJ9Omn+2nBgkxb8ocffp327cujjIwEevrpHwlG0TH4b9iwm/7wh3/JtGAcr7xyP8EOAGppaSMPPGU6euut/5AD/pIlHUt3169/nLZtO0xPPPG2LeXDD19HCxdOsjESq8Bu+fJ/0Nath2SaRYuy6IEHrrSVf/68Raid3qOPP95nK6O7/tgS9sPJrAnNspYvD3Y8K/pqU8XsfvSCa8nDU+gT2unYto10+NO1YgDMoJm3PKSCadiEGfKHgKPZH1Lu5/+WcZfev5z8w6Js6YBZrsh/bLumFp1396N28d9/+FmZ9rxwx/rBU2LPLUEY7Gbf/gsKju6QKGvOFlH2a08T0vUWTb7mR5Q4fppdcaXHDtCu1S8T2q1o4lW3yb6qCQXidr/zKp3J3Uuu9AflLHrkBVIDe+3ZYvpsxW9U8fIIpjt16V22NKjj0Mfv0YmdH8v4uFGTaeqSH0spAkwadL61hQ5sXE2n922X1+rfmXIPahUSwfj03sNKlR2QOJbSli6n2tPfUOmO1VRXcEBF9fjo5dmBdY8LGaCMxkygrlL7RkAMzH3paN4nNI5SrvpPsrQ2U8m2t6ny8BcUMmImeQVqejWTyUypSx4nzPbPZP+d2sRmdgnz76Lhlz8kB/22ho7N7fxi0ujU2qfILzadYqYvo7g5t1H++v+R0GKABwM4k/2WYB4fk3dINEWMv8wG+9ld74q6P6fQkXModtYP6NS631FTxWkZ39bg/mwEL9v8+RPo66+P04cf7qa5c8dSm9BhmMUs6Jlnfky+Qun5/vs7aM+eE3T33ZfT978/lXbvPk5bthykn//8GskAcnLyad26XfSTn3yfwsMDbW119eTGG+fSZZdNpsrKOlq1agsdOnSabr11vk1KgaTx0ENXU0NDM73xxseyfXfe+T361a+W0FdfHaPq6npbVUb9sSXo4mTt2rU2JuSYrKCggO67T3yZ7iJNHd0iU+4/5pwJjJp3JVnEILtr1YvUWFMlB8jmOm3bk3MFeZT9+tPCqBlI039wH5Uc+YbAIEC1ZWfkEf8aqs9R/t5tVHL0gBzEx19+vWAs11DhwV2izEra8fafyNs/gCYuvpUCI2Np6xvaM9ba3GQrY/qNP5V5Ucep3Vsoacocihs1kSZddTvtfu+vtnTf9qRNfMNz6ustVLD/S8n4xlx6LcWMGE8pWZdQ3q5PZfEjZn+PhmfOpOb6Gjq2dRNVFp2kjLlXCEalSS6u9AcFbfv7s0J68qEZNz1AVvGnJ8zupyy5U9xnM+V9+Sk119VQxsWLaMyl11FRzm5qqu14h8AYwVBb6utojGDYYxcu6cQEUHZljZmiwtxXB038pWDmECOcUH3RYTr5/nKqzMU4M4vSb3yK2sS2OOX7PqCy3WvpfJP2rDjJahgUF3meQoMsdOBEx8TDMPEgjDBkAtLRfFM9mf/530Qwkp7vG0t9zMwb5Q0r2PxnOQgDIwzIisC1oZIBcyjduUYGm8WeRpj9h4+71C5t8WevUdXRbfIXPfVaoRZKUsUQ1ESg2vx9claPmT0eCEXnm+sJv9b4chkESaKpXGMCKo27x/Xrv6I//nGdzIbBHXTFFVOlSgYSgZptv/TSB/TUU7fT0qWzJROYPn0kYUb+0EOvyjwlJZX0wgt3y3N3/i1bdpFMftddfxQDeoM8f/TRN21FgLmA3nrrM8rJ0fq6fv0uuv76OQQJYeXKzxFtI2f9sUV2cfLuu+8KScNe3aKSHz9+XJ26dBydos0M9x3tzAQwS/UQz2pDZRmV5x8jq8Vim92jcMzAK4tOkW9giKyrSQxUuHak7W89L4P8gsMFQ6gQzGC/NACHJaZR46HdVC/Kxw8DMMixDA8vbwoflkYtDXV0dOsGmea4GPSiUkaJAXqcvO6tf/s//IcsCnaOgPAoOr79YznbjhieZmMCaTMulWk++8tvZJtw8eU/XpRh+Nddf1RCWz/FDN+kU6UiHowH0lfZycN0cLP2nnr6+tKI2ZdTmjDC5wiJQFF5/lE6/Mm/5GXS5ItEu6NVlN2x9JwHRYe7zwSKPn9NqJycP2+NZ/PkoJ+//hnJsKCFiM66jmLFOIRfXeFBKvzoJZfe/asvbqDH76qWjKq4zIMeX6GNMXadGAIXhkxAOpqHn2HhaN666AGSG8r1QYeU/r762HanpftGaGJj7am9tvjak18TCSbgG55oC8NJ9YmdtmvM3pV+H4HlX6+jiAnfo4xbniVID2AGxZ+/7paax1a4iydr13a0R2UZNUprM3T0L754rwqWx6gobXCClFBeXmOLwwxeL9rbIro5CQryo6qqehsDcEyekKBJWz/5yeWOUZSc3PnFdNafThmdBLz5ZgfjcRLtVtDZSrNMnxh9nqrrtHNVgEVMVCoL8+QAvPg//yRn7Xm7PhMz009UEpeOmJ1i4MTsVk++gUH6S8PzsIQUGQd7wNwfP2KXrif30a4AhwvYG6YIlZCHgy3AU6ijFEE11Vxfa2MAKrw3jyHR2nNddqJjYnUmd59kApCW9FR6TJsQIQwMKDAiRh9tOw/yt8gFALYAF0/KdmsMprvkVquFqo5slb/QkRdR0uKHCapnSAiuTAAra810otCTwoLPU6yQBqJCLd1VOSjjDZlAvzmaV3pLA/FNvTQQM23UntZRJLW0z8yQDjdY6T9x3XSukA786QaKmny1WAJ6MYWNvliofi6iA8ImYGnTVAxI11uEdufnd17HbrFoYvSTT66kAwdO2VXX1OS6/lPBpgpQhmh1jSPq0mOgj1PnaOeyZU+pS9uxvl7TvasAo/6o+K6OK1asMJQEcnJy6Lnnnusqu13c17netGR+gzQO5+R1Fr+3vvGMUAFNp6RJs4SBMk2sAlpKYQlJ9PV7r9uVY3QRHJNI6bMuk+oL2BHOnjhEyVPn0Mi5iw1VDI5l4dkDFR7YZZsVqzSQTnqLYKQFAzAJKQu692Kh3/fw8KJL7v21w33v/jn4tm1S76L+PVXPnnqHVR1tOrWZeFFVcKcjVEFVtc5n9J0S6wIybnteqF2dD201YjJZLCQFkHdIDEFjED5ugdQ2nG+qo/JvNlD53g90pRmfbtnjS/iFCVXQ/lXF9NOltfThNk3FZpxr8MXoRlb7xklH8/AsBkfzW1fbR/biVVN5viwtNGO201KbzxXI8KDkSbb4oOTJ8rz5XJEtzJUTMInSnasp9/WfUvEXf5MiY0j6DLus1vPaQOwVqBll7SJ74SI3t1CWAokAKhr9r7lZq7uxsYUiIztWtYwbl+TwUsNY3EqY6StauHCiOrUd6+qaKCTEn8LCnNsTCgrKZbkREcF27UCbYL/oLXIcBPTltrW16S+7Pd95wEemGZ9uzLgLD3xJ2958jj743c8I0gFWw+hJGWZ9AzswVvHDM7Xn4eDmd4WefafUo8dmZKpou6NFtB3Sgt4IjQRVRadkuqCoeDn7hlpI/VqbNLWcTCD+jR8/Xthj3pC/mBjnM2KV1vEYFB0vJYCSI/vp+I6PhBqsnBLGZTkmo9amRmHDCLRbKdUpkQgw6o+ztI5hMHqDIlNH2aJihQ0EVFdRagtz9cQsVPr+vmIiVeI+EwBjAWtx+hPvNwb/0Xe+QmPufk0sKFlEDaXH6cQ/HxOTxBvpzJa/u20XgERwTtgvhtLHbfr74JxdAsB2R/PwMwxH86aDn+vz9dp5yfZ/SN1+4sL7yCd8GFUJg01w2jTy9A+hok9fFZb7HKmrh+4u9qJb6LxQ5cTNvgVTfTp3YLPL7Yi/+EdSOoD4h5VCYaPnyryNZSftymgsOyWv44W6yezlK1VHdQUQX/FIfXvatGkP3XvvFVLvnpgYRe+9t52gBrrmmhn0xRcH6Z13tsqVO5ddNon+/Od7adOmr+n22y/tVDEG8Li4cHrssRuEwbdApFnQKQ2MwVD1vPbag7RmzVY6fLiAYCzOzs6hDz74ilas2EjTpmVIe8PGjXvok0/20bhxyaIt0+nhh/9GZ86c61RmTwLuueeenmRzmufYaS8xOzTT5bMa6Vd/tGfUWNYJoyVUQJVFeXLJJOwEdeVn7MrCQGy1CPFdLFHMmHOFNApXFZ+S6qP8PdvEh2QLRPjl1NrcQClT5pJayWJXiLiorSihCLHiCEZmGJJbG+rpbN4haXuoEHrviKQMmnPHr+QAbWltFXaFmZJp7PrnCltR4eHhwuivqeVCQkKotNT1ARNr9cHQotNGC6PzJIoQy1mTp2rPta0CcXJs2yZpfJ0vJITjYqVOlTAMp828TKwM2kf5e7JtSY36gwSwjwRGtat1hCTu4eNjW+JZceoolQq7CVb6RIo+Zy66STLPtGkLxDtnpbyd7qnjUN9d19aKCQrRa2udT2CQxoiOvvVzoygZjgmlh08AlWxfqRmDhS3w2xK+bfD26z0p79u2x538hkxAOpqHn2HhaJ7SpvQZE2ipOUt57y2n5Cv/j1iiuUz+0AGsFNJIPETvPE5py/5bGm4Qhhc4/wOh2293dtPVTLO9ELm8FMtIsWoIhOWhJdtWihVAmqSh0sFwVLF/k2RMyVc9IoMPrfgRtdSUqSTf6oi2/vznrwpD8A9p9uzR8ocCMfP+1780GwKMyWPGDKORIxPkD5IB4vX9fPnlDwl6+4svHi9/33xzkjIzU+zaBoYSHx9Oixdn0R13LJRxKGPdui/leUFBGf3+9+/SL35xjWRCYEQgrBZSUokMGGT/nhUfif3mniqan9VEn37la2sd+gYjIwYhEK4ba87RrjWv2NKoE6h6Rs27SvyulEFHsz8QRuT1VCsYBpZYRos19zOxCkaUUZZ3mKJSR0tDs8qP46FP3pf2Bwz2WH+PAVktEf1SLNFEfqyZz1qqGfVRVsE3O/RFiFVgHbP/sjL3n7Fj2RvkSp+sZVodFaePiTaly0mSqghLNAPCIsUKpbk0+hLxPguCWgqrivTUVX/AFJMmz7El9w+JkP1DwJerXpKY7VqzgqZff68tHerIEUbiprpqmc9qbZcu29VltsKcnNyzRKhmqsz07y0dtg0nyXoUBPviwRdv7lFeo0w1DSZhxLYSvmNxtFUZ5Rks4V1uJa13NG8qL+zzNnsHRwkJIJSg5jnfYi82o3KfsDgyiY+5msryxZX7M3N8hwBpw9LaQFj9M9AUEhJAaWmxVFFR69R+gO8EwsICSKmQnLUXH5zV1ECtZDybgW42PT1OfFzmRUePFlFra2cVTHx8hPigLYQKC8vtjNLO6hwMYYfXFFPhWQ9aeF/HIKraBUOjf2gkYTauVD8qztUjVDwhccOlasciJh09JawUChXlQC1VXVIoj/qynnnmGfHdSIawDx2gRx99VB/l1jmkAKhkoPoxIjwHkGrMom9Vxfmd2mKUz93w4JgEuZQUEgcYn7s0O7OZVv22jH75Qhit3hzgbvYBSf/ADTX0q9tqZN1YKTT9h3ED0o6eVGrIBNjRfE/g5Dz9hUB6YhthfXb2Ps1G0F/19nY9a9asEczZm+68807qiSTQ2+0ZDOVhWej4tFb6RCflDYZ2ddeGiRktNGN8M4kP9OlPq11bSdZdmf0Rb8wEblouHc2LJSYER/Pm1U/2R3u4DkbgO4XALbfcQsXFxeLr8k+/U/3mzg4eBAyZgGyiztG8+f3/GTyt5pYwAowAI8AI9AoCQnBxTuxo3jkuHMoIMAKMwIWEgPF3AlfcR8SO5i+ke819YQQYAUagEwKGTMB0aCuZhS8Ba/oUss67tVNGDmAEGAFGgBEY+ggYM4F94kMssaTSOk2sK9Ztx9CbXU5MTJQrI3qzTC6LEWAEGAFGwHUEjG0CQRFkhbP5yhLpbN71IjklI8AIMAKMwFBBwFASkAygMFcyAGtM8lDpD7eTEWAEGAFGwA0EDJkAHd1J5i0ryZqSSdYFd7hR5IWb1MPLTD5BXhduB7ln3wkETGJ3NjzHOPYVefkKd60encv3C/UWW3v4yJ9PQOd3ydPHwxaPdD1pI+pF/5zV31f9HcrlegQHBz/hrAOmYuGUY+wcsk5dTKa9m8hUbr/HjrM87oaJuqm+XjhzOd/zz/KN6ky7KI5iMkKpPE/7lNsxHR6uCVcmC+9KnvLT9rGXD6e6skax26P9lgp4KDOvSRGf2FvFhlnB8vzkDtc3+XKsV117+4tN7IYFUnNtq9jHxf1P61U5F9IR9yQyJVhsRGYR24YM/s24AsJ9hWcxX2qqaRlStyEqLYSybhpBpUeqqLXR/nnvjY5gcJ9z71ixHXcL1Z6138biorvG0PApUZQ4MVK46PSRbdDXGT8ugiZelyrjkebMoUpqa3JvfAiJD6AZt42kytN1Q+7e6LHor3NDScCStZismQvJJFYImQ5v66/29Eo9fqE+lDwtWjyE2tbMzgqNHxdOUekhVFOq7VEUnhREQTGdN6vyCxFeokSch6chVM6K7zYsNDFAMhTf4M6zoW4zX6AJIGmB4UaPCBkSPRw2JZImXps6JNqqb6TYQqhPySK84tWUNFBTdWfm+MWLB+mzF/aLXUadv5uF35TL+EMbT/dpG7nwDgSMR7YR08j00V/JJL4VsMwTWzcPIUqdGSNn1wV7jXdlTBFpaksb5cPaUKk5UMGA70gqrP5ck10UJAiIts4IDAMzxKAov04iKWa7GOzM7Y7jPbw85DXCHAniLMrwDbavR5XhmF6GO2FWmJkFCwbnjJFhUzF93YGoL8i+Psd6nF3Ltkb7ESQnkHIo4pgWDBrYOMajDaodZtEHde2YDuV5+npQcKy/2B+/ZwxUj5/Z0yTLwv10JCPc0Fe0T6kbVFv1+KIO/PSE9I79Qf2qHC8/T3mfEAbCYI2ycURYYFTHjqn6cnHu4W2WeVGGM0IdQbr74yyNUZhsg0NfVFqUq9qPMPSvrdlCu/9xnM6JmbgjQeqFVE1dCHqIl2kcM/fgGvcV75DjvVBFdYebSnchH50/MaLHpnXPkQnO5hfdTyScsg8VwosbOzqMTn9dZqhSiBZqIqQ7vElTcUn1g1BBqAEfs1EMvLveOmIbgBvONYu947VNoUZfNowgSYBqzjTQ/n+fEo61tZkNJBCoovSU/9VZOp6t7VoKETdjXrwtOuvmEbbz7L/k2NRRSVnRlD6no5x6Uf/ed07IekITAmjysjQ6uD5f7ONeZcs/4apkCh8eRJ/9cb8MQ38yxUwVulVFRz8vooI95eqSIlKC5Oz76OfFlC7arQag3I8LqWh/hS1dVyfABZipF62ysE5soRxIO/9+hOorNOaJdk24Otk20APzfe/nUVVhPQVE+NKM20faqkC/Vd9zNpymksOVMg5MN/PqFJleJT5z6Bwd2uieqhL4J0yIoLztJXb3SrW3O9wmiDaoZwHtmPfAeNkczG63rjgkz6fckCaZ7pdvHZXX+HfJgxPo5M5SWa8KhNoCEqulzSrvBcLbms8TZszBsQE09Qfpsv94pkFQH+aIWXJlgTbAYoAe/b1hUvUpE4h/eCZyPhQuSdvVjPIeizar+4NZuquEAR79O/mlaPe2kk7ZZt4xiurLm+W9hB4e6h5Fhz8qoOIDveOTQpXpzhHPUHCcJt0D373vnZDPG8pwBTd36hrKaY2ZABjA9Y/JbwXMq5cPmT4miUEYhIHXiNJmx1KjEFUrTtXakmCQxyCD2VxkarAMD4j0k4wBD1BbS4deEjrHve/kyZnZiIvjpY7z2BfFMk+b0GUf+bRIlo0XCIM5flVF9dI+UXywQhyrpe4745IE2vtunmiLJom0Nmp1QB2CB7j8RI0cNDADHDk/kcYtFm4SVx2XAwAG0TjBiBQTwEONdhcd0AZuzB4nLU2TzA4DOl781JmxggElSMZVLZiXnjAwoqyibyqkJHDeRc9iwGvCVSkSn9yPCslbMFc9k0MdPoFeoi2pwvNVM4HZYHAatSCBJl2XRlv+clCGb3/9MHkKqWjarRlywDmTow0eGPQUoe3QI3+9+jiBKQIX6OV7QhgQU2bEysnCWdFvMCm0yxXcoKrADDL9oniJ+c43c2UTLK09s+1I25BgIEc/KxLqyUaKHRVq16XoEaGS0YE5jFuUJJ6FBMlgkQjPH2xfGKTPCh0/JjgpM2KovqxJhsn7c2WK2GL6POH+4BlXDNauEoMLzMjByMHUHQnPHKTGwn3aM9dS1ybb5R3gSZPFs9eD3d4dq/hW15Bq8ezDpjBqYaKcQGx5OUfe5+5w+1YVD7HMnXUQ7R2wiF1ESTjJkA7mhXemoUCe3h6UmBkhjUmOBl7V/rDhgXIgcZzV4EH3DfSmoFg/mbS1qY0w4/YL8aGGKm2QVmVgwD93ulaTNsRgrBfTC/eVi5einFrESw3dKAZVUFCMVi4Mno1VLTadaLMwnuEaP7X3Ol5iDEjHs4vFyyucp4tZX+mRSgoVzAeqEBAGScxG8SKCYN8AqZkXBhbMaMEUzuXXytnlie2aNBI/PkKm1f+DAR2SBerC7PrsUc0RiD6Ns/Nw0QZIDzCWnz1WLfteJpiXnoZNjpSXx7ecoQahVmsUeJ788qzMF5EcLPsqMWg3sLYK47zCRK8W8BaqDjA/GBth0IThD1j3lI5tKSbcSzBEDKJgUq7ghmcL7Wtt1oyqqq1Gem5X2rfnnyeoYG85VRfXy0mEPg/uIe5J2Ylq+dyBEYIwyYBEgwUNZw6ek9ggHfCNn6BJqrb7IyQQ5IeEXHGyY/Kjr8foHGodqBNBmKBMuyVDUz8JlRwI9wGE5xfvUUNF+/uiabVk3ED8K8mtlNIsJjfoN1SVIfH+LuE2EO0dqDqNR/eKIpLO5kOiyLroAY0ZDFQrXawXhjrM8E7u7Cy2qiLSZ8fJgRWDqp6g848RMzAMtHiQ68qbJBPwFQMpXjI9VbWL4gjDC4cZrCK8LOOvSuqkV3emc1Z5HI/+YUJnLvox44ejHKPIXzClGuEeEYM9VEuYJeLFjx8fLlVJStQPEHp30LBJkfKnL0gNIvowVwd9fR6cK7tIpVDrKMJApjfuBkZoDBDqIEfyD3Pd/oAXGdLQxfeNk4ygJBeSS3mP9cdlxzszOndxc+xPT67BVJRdyll+MHFFeDaVpAr7Cggz3lk/Hq2SyKNSBSkVJ+6JIqjrIsVKN1cJgzyeI5QVNzZc2hYwAYEUhnocVwC5Wm5fp4P0rai6WJN8MalTEndXuKl834WjIROQDCA2jaxwNn86Z9BjgVlRclaMVLlgZuaMYBiDjhBit6PDIwz6GHixfA6zYVynTI+RM+9SMaPQ0/m2DquWLKd9xgOjGBgAZuf7154SM8x6WeZFd4/RZ3fpHLOv/WtPdkqLmTCoVjAmqEow+JcJ9RLEdTsVWLtm4quVx2x6eVWYGiDUNY6OjE4f19W5KktvFMW9cCSo1La8fNAxWOrCOwUaBGBGV7WiXvY5bkyYVDuB2UA95C6h3cqOY5fXTdzs8uouHJ8vJbHpkthO8ax1RfrnzS5de1tPbD0jpQi7uC4u8Jy7Q1VF2kw/NCFQqs3ARPCeQO0DBqAkWHfK7I+0UO11ImDWQ9w6lXWBBBiqg6ypkzQGkLudzFtXD/ruQiyGWgLGPiNKnRUrBx1nBk/omEFgEpjVghHA0IWX13FlkFH5SA8dKQyvEL0xw4N6wRlhUAQ5W82B+rCCxiKYDQZ9/U9fVrFQCUFllZipqVuKhUpAkRpYMFvT58e5XsWi0vf0WN8u+ocN63ADiMFCT3XljfLeeAlVlmNb9AOIYihe4hsKI4LKBcbV7a/nShsG+q9nQEb5XA13Bzer0JfjmXM2qELtB4lOkdFzoOJ7clRqSsxoHXHFNUhJGMBJkf5chXV1hD0BE46kLKEVENwNqlRIIyFxAfI96SqvUVxTXYtNinSWpqlGswUpScZZmu7C9P0MSdBUV5DcXcGtu7IvpHjDt80641oy7dlAptwdZB03r88czfcGmOD4WPKJlTpGoinUFnhw83aUOB0E9Wuaq8RMBwM4Bmq85Gqg666t+GgIgxRWcsDojKVpaXNinWZTLydWEmFQg/FKfbMA/TpUJ5PECqDTu8s0XbWY6WOVx/51p2zlYdCH/QCGbpSnykQCMDE88KMuTZQvW6lQnXj5eUhxHgZnMKneoEphGwFWYLAmIQFg1RXaqScwRXwgNOXGdDolbAGwp0BFlDgpQq5iQX6QGsiw8gqGzUaBJ/qAQQiEvmAWCtHeVzBcvOTAG7aX3iJ3cFMTBxgZYVyG4VYxEUhWUJlAmoTU5mgs7432gmnCJgK1ILDD5AaMKTI9WC7VxIQIqiQ8x3g/gDPeA7TLXQLueK6hZ4dqCZMjMD/9MlBMgDx9zQTbDQgr7GAvQ/36ZxNxUD8Ct+Tp0eK9baT6yibJaBAHghSNfEgDpgNs0QZ3CO2tFc8R8iZNjZZqYJQLKa073NypZ6inNWQCpuxVZCo4RJbpVxOlTRnUTCBmZJj88vfgtnzD+4GVIHhp9Msj9Ykxw8FLYhKykRqUqkvqpZoFA5GkdjFSn8/x/OhnxWKwSpBfZCIOH78kwBDroB/AS3FKGCOHT4mmSUtSZTHZK8QS0fo2OUBjhREGjrBrOmbVMLzqCUwHgw6kBrUqSB+/Z80JGr84WTIKMAsQXgi18kaf1qpkZH2gC+fo1p5/HpdLRLH6CIZs2CjixoRLvFEEBuo9Ynkr2oKBXBFwdZRKsCQUaaD7B2GpIwYekL9Y6gqJTxH6fuSTQkdoVXSPj67ihpVe+OgPixGgM0c/1RLR03vK5PcHqYJBg7RBR9Phd26Y8wfLJiU5j5bFwLgN5otnTC1bxnOuliQDXyzFxUdtWFkEwmDqbLWPjDT4h8Eeg2qZeAZxz2Fchl1Bb2vAChw9gwEDxA/t+fR5bdmyKh5SLGb5eGbATByXLiPdgfWn5AQHEyIwBLX0WZVheGzHq0owK8V8wST3vQfH91qu7nAzLPsCjOjSvaQF9gBhFzBtfkVsG1HY693HVtJnz56llhbnOnxXK4RRDA/ajr9pS/Uc82GLhjn3jJV6U9gD+oOwNh8iraE+18VGYDYFdQcG/J6WheWMfqIcKda3f8/gYvVuJcPLjPuAwQCDEl5avLx6wr2ACgwDprvbAaAcrPDAV9bAFgytL6k3cINk1NZ63vCbld5qP+wwGFQtAn9gg/ugJ9irwETlc9SuKtLHX6jnuIdY9dcgJA3FAPR97Q43fdoL9dyQCVgW/0woyMVqm7XPkqnefgbaW2D0BhPAwIN10hC5sXLCGWGdOmY+FUI07ou9UpzV+V0KkzYJoZKrFqsxQoVtAOvnodrqicH2u4Qb95URGAwIGKqDwADMq54Qn3cLQ+INj5N59ZODob2d2oAZj1IXdIpsD8AqkO7SGOXl8O4RgK0BNgFFEMMPfmCsmlPp+MgIMAIDj4AhE5Afifn4k2XJI2IxfMc65YFvMrdgsCEAwzZ++BYCX1Y7qiIGW3u5PYwAI9CBgCETsIYKgw6czYstpM2bX+3IwWeMgAECMAozMQKMwNBCwPg7ATAAsYMoGIA1vmOTs6HVPW4tI8AIMAKMQFcIGDIB06GtZBa+BKzpU8g679auyuA4RoARYAQYgSGKgDET2LdZ7iBqnSa+E2hxvupmiPaZm80IMAKMACPQjoCxTSAogqSz+coS6WyeEWMEGAFGgBG48BAwlAQkAyjMlQzAGpN84fWce8QIMAKMACNAhkyAju4k85aVZE3JJOuCOxgqgQD2S8EmcUyMACPACFwoCBgyAfPuD8k6dg5ZZy4h095NQ66/2JhNv0+NYwfwpTHcMaodOFU8tjXARnPOdqbEJmh693kqDx+JusLNVXxwT4A9vvBmYgQYgf5BwJAJWLIWkzVzIZnECiHT4W3905peqgXONuDrF75bjQibbcEbl9q5U6XDhmCaj2EeiBQmrhx7AzdIWsBe75DGlbo5DSPACPQcAUMmQCOmkemjv5JJfCtgmXdLz2sYgJypYttcfLVasLfMsHZsrVsr/LkqT1yYhWIQMntokHgIb2G4xs8Z4etY5VXLWTw2roKXMWf+Apyl14eptiCsJ/VgszCjdqNMxCGNO4SNtoKFO0HlzUrlVW11BTeo0kKEvwZnM3091maxYZ66dtZObMoGbJ1Ja6pdfGQEGAHXEDBcHWRa9xyZ4Gx+0f1EIdGulTYIUmGAwJa3cEUIxx7OCM64ke7wpgJbNPZkV9vOIjDr5hG2uOy/iC2e2/e8R+Doy4bZtu2FD4P9/z5l81KFwWv094bJTe1UAfCIhS2RXd1OAVIM9uKBvwC1PbA79WCf/cnCFwE2cNO72EN74KP44p+Ok97V4NO2O8IgP/HaFApP6tiDXr9lsiu4AZPZd42WDE3VBycle9/Nkw57AiJ8acbtI1WUdISunKFja+mSw9pW0tglM1NsiYwdWhU524JYxfGREWAEukfAmAmAAVz/mPxWwLx6efclDZIUSWIABdm5WnRoG5ywNFa3SMcvKgp7w5cLN42RKcGUcUmCHKAaqzU/AsonqUobIvwQ730nTzrMgNML2ArgsByEa+xqCsflZ49UERgO9vKHkxSEuUM9rQcMEAQVjSMTgDcoUJXOJ7AMMPiH/fvBAHI/LiT45PUWzDNmZKgttau4wckOnJ40VrZIiQJ722OfeGz/Dd8K218/LH01T7s1Q+KkfB6AWYAguExamiaZN9oCCQ570WfMS5DOhOAsnokRYATcR8C5rkOUY7lJDPxtrZqDeQ9DXuF+jX2Yw9PbQzr4OHOo0m7mrq8ybHigcPvnI70V6cMhNcA3MWa5oOZaeLXSfjbnHu0ZMODDO5aUNsTe7PCeBILKBIMmvEqdEbN4OLKAgxU4T4mfEN6e2/VDT+uB3wEMrMrNI4zkyqEIpARIJHD56Aphh1AQnIdAGkLf4NNWkSu4AQdIQthqmsRgXie2/K44VSPvA8pBeyTWwmcCqFXUo7BXTmfgnhGSAJznwFsWfAmc2K61Ix5Oe5gYAUagRwgYj+4VRSSdzYcIv6KLHtCYQY+q6L9Mw6YI/wdCfXFyp7Gf4fTZcdL7VekRTcXQk9ZVCdeNijDAewr7AUjpy+HzFY5u9OSqKkif59vUAyYVOypMFjd8cpR0k3nkkyLh8zhAGsOdOdjQ163Oz+RUUnJWDE2/baRkZmXCNSWkLL16TKXt6oiVWnqvYCotGKca6FWYs2OA8J4Gggcv/PQEps7ECDACPUPAkAlIBiC8ilnhXex0Ts9K78dcGEwwWJXn1chZpLOqg6L9pCN5eBdzdRB0Vo7ew5csR9lY2505Yabsir7dWdn6sG9TD3zlYvmr8vcLf7iRqUHC77E/5X99Vl9Nl+fwRLXlpYMUOyaMYkaFStUXyv3iRbFgQLgudIWgPgIDACawc4BxQuWm7B2ulKG8X3618lgn50E9YbAu1cmJGIHvAAKGTMCaOongbJ5yt5N5z8ZBDwUGGTiFh3NtI4KxFe4OoZs2IuUOUVvV0+5b2CixQ3iDGNxAkASgAukrcqWeqgKhehE0Ym68VJ/A89pw4WwbGFUKf7HuEJgRMMMPAzcM41Crwc+soq5wix4RKlU+xz4vFsxXYxz4HsCR1GDuJb7VcCTlwD0g3Ne2ossxDV8zAoyA+wh0ftvaywADMO3ZQKbcHWQdN29QO5qH0RBLPrGCpvasc103lnNi4MnbUdLlDBa6dBD06HCUAj+4jt8StEPU6YBBTHMoHimZAAZNq5gtR6YHyyWZXTGoToV1EeBKPS2NbVJlg5U3+V+VSV2+cjYPnFyl4VOjhNJecyxuEhYkGLpBDUKy0FNXuJWdqBb5QmjY5EhpkMYRH5c5EhgnfmA0MKQ3CikEUgN8I0OywTnUSriXpblVYvmtB8WNDadyoaJCHUyMACPgPgKd38T2MkzZq8hUcIgs08UuomlTBjUTiBkZJpcfHtyWb4hAyoxYORst2NP1skgMZqfEKp7hU6Jp0pJUWV72CrFEtF44THFB+3FsSzGZYCAWxkql7sCgfTy7w5hq2EgV0Uv1YOCEKgYqMjh8wQALV5t6NZOq0uiItfiQoEZcrKWA4fzIp0VydZU+T1e4nRVLZOPGhsmVU8gDoy6WfWIpryNhSSgG+nGLk2QUDMrKNeieNSdo/OJkudpKMTSUpVYSOZbF14wAI9A9AoaO5pHVAnuAsAuYNr9CpvLC7ktzM0VvOJpHlTDCYqDFckNnhFnnnHvGSp007AH9QbBRYDWLRbSrqaZVtq8v6u2PelQdYCJdfYXdXf88fTwIK7iaxMqrb0P4EM8v2FtKCGBqTIwAI9BzBAyZgGXxzwjO5k1rnyVTfd+I2r3BBLAaCOvyofOuF0sPnRG+UA1LFDpssbSwVahJmBgBRoARYAQ0BAy/EwADMK96QjIAyw2PD1q8IAFAXWDEANBwzBaRhhnAoL2N3DBGgBEYIAQMbQLmlb8m8vEny5JHiBo7VoEMUDu5WkaAEWAEGIE+QMCQCVhDxSZscDZfXiCdzfdB3VwkI8AIMAKMwAAjYKgOkgxA7CBq3vwqWeM7NlMb4PZy9YwAI8AIMAK9iIChYVjW4SlWt2ATOeFo3vzOb3uxWi6KEWAEGAFGYDAgYKwOYkfzg+H+cBsYAUaAEehTBIzVQVc+SMSO5vsUfC6cEWAEGIGBRsCQCfSXo/m3lpdT/vpCOvxOEd1xlXt72gw0eFw/I8AIMAJDHYEubQLS0Tz8DAtH833lZ3hcWitdObeB7rpGYwCpVycMdUy5/YwAI8AIDBkEDG0CcDQv/QzD0bxYJdRXdPCEFx08EUJZo1soa2wziQ+ASXz/xcQIMAKMACPQDwgYq4P62dF8RY3WFLOHcw5gNpvJ399f/voBF66CEWAEGIHvBAKGkkB/O5q3tG+/HxJgpYpq5aWl4x4sW7aMbr75Zhlw4403UkOD69shd5TCZ4wAI8AIMAJ6BAwlAZNyNB8iHJH0g6P5wlKNH/3oyu6Nwx4emjtHfUf4nBFgBBgBRsB9BAyZQH87mn9+VRAdyfeiB39QQ4fXFNMLvzxn15vi4mIqLS2Vv9ZW3j7YDhy+YAQYAUaghwgYqoOonx3Nw+tgRMh52Y2iMg86UWjftOzsbMKPiRFgBBgBRqD3ELAfaXXl9rejeSwRjQy10P97PYT+8m6QriV8yggwAowAI9BXCBiqg6SjeXgWg6P5rav7qn5buWNSNRXP2xsDbGH6k/Hjx9Mbb7whfzExMfooPmcEGAFGgBHoIQLGTKDd0bx5z0bpaL6H5buczbN9aWhjc+eVQSgkPDzc9gsJCXG5XE7ICDACjAAjYIyAIROQjuZzd0hH89YJ841L6IUYfCCGL4fb2kzy56zI2NhYW3BZWZntnE8YAUaAEWAEeo6AoU3AVHDIztF8z6voOufz/3GOrrukgUyCEWTv8zFMnJWVJeMOHDhAlZWVhuk4ghFgBBgBRsB1BAyZQH84mkczN+3wI3wjcOikF324zc+w5UlJSWQVS4ief/55wzQcwQgwAowAI+AeAoYbyOE7ATiaJ/EpLxzNm1c/6V7JvZwa20aALOrT4l4un4tjBBgBRuC7iIChJDDYHM3z4P9dfDy5z4wAI9DXCBgyAXY039fQc/mMACPACAw8Aoarg9jR/MDfHG4BI8AIMAJ9jYAhEzAd2kpm4UvAmj6FrPNu7et2cPmMACPACDACA4CAMRPYt5nI05us064mamkagKZxlYwAI8AIMAJ9jYCxTSAogqxwNl9ZQuYNL/V1O7h8RoARYAQYgQFAwFASkAygMFcyAGtM8gA0jatkBBgBRoAR6GsEDJkAHd1J5i0ryZqSSdYFd/R1O7h8RoARYAQYgQFAwFAdZN79IVnHziFr5kIy7d00AE3jKhkBRoARYAT6GgFDJmDJWkwEZ/NihZAp/0Bft4PLZwQYAUaAERgABIzVQWAAH/1VMgDLvFsGoGlcJSPACDACjEBfI2AoCZjWPUfS2fyi+4mEs3kmRoARYAQYgQsPAWMmUFdJlusfk98KmFcvv/B6zj1iBBgBRoARIEN1EHYRpbZWkhvJeRjyCoaQEWAEGAFGYAgjYMgEqKKIzO89TdaQKLIs/a8h3EVuOiPACDACjIARAoZTfPOmFWSNTSMrnM2fzjHKz+GMACPACDACQxgBQyZgTZ1EVuFsnnK3E5zNMzECjAAjwAhceAgYqoPAAEx7NkgGYB0378LrOfeIEWAEGAFGgP4XT6vlvb/5yKAAAAAASUVORK5CYII=;" parent="1" vertex="1">
                    <mxGeometry x="1420" y="330" width="385" height="115" as="geometry"/>
                </mxCell>
                <mxCell id="4" value="" style="edgeStyle=none;html=1;" parent="1" source="2" target="3" edge="1">
                    <mxGeometry relative="1" as="geometry"/>
                </mxCell>
                <mxCell id="2" value="&lt;font color=&quot;#000000&quot;&gt;useState&lt;/font&gt;" style="rounded=0;whiteSpace=wrap;html=1;fontFamily=Helvetica;fontSize=12;fontColor=#FFFFFF;fillColor=#99CCFF;" parent="1" vertex="1">
                    <mxGeometry x="80" y="120" width="80" height="30" as="geometry"/>
                </mxCell>
                <mxCell id="3" value="&lt;font color=&quot;#000000&quot;&gt;Absolutely fine hook to use whenever a component needs state&lt;/font&gt;" style="rounded=0;whiteSpace=wrap;html=1;fontFamily=Helvetica;fontSize=12;fontColor=#FFFFFF;fillColor=#FFFF99;" parent="1" vertex="1">
                    <mxGeometry x="190" y="105" width="260" height="60" as="geometry"/>
                </mxCell>
                <mxCell id="5" value="&lt;font color=&quot;#000000&quot;&gt;useReducer&lt;/font&gt;" style="rounded=0;whiteSpace=wrap;html=1;fontFamily=Helvetica;fontSize=12;fontColor=#FFFFFF;fillColor=#99CCFF;" parent="1" vertex="1">
                    <mxGeometry x="80" y="300" width="80" height="30" as="geometry"/>
                </mxCell>
                <mxCell id="6" value="&lt;font color=&quot;#000000&quot;&gt;Alternative to useState&lt;/font&gt;" style="rounded=0;whiteSpace=wrap;html=1;fontFamily=Helvetica;fontSize=12;fontColor=#FFFFFF;fillColor=#FFFF99;" parent="1" vertex="1">
                    <mxGeometry x="190" y="240" width="260" height="30" as="geometry"/>
                </mxCell>
                <mxCell id="7" value="&lt;font color=&quot;#000000&quot;&gt;Produces state&lt;/font&gt;" style="rounded=0;whiteSpace=wrap;html=1;fontFamily=Helvetica;fontSize=12;fontColor=#FFFFFF;fillColor=#FFFF99;" parent="1" vertex="1">
                    <mxGeometry x="190" y="270" width="260" height="30" as="geometry"/>
                </mxCell>
                <mxCell id="8" value="&lt;font color=&quot;#000000&quot;&gt;Changing this state makes components rerender&lt;/font&gt;" style="rounded=0;whiteSpace=wrap;html=1;fontFamily=Helvetica;fontSize=12;fontColor=#FFFFFF;fillColor=#FFFF99;" parent="1" vertex="1">
                    <mxGeometry x="190" y="300" width="260" height="30" as="geometry"/>
                </mxCell>
                <mxCell id="9" value="&lt;font color=&quot;#000000&quot;&gt;Useful when you have several different closely-related pieces of state&lt;/font&gt;" style="rounded=0;whiteSpace=wrap;html=1;fontFamily=Helvetica;fontSize=12;fontColor=#FFFFFF;fillColor=#FFFF99;" parent="1" vertex="1">
                    <mxGeometry x="190" y="330" width="260" height="30" as="geometry"/>
                </mxCell>
                <mxCell id="10" value="&lt;font color=&quot;#000000&quot;&gt;Useful when future state values depend on the current state&lt;/font&gt;" style="rounded=0;whiteSpace=wrap;html=1;fontFamily=Helvetica;fontSize=12;fontColor=#FFFFFF;fillColor=#FFFF99;" parent="1" vertex="1">
                    <mxGeometry x="190" y="360" width="260" height="30" as="geometry"/>
                </mxCell>
                <mxCell id="11" value="" style="shape=curlyBracket;whiteSpace=wrap;html=1;rounded=1;labelPosition=left;verticalLabelPosition=middle;align=right;verticalAlign=middle;" parent="1" vertex="1">
                    <mxGeometry x="160" y="240" width="20" height="150" as="geometry"/>
                </mxCell>
                <mxCell id="12" value="" style="shape=image;verticalLabelPosition=bottom;labelBackgroundColor=default;verticalAlign=top;aspect=fixed;imageAspect=0;image=data:image/png,iVBORw0KGgoAAAANSUhEUgAAAcoAAAAyCAYAAADcKpscAAABXWlDQ1BJQ0MgUHJvZmlsZQAAKJF1kMErwwEUxz9jUlo4SNLKDovLaH6bcmQjqR3WbIXbb7/NqJlfv/0kNwfuKy5uwoGTGw47KH8AJQ4Sbv4A2YX1834btpH3en0/fXvv9XrQ5FJ1PesElnOmEZsKeWbn5j2tLzhppp0+FFXL6+PRaERa+NbGKN3hsPVm0N4VPzz3LjwFe8duBy7dxZPjv/0N0ZZK5zXRDylF0w0THH7h6Jqp27wh3GXIUcI7NmeqfGRzssrFSk88Fha+Fu7UFtWU8LOwL1nnZ+p4Obuqfd1gX+9K5xIzot1SbiaYJCLpIYHCCMOMisc/M8HKTJgVdNYxWCLDIqZMj4ujkyUtPE0OjSF8wgp+qYD9698/rHkr+zD6Bs2FmpfchbMt6Lmved496NiE0ytdNdSfzzpKzvxCQKmyKwQtj5b12g+t21AuWNb7vmWVD2T/A1zkPgHj1GQQDnfuJwAAAGJlWElmTU0AKgAAAAgAAgESAAMAAAABAAEAAIdpAAQAAAABAAAAJgAAAAAAA5KGAAcAAAASAAAAUKACAAQAAAABAAAByqADAAQAAAABAAAAMgAAAABBU0NJSQAAAFNjcmVlbnNob3QMkudGAAACPGlUWHRYTUw6Y29tLmFkb2JlLnhtcAAAAAAAPHg6eG1wbWV0YSB4bWxuczp4PSJhZG9iZTpuczptZXRhLyIgeDp4bXB0az0iWE1QIENvcmUgNi4wLjAiPgogICA8cmRmOlJERiB4bWxuczpyZGY9Imh0dHA6Ly93d3cudzMub3JnLzE5OTkvMDIvMjItcmRmLXN5bnRheC1ucyMiPgogICAgICA8cmRmOkRlc2NyaXB0aW9uIHJkZjphYm91dD0iIgogICAgICAgICAgICB4bWxuczpleGlmPSJodHRwOi8vbnMuYWRvYmUuY29tL2V4aWYvMS4wLyIKICAgICAgICAgICAgeG1sbnM6dGlmZj0iaHR0cDovL25zLmFkb2JlLmNvbS90aWZmLzEuMC8iPgogICAgICAgICA8ZXhpZjpQaXhlbFlEaW1lbnNpb24+NTA8L2V4aWY6UGl4ZWxZRGltZW5zaW9uPgogICAgICAgICA8ZXhpZjpVc2VyQ29tbWVudD5TY3JlZW5zaG90PC9leGlmOlVzZXJDb21tZW50PgogICAgICAgICA8ZXhpZjpQaXhlbFhEaW1lbnNpb24+NDU4PC9leGlmOlBpeGVsWERpbWVuc2lvbj4KICAgICAgICAgPHRpZmY6T3JpZW50YXRpb24+MTwvdGlmZjpPcmllbnRhdGlvbj4KICAgICAgPC9yZGY6RGVzY3JpcHRpb24+CiAgIDwvcmRmOlJERj4KPC94OnhtcG1ldGE+CrW9jj4AADspSURBVHgB7V0HfFVF1j/pvTdIo/fekSogTYqooDQLCyJ2RVlR1F3cteCKrq6LAmJB0U9pgoh0ERvSQTqBBNIgjfSE1O/8z83c3PfyXkhCwgK+k999d+7MmXbuzZw5ZWbswsPDS8kGNgr8jykwYkQ3euKJ0WRnZyctuXSpkObPX00//HDof9wyW/U2CtSMAlOmTKEPl31oNfO0SdPo448/tppuS7h2KOB47TTF1pI/MwW++2434fLx8aCiomLKycn/M5PD1ncbBWwUuIYoYGOU19DLsDWFKCMjx0YGGwVsFLBR4JqigI1RXlOvw9YYGwVsFLiRKAD1qg2ufwrYWbJRchwlJSVRQUHB9d9DWw9sFLBRwEYBGwVsFLgCCthfQV5bVhsFbBSwUcBGARsFbngK2BjlDf+KbR20UcBGARsFbBS4EgrYbJQ1pN60llOof71+kvubs2tpZfTqGpZky3ajUuCzm8td/5/+/VlKyku6Ubt6Xfcr2C2I5nV/lf65/zU6nXnGYl+8g8MoLyONCi/lWUyvSqSLhxc5uXlQdsr5qqBbxHFwciYPvyDK4jJKS4ot4liL9I9oQu6+AZJcXFhIicf3W0O9buLvaDiGugd3pdm7XqjTNv+pGKWdvSP5tuxDOfHHqCDjwhURNtQ9lLycvej9owut/nNdUQW1lNnBw49cQptRXsxBKi28VEul1k0xDg721LVrMzp9OpFSUjItVhIY6E2jR/eggABvsre3o/T0HFq3bhfFx6daxK/LyAYNgsnPz4MOHIi2WM3SU59Te/92NCT8FnK2d7aIcyNFYmnPc8+NoxYtwsjJyZGys/Np795T9K9/rTLpZvv2jSg01J82bNhrEl+dh9DQAOrRozlt2rT/ipcS3dtsMrk7utGZTMvvEQxm6kc/0J6VH9IPH7xcnWaa4I5/82sKbNiC5g9vbBKPB7/QhtS4x0A6vGk5XcrJqpCuInrd8xT1nPAIffrQcEqKOqKiq3S/fe6HhL4ASoqLaP6wiu1AWquBY+imiY+Rd0gYlRQV0flTf9Dal2dQfnYGkq8qoC35mRcpes+PFuvdnbyHHmw1jXoGd6edSbss4tRG5J9K9erg4kYNRjxD/m1vqQ3aUV5RLm2M20xRmadrpby6KMQ1sg353zKFHH2C66L4Wi3Tzc2FhgzpRN27N7dYbqNGIfTgg8Opfn1/ZpDZwkwDA72obdsGFvHrOnLgwPY0YkR3q9Vsjt9K+Ef+s8A770ynLl2ashNgER0/HiebRwwe3KlC96dOHUwzZ46pEF+diP7929LDD4+gxo3rVSdbBdwAF38aHDaIvjq9gkr5zxIU5udSzsUUSj0XZSm5ynHJMScoNdZyGS36j6SBD/+dghq3qrS89MSz0pb8zPRK8Swlfjx9ML0zuhVdOHXYUrLE9bn/GRr53LvkUz+SLjAjzk5LogadepNv6P/mf2zoU6/ToEetT05ic+LoWPpxmtbyL1b7VBsJV02idPLwJ5eACJbkzluU5py9g8nZJ4RyL0RRSYGpesPe2Y1Kiwt5GlRCbvWaUX5yNM90LHnk2pFHaAsqLS1hnBgDjh3ZO7vy5S40s3dC2E3CpVxOdVUYVSW8o28IOXj4UmFqHJXkm60P5B1onPxDyc7RmQqSz2GKV14sp9k5OHKfi4g7o8Xb2XOcA5UWMR0Y7Byd8MvPBeToV49KWSVUnGuY8dk7kL2DUxkeaf3nfgNKCutmMb+XlxuFhwdScnKGRYkQu+6EhQWItHH2bBK/zhJpD+JdXJzI1RV9Ikl3ddUkMAy6Cm/UqB48+BItXbqNzp1LFlzg+fp6SFj9ODk5EKS93NxLlJCQpqLl7ujoIHdsaqAA+MXFpXo9KBPpqLdhwxCKi0uRwV/hOzs7sjRrLxfiVFv5ZVF+vvZ+FO61cAdti4tLpE+qPW5uztLWUvV9lSU0bVqfAgN96MSJOLp4MVuh63eU1aFDI0pLy6KoqEQ9vnXrSHm3O3eeoBdf/EyPb9kyXA+jTgf+hnEBPD3L/ge5DcYNJkDbVq0iyN/fk44cOSd1qUIgqaINuAD45lQ52dmm4wa+K5SD7+rQoRiT/qvy7mikMezvYzeoKJO7vaMjM6Zk+mBid/5/1L5XhWDH/2Mu7p50KTebnFzdKKx1F4uSj53879rThvnPqKz6HapUJ57AO7po/5uuXr7k6ukj6eYSHNpyZPMKuSDpmQPaE9qqE3n4B1P8kT2Uw0zOCMhTwFcJxlIL4Mx96TnxUSrIy6FFk3tRHktygOAmbSgrOcEkh7tPAIW17UpJp49SxvlYkzT0p5jrMLbRmVXOhfl5MjZXhW5QU4Nu+Ie357FQ0aS4sKCC+vvrMyvob51foFa+LYVpmjSGH5ydncmRaVeE/tdwJUedM0pXZo5Nxv2DnLwC9fZD9Xnqi1nyDAbabOIb5OxbPjNMPbSRYjf+R8dv/8RyYaBuQY0IRAZjS9q1ghJ/Kv+HjBj6mEiKSBfgf77jnzxC+SnnyL1eU2p+z9t6ecHdbidcgPitiyh531o9rTYCbo06sRT3F2ZS5eTN3LOeMnd/K8W71G9GgSMfFSaJCAxWF39YSrkndkq6a3grTn+MUjd8QHnRByXOr/8k8mjVi+Lef0ieQ8a9QPYu7kILB4+yf6y445Sy7l1hrj5dR5JXl2GCi5+g22bq4cSlz1FxTvVnpHoBZgEwv4kT+xsYBgmDWrJkk47ZuXMTGj68i85cwITWrt1Ff/wRw8womCZPHqDjtm/fkHABfvrpCG3f/gerOL141x53XraUoTNJpOfnF9D58+WTpoEDO1CvXi1FmkF6YWExffHFdj3Po4+O5IHaXrbHQzpg9uxxzBji6euvf5LnWbPukMHZ19dT1LslJaV08OAZVvHulvTp04dxezwljB/gA8BcX3ttuYSvpZ916/5Gu3adpDlzlkqzILXPmnWntHXbNu37uv32m2jatKE8qJR/s19++SN99NFmvSvPPjuWbrmlo/4M1eqTTy4iTHrAKAHR0ef1dAQgWSpYuPBR0Qao59Wr50gQk6ERI/4uYbTtmWfu0N8fIi9cSKfHHvtAGPdjj42S70iQ+Wfu3EkqSPfe+xYlJmoTI2yJCFy8awAmCm++uYq2bDmg4yPQ0rcF246TKa+44uQRatIpi8v7b656bdHvVho157+iAg1u2kbKhQ1z63sv0R8bvtLrue+D73VJEczDqHod/Ng/qd3w8Tou1KMKFt/bh9ITeRLN0P+B56n7XTNUUgXVa9shY2nYM29qzKUMK/NCPH3ONIA0XBXoPu5ByX/wu2U6k0S+pNPlKl6Mr+Pnf03hbbvpRYJRfvboKLHhIvLJdScoetcPtGLOfYKDtg2f9Rate+1xOrbtG6oK3R5b/YfeF596EYRnAKThpQ/fKmH1czIjSoJ4l5AuzeHVV1+l5s2b88Q5l8aPL6e1OV5lz+X/FZVh1TANM4KmE94gR1dPSju8hZJ2ryJX/wgK6FA+gEeOmClMMu3INko/toNCB06jgPZDKSt6H6Wf/EWv2T2kKaUcYGYTtYsihj9BIT3vZma5ioov5ZBbSBMtT8x+ituygJmpo9QhEhmXkMcS6PGPHyYHF09hymDEyXvXSNkF6ab/2HqFNQw4egeR/9AHeNQsoMxdGyg3aje5NeogkqUUyTQJGPGItDHj9zVUkpdFPr3Hkd+Aeyn/7GGWPCvO4pFP7YFqbJa9mycVnD8jTNar83ByDW9J7k26cJ17KPPgJq1ufvbueiulblpMRRe1vhbnZRqLueLwbbf1lBn+6tW/ifQFKQzqUQWwK2Lgwv6t27cfEElt4MCOYmuEPTI2NkUGZEgcEyb0F2nml1+OSXZIpwDYtADx8db/6UNCfKl371ZcTxGBAaANHTo0pLvu6iuDpBRQxR9/fy86dixWBvrhw7tSp05NuMxDIqUuW/Yjubs708iR3Vn68qZPPtkipaJ/tQlr1qyx+N5RR2xsLD3yyCM1qg4Smzncf/8tIjWDmcI+DIYIqVHB+PH9JA7vasmSjdSmTQMaO7Y3zZs3hQefefTtt7/T9OlDOdyPmjULJXwLYM5GmD37U/L2dqOnn75dJP7HH18oyTk55bZzTEr27Ini/L9SamoWQYswcmQ3ev75u5i5f8R1b6L163fT0KFdJP6dd9ayZKtJO+pbgTbhySdvk3eFd4MJDCYBf/3rnbR79ymT3Z8iPSPZx8Cy6SQt7jR9NWu8qCGHzXxDpCFjf1Q4qEkr+v2r9ykvPZX6T3+ebn7wBRNGueYfD5FXYD1hZJ4BISqb3HcsmUcH139B7YbeTR1GTqLN7zzPKs/DkpZpkOJ2f72Qondvp46j7hVGY64lLuWJZ8yeHbR39UeUnXqBOjEeyhv5/HvSB5NKrTwENmohKWd+32YFg6jPfTOFSV5MiKGfP/4XdRp9H4W3604jZr9DK567x2I+XXgxS62MbktZre7AWrPx85eLjfKbudMlN5yYzCE1X/NPaOzVyDzJ5NnSGGqCUMlDnTJK76bdydHNi9KP/0Tnvv+3NAMSnpEBekV2oMLsNDq3/i0tfUUstZ6+hAK7jDLBK8y5SHGbFwhO6oHvqV7viQRpNSfhONfhLfG556Po0kVNHRS/bbHE4QcME/WiLQDUh+e6ADAlvJC0H5dR7ilNAsk6UD4rdanflOydXCjv1B7K2rdBmmDHKlHf3mNFYszaXy6FVaV9Kd+9J6pqqF1D7nqBnAIjiJhRQhWL2a1zSGMppigjmQrTTNUnVSm/KjhQg2GAO336POXlXWLnljNyqbzKTrVjxxFhpIjfuzdKJD9Imj//fFScccpVaPkVnHNgiwRkZZmq1ySy7Kd379YSApPcs+eUhOvX9yMwUFyQTKoKUKGuWKFN1CIigtjJqKkwXjD2ixez+CJmLBpjrCtHopUrV+pqSvN2R0Vps2jz+Jo8Q52JSQqkMagoIe0r5q/KGzeuj2g+3n77m7IJzx/Url1DgmoVkwUw1/ffXy8MCQ5ZuKD6/uCD9fT993ulmISEVNY0kMQjwihtqnog8eHCNxUREUibN+9nptiJIiM1Gzu2OMSFiQsA0qx5ObBjAz777AdR3SIMhy9MmDBhg4YB4GjnSN5OXhSXEy/P5j+Q/s4d+JX8mfEARBVojsTPsQd30o4PX5OUDiMmkl+Y6YB9MY4ns3xdysogr4B6JiXkZqQSrgad+kh8ytmT7I1qKvUiAThoS4POfbX8dtpN/R7ZsopwQe3pF9GYDrOKtu3QcRQQ2UyhXPbuFVhfcMxVqcaMbYeMk8fPmJHB6ej49m9p5vooiuzYy4hWpXBldFOOStAeYhyzRBNVCWzLaZfSqKGXZTvqyZMnWRvlI5voqDzVvdcpo3QL1j7mtKM/WGyXI9vv+OujXGZ2CuCNCvsjbJZGyIk7qj/mJZ+RMCREQFbMASpiySyk5zgK6jyKcs+fpIQdn1Ju4glJv5o/jn7ax5YXXfFjRzuc2J4IyDP0Jz8Wqo2xBJtmdaAkL1u35xamav/sdmyLvdoApnTzze1YUhgjg+CpUwni0Qi1JwC2JsDgwR3lbvwJDuZvoAqgpI5ye2DFTMpWCUlQAQZSMMl69fyqxSjPn2dOWAZKnQdmcjVh6dKlV6W6wsIiOnr0nEiJGzbM5QElXSTClSt/1euHLRATwLfemqbHqQC8XMEoIUWuWfM7wdHm1lu7ii1z5szbaf/+M6weL6enymfpHhTkTe++O0OYrzHdqBI2xlsKh4Vp2ocHHxxWIRlqfgVFpUVUXFpMPk7aRFvFV/d+eqemUUC+9ISz5BeuTU6rW86V4HsF1afJ764hT5ZcjeDo7GJ8rDSsvG3dvP0q2B1VRhcvHypgm6zCRTzUwwGRTXWzmMK93L026ebp5EknMrTJsXm9ixYtIlxXAnXKKOHcALA2E9PVBxZUQTx9NemXiQOKaRLjldKRBZNZ3Tpcln94RrSj5pPnU9RXcyj7nGaDMSmsTh9U48ymfGV1KucJI030cFnWcucie72ldiyFmoM4OJlF6mWZxdflI+yIYE79+7ejJk3qU8eOjdkbsT69846m3kbdkDghjZhDVZ1fMHgDsCzkcmCqYtHeg9nnpBdhjfEanX3Ud6xnukqBhQsXWpUojxw5wvR8u8otMdLEw6Pit/Tkk4tp0KCOzOC6iL1xxoxbeZlHOL366td6HZDIH3lkgf6sAhkZuSoo0iiORsOFydOcOXfT3Xf35W9hrY5TWeCllyYKkwST3rr1AEu5F+nLL2eJrbiyfOZp+D8bN06T8oxpasKl4iBNRniyFuYKAM48CtT/t3q+WvfbXlooTBJ21KNbV1MGM68ZX/7OzKt8DLlcW6BObdC5D9Vr3p7OnzxkHZ0nTJcFAw4ccyxBbdHN3dFdll9ZW95jqe7qxlWditUtmfHzLpyWXH6tB1jMXZTLgx9/0O71W+jpLr71yR6eoFnJelxVAmAuKfvXUdSXs+nYkhmSJaDDUJOsWDsEcPLUZpwmibX0oNSb7o07WSyxqMwm6sIOOwpcIjSVoUorLfNKdQoMVyiyFlJ/qE6gzMNNOfxYyjpp0iRWtX1C//lPuQOVJbzK4iBRrFz5C73xxgpxuIEtSnmxwtaENY+QSqCOM17KoxVlK+bk6VlRKobnaVERvFCDdYcg8/YoL83WrcsHvsjIIEG7cEGTaFCHkTnCg7OmgPagX8qTtqblWMtX2aALD76qAspRUhby9OzZ0mJWMKann17C6sm58i66dWuu42Vm5olmICsrn1WfuSYXkKAqNTJjxMHZBwDVrBGgaQCuJSkRXrewjUJlC81EQICXyftS5Si1tyWNBOyoKB+TKvO2qm9MlXOGNxgI8whVj/+ze1GBRivv4PL/+eo0JqRpW/FyxTrPC7zu0SMgmD1x3S0WkZmUKJ6k5gzs8EZtUtR5zBSL+RCJNY3wYFVeqIjD0pFi9sZXE3ysOvANa4gkgSY9b1HBat9he3V2t8xoVWERHhrNorOiVZTJvTbGtzqVKDPY8QbM0Ld5L2o4incmYWceF78w9k4dRKeXvyidyYzZR96NulDD0c9S+olfKLTf/RKfvKei9GHSe8ODb4s+5MN1wHaJ+oK6jpHU3MSTBiyWanjZCeyVfi37sXoW9swEtlWelTwmiFfwkLX7O3JvcRP59p/Iyzbqi0ONa4N25ABb7S+8mDiRl7+wzh2MtKjbKHHe8ek2Uuw/Occ1VVfRRc0m4tmmnywtceP89mX21eo2rSBNU8n63jSWMngCAnXtpURWURhErAYNGvAg6C96/OqWD3w4gsDbEZ6jQUE+MqBiQII3IwA2JwyAwMPi/MOHY9j+FETdujWjzz//QV+GAA9WME5IpX37tpFlJljekZmZKxIpnEPg0Qpvxu3bD0kcyjh7NlmkD9g6saZywID2wrygbg0J8RHGrOyTYNrwWL3jDvYgZuYLKbimkJqaKYx7woR+ol7EBODMmfM1La5CvhkztAlfhYRqRsCuC8cmeBZ7e7uLStRYBNSdr712v6hOoRnAOlYw/wsXknS0//u/HbyGdRi/r6dlQoR33a9fW1k3OXXqO+xE1VrWRm7cuE/sz3jf8KQFQONghNjYZGnDK6/cK/ZL2BxhswZER1+QbwUOYmDw9947yJhVD6N+wLRpQ8S+Crvxr78elzwLF26QPmBd54YN++TbaNu2IY0Z04Mdgj7WPWORf2PcFhoQejN1DOhAB1JNtU9YFuHhF0hevCsPwLd+JDXq2p+XOeRS3GHN/0ASKvkBUwlr01UwnCFZsTCGMgBJZ47pSzjOn9Dq7j9tNjMid1mSEvXrZu6PtiQFNkA4t/iVMaDwNt3IwzeQ4PCTevYUJUcfpxD2vO182/1Cg973PiV1WPo5+N3n4hA04a0VdGDd56Iujtm7Q+yAydwmrOW8+1//R/vXfEpQ6fYY/wh7sN4r3r3w5sWmB/d9sIF+XfYOdbh1orQLXq4K8tkW61e/AfWa/CRBjRvRoadKqvYdS1ygyh78+Ct0dv8vrOY9W2GjhcHhg6igpID2JO+1WP6Vjm8otE4ZJVRWWAbS+M6XWSXaVy5Umh2rufoifG792+wZ+zr5tuB0vgAp+9ZRxqmdEtZ/yj4Y/ZkDpWxfEOB/KD/OCwYIADPMPLOHLDHb2M3vUfjAGRQxRPMYjN+6kJeHfCv5auOniB2F0r5/n/wHTyWvzkPlQrmZu9ZpxXNbU777DwWNekK8USWSmUPa1o/1tZZQM2f+vpa8uo6ggKHTea0kr/+5EM2OOUbph03YBmanFV7xtzAljnKO/kIeLW+igCEPCELiZ3OomNupwM/PT4J5edYdZRSupTuWbWDQxAXIyysgDJhQtwIgbcJ2BS/R7t2byYV4eKcqOyaeAfAsvfnm9qK2w7NaHoIwJB4HBzsZBLE7DwA0OHRIm0nC63HHjsPCZAcN6iDpYNYY5BVs2rSPmfkAtsdFyhUTkyTMTqWruyXaqv4onK1bDwrDh5clPH0xObgWl4e899468QK97z6N6cAeieUcSprHZ4QlPvAUBaDvoOXcuV+qrrJj08/ieQwPVKhlFcAGDICjDuiD92J8N6A3ds8xwuLFmtcspHmo6Y3LQz7gpRRz504kLOMBYOclXOZS++HDZ+m3346zdNyCnnhitOBOmfJvmfyAEb/xxkph3GPG9GQGqQ3UmMiYeybvTz1AWLQ+vsldFRjlbX9bKMxRCuefpr2GyMUEon8NacDrEbXxp7TsrvCM95Bm7Wjsa58Zo/Tno1tX0XevPylpYLxRv22mJj0H0eAnXpW4D6fcLE5AeLjrjS9YSi5XAKpF+JlJ8bRw0k2yY9CYuaw+L1ucn8seuLjAXM3h7L6fxfGnJW9yAAYEleuH92ljJ5Z5jH/zK3HOUQ46kBYLynYL+vWzd9jLtYekwxMYAEclLP1QgOUxQ558jXqzhywg4eheCuU1pkrirArdVFkb5s+i0axW7jjqHrkgLcMjVoGbgyvdGjGMsJbS0hIf4EEIANR0fEPeq3bMloOLB0uToVSYlUqFOeWDNBoBcHT35Q0Hgs02CtDSqvKLj8jFP0zWJiqVb1Xy1RTnpc5zqHeINmNeGf0NLTr+YYWiHFjF68Bqg6J0dlAqU60YkRx9gqS9oq7FaGUOvGYJOGpZh3lybT0vX76cVWcutHjxYnbzr9mkAR6ryrPUfOG3sZ1YD+nr6y7MszIPVmMeS2HUBXUfHG3MmS2WP4SHB4gkCSZtCaAOVCpgS+m1EbdxeNnkiAubumMGe1fG1UaxNS4DHqqQeJWkb14QNouAl/DBg9FWcaDShLSIXZTgAWzcKADlga4oB9oBeEHDUagmgB13YE9UKvOalIE82OouONhHGKi1b6EHb3/2cpeX6L7tU+l8nqbNqWl9/+t8kAbB1DIuXNm3hs0NQlt2Yo/TfJHglGSr+ofNCUJbdabkM0etrtOs37Ijpx/jlXKXVLZav9/ecDQ90HIqjd0ygXJ5pzRLUBvj21VjlJY6cD3HYSNlX2df6QJck1PK1vJcb30KCQkRBpmdnc2bBky83pp/Tbe3iXdjcrBzkDZGZ8VQYYm2nOSabvSftHHNfZpRYu55yirM+pNS4PrsdpBrIDnZO1FCbqLFDgQFBfHa2yVsL7+y8c3GKC2S988TiQ9p5MiRvDh8F685M7Ul/XmoYOupjQI2CtyoFICGCeYES+aUqvbZxiirSikbno0CNgrYKGCjwJ+SAg7e3t5/N+85x7F9IIf3RyxzljFHsD1XiQJfzY2jcQMyqX5AEe065maSJyK4kBb/NbHSNEt5Vb7qpqHyytpj0rgreKisDtX2yuhR3X6pMi3lu1yfVd66aM+K7d5XQEVbVhsFbBS4lihQ7kZ1LbXqOm3LY3eWOylhED502oVe/zyQerfNJfO0ZyenSHplaSqvIgfKVPlUmiq3sjTkN2+PKvNK76p+S3WYp6m2/6/6fDXbc6V0teW3UcBGgWuHAjaJshbfxcy7Uql+YBElpDrSc5NS6YUPgykhxYlOxjvTpFsyTNLOpznSvGWBdDzWxWqaynsXS6WqTJVPpalyx/TNJmtpKq+xPRe4/tqA66nPilaKHopetfEOdrLGAO9clVlSygvmbGCjgI0CNwQFbDbKG+I12jpho4CNAjYK2ChQVxSwqV7rirK2cm0UsFHARgEbBW4ICtgY5Q3xGm2dsFHARgEbBWwUqCsK1I6hqq5adw2XO63lFOpfT9v26Zuza2ll9Opaba2TfyjxzsVSZml+DmFrvBsJ7J3dyN7FnYp4pyZr4OgVwPvi5ljc1chanhstHlvLOTho81nsJGRtd5nrtd/u7i58CLZLpf3C8WnYHg97/gJa+DSnFzo9J+H0gnR67Ffr+5oKku3nf0aB6bxrjrezN7156O1qt6G1Xyua1X4mzdw5iy5eSq92/trM8KdilHb2jnIMV078McK5l1cCoe6h5OXsRe8fXcgnpJ+5kqIs5g0e+zzZOWiMsuBCDCWtmmcRr6aRzsENyK//ZKvZseVe8pr5VtMrJPDWZsG3z+I2O1HK+gVUzAdtVwZ+A+4lt4btKW6htueuOS4Yab3J/6SsvRsoY9ca8+Rr4hl7vPr5echG78YG4XDgRo2w49FGk71Fsa9pnz6t5TBitam3MZ+l8P33D9JPS8GG7gsWfGcJrcZxaCfaaw2wPeDChd9bS64Qjy3uZswYLsx92bIf5ZDrCkiGCBwIjS3vXnnlK0OsaRAHMWOrPOxZCzifd54+j/pC9vhsYOWwXtMSrv8nbD+Isz2x0T8AJ6x8++3vvEF9+ZmhiB84sINMKNTB5YirLrRv30j29d2wwfIm41UtL5B3zbmz0e0WmaQzbz855ZnxFNkkjAouFdLOrXtp44rtJkUfTz9BPsxkJzYZT/89+oFJ2tV++FOpXh349O8GI57h00tuqRU65/HeghvjNlNU5ulaKc9YSMKHT1L84seppLCO9knkvXHB1NSFI71w2ol6tuO9HqsDrnxsGDZtRzkeLXtdPisPqJXB9eA0OnBge2Yy3St0A5uN44SSdu0amKThpBPE44zFqsK8eStp3rwV+hFkVc1XVTwwNgeekKkL7cMm9+pZSbNVLa9VqwjZ7xXl9OxZfkyXtfyov7qQUZAp/3cx2Werm/W6xMeE7N13HyQcMQeNAk7qwfFjY8f2qdCfp566Td9QvkJiFSOmTh0sG8pXEd0q2j3NJspG5T8k/FgB59m3HqVWHZtRJp/6AqY5/O6BNGLCIBO8Ej4IA5q6EZHDydvJyyTtaj9UbzS8gtY5efiTS0AES3K8KbMFac7ZO5g3RQ+h3At8DBUfh2UESBdySDEPQG71mvHG6dFUUlRgRCkL25FHaAveqqjEbHN1O7J3duXLXfDsnRDWNgAo5XLUrvYWCqxeFKtK7Zn5lBQxczNscg5JlkceKjUwPRyb5eRXT/pamJrA+CUmdZWW8GbSiOI+WwIpkxMErwwBTE5OVDHL44jN2b0DqCD5nN4GnEZy/v/+rhcd/tD7VJgSa1Vy1coIpEIuw+QQ7bIS3Jk5yjZR/O7cmnWhzL0VJR973hgfKuWCpBi9XpMAD5rO/I2g/OL8ut1z08nJQY7zwpmJ8fGp0naTtvADNvjGmYZnz17gTb7L92nFOYrYFgsXoPx8y1LB2737FHXt2oxatoygPXuiBAc/OIIMm4UrFSLicOwVjsDKy7skG3ebn1Cizk80fE7IpoM6VUPhIQF9Ky4u1U8HUciW+oNN0o0HbL/44niWAnOsSq5aGV5ytBn6Yg6dOzcRWkISbd48TI7RMsfx8HCV8zFxpJY1QD1eXu4UE2Mdx1reqxUPJo8zV/FtqO3R8E24uDjKCTrGdgC3S5em8k6OHDlnomlQeDh6LiIiUDalN242j1NfkP9f/1rFJ7HsU+j8fYXrYdAUOLgwucEhBQBsSm88MQVHqjVrFibf4NGjsSbfiJubsz5BQl5VBvpmbA/ScCABTn+BZBsVVXGfVVc+1WNY+BBaEb2Kikp5LDNA41YNKCDYj04cOk3v/+NTCgjxoxffe4r6j+hF33251YBJtPbsd3Rvs8k0qsFIWhZVfpqNEcndXRvXcTqIeg/G9NoI1zmjdOWBr8m4f5CTV6DeXqg+cfwWAAy02cQ3yNm3np6eemgjxW78j/7c/onlwkDdghrxid3McPiQ5qRdKyjxp890nIihj4mkiHQBfrnHP3mEz5s8R+71mlLze8p15MHdbidcgPiti/iYrbUSvtIft8i2FDB8Bl388Qs+2uonvbig258m58BIilv0qDDQEFarOgVF6Ol4uek/LqOcY7/ocZcLhNz9Ip88wqdnfPa8jho2/V2u92euf5nEOTIjDhr9FJ9g4q3jZO79no/8qnp/Hdx9KGjMM3yKieH98bFdF3/8XC8TAdcGbakoLZEK+fxL92bdyM7JRWfKSPftN4FwviYA/S3JM2WEaGvwnbPJnvMBcOJKXQAGkYceulUkO1W++fFYoaH+NGnSABkEFc7+/adp3TrtDMLp04eZ5J816w5BU+Vg1o8TOnByhQKUibqjopJVlMz8IXkpAF1wzNivvx5TUZe94zgqlDt//modd/bscXI26Ndfa9/g5fqjZ6wkADvhX/4ymDAgK4D6WNWh4jDQ45BnnNWJE0AUI1HpY8f2JkidAPQXR60ZAQMw6Iv6AKApDse+FqF//7Y0Z87d9NZbq/UJAY4Iw8HYgwe/oDf55Zcny3FgYGIA9PvxxxfS8eNx8owJxbx5U5gxldP2++/3cLnfSDomU4ATJzR8eeAflR/Pq1fPESaJMNSzeAbg8OuHH14g4aVLZ8qkTB74B+1YsmQzffXVDolauPBRk3RVhvEYNCA+++xYuuWWjpIHP5hsPvnkIp48JelxDTwjJXwi/aQepwJ9hmpamB++1ca7vzwzQZIgWYY1rEfxMecVqmxSn8kb1bf2banHGQOBgYH00UcfSRQ2P1+zpm7MNHXKKHH0VdMJb5CjqyelHd4iBze7+kdQQIdhel8jR8wUJpl2ZBulH9tBoQOnUUD7oZQVvY/ST5YzDveQppRyYD1l8mHQEcOfoJCedzOzXEXF7OzhFtJEyxOzn+K2LGBm6ih14FxKQB5LoMc/fpgcXDyFKYMRJ+/VCFqQXv5S9EbVMJB39hBLvsXk2bqvzighvToHN6T8mD/wZUrJhZlJlH3kR7oUf5IZENu5bp7E12TKi+HDiM0YSA2bwgeo2VMwMzhIzhm/r6GCxNPkc9Md5N1lOBUknKT8uONVKtpv0P3CJHNP/C6HUPv2GkcerXtTfuwRyjuzX8pwCggTBpcdfYCl1rPCKN2bdtUZv0tYC2GSRRnJlP7zV0yffuTaqL2JtBw4dIYcOQabJOjj13d8ldpXXaQhQzoLk9u16xRvBH+Cz6rzkgOkVTkYlO+5Z6Ccf4iDoqHmuuWWTtSpUxM5ogqzcNje3N2d5XxNSD6ffLJFshtn7jgUGowCgxwkSMy+Afv2RckdPziwGAz45MkEPgrKl4YN60w4RxNnLRqlTj1DDQJV6U9VioUtEUwS0sMff8RwOztSixZhBAly3z7N9ABbIyTcqKgElo5Tpf+dOzfVGT8kIDBJDKybN+8XqRuM1ShFw14KJhkbm8LS+ClmOJ1MGEhV2no5nF69etHs2bOtoq1bt44WLVpkNb2yBMUMFQ7sfTfd1FIY1ptvrhL63HlnL/1oOEigb745VSYUq1f/JrTERGH48K6ijcD5qmvW7JTvZ8GCh4Vu3367S444U3XgDmYI2s+fP02+nblzv5Bko/MXDi9fv34P7dx5QmzomGTh4Ott2w7w+aOZTJNP+Xt1o6efvp2g7gUzB+C4MwXjx/cTJon3s2SJdq4oJj9g9OPHz1No1MiroYRx1qc5+LKWBhB9/Bx1v7mjMMe46EQKb1SfgkMDTRgl8OJz4qlhFWzRSsODPLUNdWqj9G7anRxZxZh+4mc69/2/RboD8zu9/EW9H16RHaiQPTrPrX+LMqP30JkVf5O0wC6jdBwECtk5JG7zAsFJPaA5F0BaBTi6aYTPPR9Fly4mUn5qLMVvW8xhVmkygGFCsryUFivPqA/PuCyrcAWt+j/MCPNjDoq0qFS77q16STlZh7bq5aVt+lCYCFS0xbnplHtyl6Q5B2r90RGvIODWsAPZu3pQbvR+ymMGBlVm+i9fS4me7QdWuWQwueKcDErb9gnlnzsih04js2e78jI8Wtwk5eWe2iU4mKm6N++p1+HZ9mYJp25cqJWx4X2ZUCgEO7YdO/qFsFr3rDju5B7/jbL2bVLJtXr38NAk1lOn4lnFmC0DjvFg5w4dGhNUq+fOJQlDwKCOQ6gBPXpos9qLbFeBuragQFPHIozLOCgdOBAteRSDBNOE7dKopvrssx/ol1+OiWoMTPPkyXjJA4ZTW1CV/lSlLpz/CVXrl1/+KIx82bIfJFu3buV2SKibAWCcR46cFYmlXbuGEoefHj1aSBiHQGMygAmGOjxaITVrFipxSAPO8uU/q6Rau0dFRbHEtdrqtW3btlqry99f0xjg7E6oufGOcbg3ngGYHEHliTNAt2w5IKpM5bAFBgTA4eU4JBwqdUwkPvjgEabdUyaqV3xXkDBBT0zYEMZl/CZnzfpIDjGH9zSYJg6+BrRp00DuOHwbeZAOUGXgIGwFmDDh//vtt78R5rp9+x+ivYDNFJNGBZFlEiWOLjMHD1apA0qKS2jc9NEUdyaR9v96WOL8ArWjC+Wh7Cc+J4HgGGQJLl1CXy7IlZio0dQS3pXG1alE6RbcRNqXdlT7pzJvrKMHE4XVEbkJ2gtDOuyXYF6wWRohJ+6o/piXfEbCkBABWTEHqIglsZCe4yio8yjKPX+SEnZ8SrmJJyT9av5kHdpGbk06k3ur3pR9cAtLX/xhsW3yUnx5W7w6DiafHmN4+YfpPAWMrbZAqXbdm3QhXEZwNKOtMc0YtmeVLWbIsGcqwHKO0qIicvDyV1HSX9h6S5ihwkZbnJ5ELvUai1QL2ysOn8Y/V2GqxgiQsYgleSd2HgI4landIfUqyOf37d19pHqstTsYU4sW4axavVnUfgkJKfTdd3uEaaKSsDCtXw0bhtDUqUNM6lUqMJNIKw/HjvEkrKSnSF0//3yUpSRPSkpKN8GGVNazZ4sKqkWjCs4kQw0eaqM/6De+g6SkDL0FGICLeaAztrVJk3oSl56ew4O6I2Vl5cvgCakWUiPKwXcAaUQB1LRGuoIZGA/0hmSOPLUJSUlJ9PHHH9dmkVbL+vHHw+KtOmxYF9EWoO+LFm2gvXs1zYKyM8Ij+r//fcikHNi0Fbz++nLx+h08uKNoMiIjg9hm+RcaNeplhXLZ+wMPDCUwOnOp16j+v1whXl5ukv+tt6ZVQIWGQTHm9IKLku7NKwPy8/JNcOHlCvjLrAnkwGPgwlc/oz7DNHVsXq6pfwrw4PmaV2xaBuIBWVlZ9MADD2gPdfhbp4ySZTlpOlSwFkF9/2YMQ3DN/jlMHEhUPr3QUjqyYDKrW4fL8g/PiHbUfPJ8ivpqDmWfO6hjXY1AwfnTvPYvjzxb9aHcEzuFGUBCUgBVK1SgsMGl/7ZKVKKw6fn2vZtRqmOLMSUCVLwmUEa/5LX/FgccY5pSSRvjLIbVO+BBsiJo9cMpycHTT5JDp71tggZPWKhoeaTT4lGOChv7qscZslv7ZgwoNQkmJqaxemoV9e/fnmfkYayCqsdqqxH0xhsrRB2mmgJJ5ty58pk06oJjRFUBjAGODkFBvtS0aX1hhnDiUAAJrVevlsIUYJeEhNG1a1Pq169thYFM5anKvdyxSMOurf6gNPMBFnGKiYHZYT0kQNls5YF/WrWK1CVMxKEclc+8TNVelbcu7q1bt2bmNdNq0StXrmSbo6a1sorECZgoAIx9qEj/Urrjjlf4UPT+vDSojag8X3/9fnr55S9FUlRqZ6hKodI2gtGBDPHZ2XksBf8m10svTaC+fdtQ27YNRPI25rMUbtKkPt11V1+2HWexTW8TweFs1KjuYmawhF9ZHKTRRx5ZUAElIyNXj1NL5iI8wikpz/T/CJ6ugFadmrHzzhbKysgmv0BtUpByXmOwekEciPCMoNhsTRtojL+aYSscrHaakHdBkxD8Wg+wWGARqx0xcLrXb6Gnu/jyoOLoTAVZpsTVEawE4OCTsn8dRX05m44tmSFYAR2GmmCXlNksndgLtC4hL2qPqBK9u9wq1RjVrm6NO0lc+s9fs5qWbZJsY3Vt1MFqc2CzVIzIiFRaWMBOOtrHhXhXXpNoBHinApxYnQsvYuMlHsRGZCth1I0BDcs+FDh6B7Et0ZGKs7QP2qNFT0nKOrCZUjctlgvOTAD3VjfJvSgjSQYTp4BwecaPo2+IHlaOO871m+pxrhGt9LAx0K5dO1Y7fSJXSEh5GUacy4UxAG3cuJe9PdeK+gkSD2b0gPh4TdrBQn+ooIwXPDmNUFRUIgxQeZ4a0xA+diyO7Ub2MkDiWdnyEFYq2U2b9tOhQ9HiVQinDmsAtadSGxtx4OxiHJxVuQqnOv1ReczvsJfiOzBKOAjDiUjZr5QKFipEOKLg+uGHQ1JU584abTGQgqnALqnAy8t0ggcaK29L4EByMjIila8u74WFmsRzuTqU5Gt8b1AdmwPe0dKl29hJ6T+6Yw2YFADqTQAkS9DHeCmbN1Sz5pCXVyBR5mp6MF41YTHmga0X8MEH69lzdr9oUG66yfL/GN4BaA4ThDlAAwB1MrQFxrYibISYrLPyGMlMzhyijsRIVEZaJm1etUPCTds0km/sXJRGD5XHjifUQax2VYxXxRvvcObBmDB8+HBjdK2GK1KiFovPYMcbMEPf5r2o4ahnxZnHxS+MvVMH6XbKzJh95N2oCzUc/SzbMn+h0H73SwuS93xT5Zb4tuhDPlwHbJeoL6grqzUZchNPmpQBZgFpyq9lP1bPwp6ZwHbKs5LHBPEKH6B+9WjTlzzbDxDnHKPKMe/0XvLpOYa8Og8X5uXRsje5hre0WiMcZrw6DyXf3uPoUmIUL+GIo6LMZPEuhXrVt8/dstzCt9dYkzLgWFSSl02+PW9n1WYI5Rz5iew9vNmppj/lchsg7VYFLsUeI9fI1uQ/ZBrlnd7HKuPbJVv2oS1yd2+m/cNn7vqWaVs+wPhwva7sBQxQ6uiAYQ9SBkvRHixty2YKZctY8F6wRMYpKFL6WZSZQlBPWwJ/f3/+R9UmOj4+PmKbsIRnLW706B7yD3noUIwM9Er1BRsj4ODBGBoypIt4LmJpyO+/nxDVINZAwpFn585yMwE8O7G2bcKEfuyUc0aYKuxQCuC407dva15QHyAOLMblFGCasNlBKsCAiKUDajG5ym+8nz59npl5I5ZOesmSCajwkpMzREKA6gzxUFP279/OmK1a/THJaPaAtZ/wnr3nngFCB3h8AkAfQKtW2iQIDNI4oYAUpQbz3347JvSC7Q0qSThIwQFDSVUo5/jxWJlEQO198OCZCv0BzpXC0aNH2Yll2pUWo9ubBwxoL846cNoxZ1IjR3ZnLUEbcciBwwxU/gC14QTs3/DChrQXHh5Eq1b9KhOSMWN6Co1gz4WXKZyg1q79nTUP5+W7gdMXvhtlP5dC+QdaDND78cdHi6MYNCiwX+K9wIlo4sSb5VvE/wE0HZYANklMuF555V7Ot1eczpSqGPb8Bx8cRp9//jRvdvCL9ANaEHy/U6e+oxeXeimNorP4fyl8MK2OWavHI7Bj/U4aNWkwefl4Uo+BnSmicSj5s+YFTPKS2ZKjniE9yMHOgTbFa+ONSUFlD/B8BURGRpbF1P6tThkli4uyDKTxnS+zSrSvXOhCdix7gJbBufVvs2fs6+TbgtP5AqTsW0cZp8wGcrN1hsCTNYNagPw4LxigPDIzzDyzhywx29jN71H4wBkUMeQRwY3fupCXh3wr4dr6gf2tODudJUFfyjFjSGACUMW6sSQWfMdfZdDOPbVbPEXN11KiPVls53T0DSaPdgOY8Q7k9Yna8o4MZkxOQQ3YqeZmaTaYGGyjOrAEkLT6DQoc8ZjYSWErBcC+CI/bqgKceIJve1rsnMrWmX14OzsIHRQbqyN7vBZdvGDCJFH2pbhj0h5ZN8nq6OyDW8mzwyAKGPKA9Lk4+6KJRJy64QMKHjtb+oj8mBBg8wKsiTWCUYpMTq6e1gHlwHbWunWELkFito+1jgkJaVINJKdPP90iAwpsLrgAULNBXWUEOFhg7Rs8BGHTRFlw1FAASQwzf0gEynlDpcGWA9d9DFZQy6FeMFnl9KPw1H379kPsreshbW/TJlIGQSxXwbq6oKAB7JARKVdMTJIwI5WvOv1ReSzdoYqeMmWw9BN9BWDicODAGWF28FSFtGFkksDBBASTCUjoGLAxQWnfviHdemtX7dtnqd0oEWNAx0APpowLSxNAe/TjWgOoQr/5hgd9lg6ffPI2ef9gMvgmFKDd0FZgUgBAXyBFLlmiOash/amnFvN3cz/17t1KLuDhW0LZAOBjUnX//bfIM36Q/u67ayvQBcuEoJZFm3Cp5SFYuoFJTffuzbmu+yQfmJ+2ttOUtthRCg4+YJZou3F5CBg33svIkd14ByZNY4b2GJeG4Bmw5MQn9M+uf6cm3o1NJMJiXhnw4Rtf0LS/TqQJD2lCDaTLBf9YqmU0/E5scjedyoiioxePGWLLg0FB5bSOi4srT6jl0FU7ZsuBF5u7+IVSITuDFOZog5KxL47uvrzhQLDZRgFGjMrDsIO6+IfJEgOl8q08x5WlvtR5DvUO0VSLK6O/oUXHP6xWgVjCIp6e7KXLU+pq5TUiYyOA4kKWlNkuag3gVerEmzlAlVrZ3qrW8iMetkjsvQrp2Cg5VpbHPA1rK7HJQgFvbGCtz1hPWVrA3sBWtsB78803eSF7c7bn/MFr2OaYV1GlZ6iUIL1hRg57izWAdBDCi6GzsnJ1JwVruDWNh9q2fn0/ZihpTJKafwfwOFRqYmttqY3+wBYJSTsujrUaZqpoa/Wax2NtJTZZOHs22WqfwXixHEVJ+sYyOgZ0oHndX5EoOHmM2WSqTTHiXo0wJl/YClB5LZvXCakZEyJMCKBmtwY+Ph68CUY90RJYYjxgwMHBPvItwn5ek8kDvn1sOIA1mWC2NQWoZtEnNzcXmQSab0igyl3SbyGd4S0+XzkwT0WZ3Bs2jyAwyYspGSbxeMBazEV9F9Bfdz1PB1MPVUhHxPjx43miOZG//VwJW0Sqhcirxihroa3XVBHBbkHk6+wrbUpjNUNKvqa6u6YaeQM2Zvny5Ww7cRbVWU0kyhuQJH+6Lrk4uMggio4XlhSKiu9PR4TrpMP+Lv68KboXKZtldZrt6eRB9dzqVbpFqJo4v//++6wm/r46xVcL18Hb2/vv5jk4jo30OawmqPmMw7zMG+05h/d5hR4eV26RZWnuq7lxNG5AJtUPKKJdx9xMSBARXEiL/5pYaZqlvCpfddNQ+bXUnsr6gbaqdHPaubi48HqzLexFeQRoVwTXEj3QkWupPYr+lr4ztFWlm78fYxryrthevrbOPM08ryrTUp0qDeUVlxbr/3s4PcQG1y4F8orzKL2gorRYlRYX8CQo7ZLmNGgNf/Nm7Cz0FauYTc0i1vBrGm9jlDWlnIV8j92ZpjNE/GPXYwb58Xo/mjAog+oHljNLpD07OYVOxztT1xb5VtNU3hU/aoONMZ9KU+VWloamXmvtefXBJOm/eT9UW0Gf/6wIENqp/iPt0KFDvFuOdfUVcKyB7f2Uf4eX+16q837UNwi6m5cLpqcmieZpxv+LytJQrmrPTwc98GgDGwV0CtREBa1nrmLAxiirSKiqoM28K1WYXkKqIz03KZVe+DCYElKc6CQzxEm3aIOUSjuf5kjzlgXS8VgXq2kq71082JjnU2mq3DF9s0mVaZ6m8l6t9uxk6Rn9r6w9TcMKpP/W2oq8X2/zEdpd4HBtgO39aN9hbb8f9Q2q78z43s1pbkxT/xfVaU/J9XCsTG18rLYyrikK2GyUtfg62ja6RC/eX+6JefffwvXSzdMm/yOMCovsJL2yNCBAJafAmA9xxryVpQH3WmrP5dpqno72XykYaYWyriV6XGvtMae/Oe2M6TVNQ5+NeY1lXi4N6TawUeBqUcDGKK8WpW312Chgo4CNAjYKXJcUsL8uW21rtI0CNgrYKGCjgI0CV4kCNkZ5lQhtq8ZGARsFbBSwUeD6pMD/A6RDAvIONlxnAAAAAElFTkSuQmCC;" parent="1" vertex="1">
                    <mxGeometry x="630" y="220" width="458" height="50" as="geometry"/>
                </mxCell>
                <mxCell id="13" value="" style="shape=image;verticalLabelPosition=bottom;labelBackgroundColor=default;verticalAlign=top;aspect=fixed;imageAspect=0;image=data:image/png,iVBORw0KGgoAAAANSUhEUgAAAckAAABmCAYAAACgAmr+AAABXWlDQ1BJQ0MgUHJvZmlsZQAAKJF1kMErwwEUxz9jUlo4SNLKDovLaH6bcmQjqR3WbIXbb7/NqJlfv/0kNwfuKy5uwoGTGw47KH8AJQ4Sbv4A2YX1834btpH3en0/fXvv9XrQ5FJ1PesElnOmEZsKeWbn5j2tLzhppp0+FFXL6+PRaERa+NbGKN3hsPVm0N4VPzz3LjwFe8duBy7dxZPjv/0N0ZZK5zXRDylF0w0THH7h6Jqp27wh3GXIUcI7NmeqfGRzssrFSk88Fha+Fu7UFtWU8LOwL1nnZ+p4Obuqfd1gX+9K5xIzot1SbiaYJCLpIYHCCMOMisc/M8HKTJgVdNYxWCLDIqZMj4ujkyUtPE0OjSF8wgp+qYD9698/rHkr+zD6Bs2FmpfchbMt6Lmved496NiE0ytdNdSfzzpKzvxCQKmyKwQtj5b12g+t21AuWNb7vmWVD2T/A1zkPgHj1GQQDnfuJwAAAGJlWElmTU0AKgAAAAgAAgESAAMAAAABAAEAAIdpAAQAAAABAAAAJgAAAAAAA5KGAAcAAAASAAAAUKACAAQAAAABAAAByaADAAQAAAABAAAAZgAAAABBU0NJSQAAAFNjcmVlbnNob3SDpeewAAACPWlUWHRYTUw6Y29tLmFkb2JlLnhtcAAAAAAAPHg6eG1wbWV0YSB4bWxuczp4PSJhZG9iZTpuczptZXRhLyIgeDp4bXB0az0iWE1QIENvcmUgNi4wLjAiPgogICA8cmRmOlJERiB4bWxuczpyZGY9Imh0dHA6Ly93d3cudzMub3JnLzE5OTkvMDIvMjItcmRmLXN5bnRheC1ucyMiPgogICAgICA8cmRmOkRlc2NyaXB0aW9uIHJkZjphYm91dD0iIgogICAgICAgICAgICB4bWxuczpleGlmPSJodHRwOi8vbnMuYWRvYmUuY29tL2V4aWYvMS4wLyIKICAgICAgICAgICAgeG1sbnM6dGlmZj0iaHR0cDovL25zLmFkb2JlLmNvbS90aWZmLzEuMC8iPgogICAgICAgICA8ZXhpZjpQaXhlbFlEaW1lbnNpb24+MTAyPC9leGlmOlBpeGVsWURpbWVuc2lvbj4KICAgICAgICAgPGV4aWY6VXNlckNvbW1lbnQ+U2NyZWVuc2hvdDwvZXhpZjpVc2VyQ29tbWVudD4KICAgICAgICAgPGV4aWY6UGl4ZWxYRGltZW5zaW9uPjQ1NzwvZXhpZjpQaXhlbFhEaW1lbnNpb24+CiAgICAgICAgIDx0aWZmOk9yaWVudGF0aW9uPjE8L3RpZmY6T3JpZW50YXRpb24+CiAgICAgIDwvcmRmOkRlc2NyaXB0aW9uPgogICA8L3JkZjpSREY+CjwveDp4bXBtZXRhPgps9bc/AABAAElEQVR4Ae1dB3hWRdY+6YEASQgJBBISOkivgiAgSBNBWAQRXMHOqvwqu5YVC7quuoptVRRRQRFZKSKKAiqoqKA0kd5DDyGFkN7zzzsf52Zyc7+WRkLmPM/33blTzsy8U86cM3Pv9YiIiCgkEwk/OnfuHOXk5JhC9K1GQCOgEdAIaARqDgKeNaequqYaAY2ARkAjoBFwDwEtJN3DS8fWCGgENAIagRqEgBaSNaixdVU1AhoBjYBGwD0EtJB0Dy8dWyOgEdAIaARqEAJaSNagxtZV1QhoBDQCGgH3ENBC0j28dGyNgEZAI6ARqEEIaCFZgxpbV1UjoBHQCGgE3ENAC0n38NKxNQIaAY2ARqAGIaCFZA1qbF1VjYBGQCOgEXAPAS0k3cNLx9YIaAQ0AhqBGoSAFpI1qLF1VTUCGgGNgEbAPQS0kHQPLx1bI6AR0AhoBGoQAlpI1qDG1lXVCGgENAIaAfcQ0ELSPbx0bI2ARkAjoBGoQQhoIVmDGltXVSOgEdAIaATcQ8Dbveg6NiNwZ9vbaECj/vL2i+Nf0vKYFRxU46/e3l4UHFyHkpJSKT+/oBgeXl6eFBDgT2lpmVRQUOJTpsXiVtUbrl9ychrl5ubbLebCgfONsL///iidyzxn3GuH6wg0bBhMhYWF4hu3ya4nquSYHuRBs3u/SOtP/0hfn1xd4bkHBtamoKA6dPz45d+nCiN6Uv51L1FhYCR57l5OXqsfrXB81QxqlCbp4elNwVcMJN/AhioGpXI3rt2Y6vrWpU8Of0p/Ju50m4dPcDgF9h5Lnn4BbqflBB5e3pKHT4NI9qoS1549W9G0aSOoadPQEuUZMKADPfDAaAoLCyoRVlkeENRXXtmGGjSoV6osW7duIuvXvn2Uw/QfH/qEdiT+SWG1QsnX09dh3OoeOHBgR1q48O/y9/HHM2jWrMnUrVuLcqnWvHnTafbs28uFV0UxGRjenzoEt6ctCdsqKotifIEvcKkJlD/wMSqsG05e3z5Bnr/NqfQq1ygh6eVXi6JG/oPqd7i2XIDOzMugtae+o8MpR9zmV6fjNdTkrv+Sb8NmbqflBJ616koeQX0nsFeVuHp4eNgtR1JSGqWnZ1FGRrbdOBUdUKuWHw0d2pV69WpdoVl9d3odbYnfWqF5VBXmWBA1ahRMder4EzTtq65qS//5z230ySd/rypFrNBy3N5mKm1L+KPSrAUOhliF1vNSMC9s0o08D31Lnn/+jzzOH6/0IlSakPQJqE91mna2q8X51gujOpEdydO3VgkQ4AetycPDk2qHtyFPb3urcg8KaNxWxGltiuMh+Xr61pa8PX38L94Lvp5eJfIrDw8PHz8KaNeX/CLakii4wRL18PSvQx6+/ray1Koj7+FnJt+wKAq44moqoSkKfojv6W/TQj39ahs8oC2bySckgmq36V0mrdXM03zv4+NFrVo1FpNkyfbjuJ6enrRz5zF6/fUvKSUlg72LXcGnbdsIiohoIGArwg2R/P195QTs7+9DbdpEEISdFYWGBtIVV0SW0BTBDzyQHuTj433x3pdQNjNB44yObkgtWoSTr29JXBHfz89HhpvTVqV7lBGCS6VatXxL4Ivwli3DqXfvttJcrsZnN3hhcYF4VjR//vc0adLLNHLkM3ThQgbBVGpejKAdrriiqdQ0zeVinlFRYTLc3AcQ7k590B+vuqoddegQZVlfZ/WpXdtP9DPbfIO6gBf8VOoa0kVaC5YeXa56G27UEeVAXfCDpQV9ykyRkaGSP7YjrAhbGGgblNlMyIPLyWHo31b9Fv5dujSX5TCnQVpn7eNqfbgcZb5iTktPKDOb0jKwHvml5WaRzj8kklqM/xf51G1ghKaf3keHPn1Y3kN4tpr0EvkGNTLCE3eupZNr3zTuOz2wlDLiDlOt0GZSqBUW5NO5zcso9ueFRpzIYdOlhmgIPbGHsX/BfZSVcIJqN2pJrf/6mhE3rOdYwg90et17FL/9SyOsrA4IwWZPrCL/pu0NVgVZabT/vnbyPvSGGdRgZJGZJPqRpUa8g//oSXnnzxI0xNavbiu2YCjITKVjL99EWcd3Ua2ojtTsya+NdCHD7ib8QGcXP01J338o3X7hLSnq4SXkHVhk9kxY9SadW/GSDC+vPwz6YcO6GZMQNEUzDR7cRWoX7D9v3lo6e/Y83xIE0t/+dl2xyTkvL59eeKEIn4cf/ovUQNVJauvWQ7R6tc3EBf8HH7xB8mLG2DNcvPgnuXcTHR1Gt9xyDQdRp07R8gePn3/eQz/+uMsIGz36ShnGkzT2xJYt+5X27z9lxEG9R43qJe+Rz5o1W2nHjhgjvKo4Vq16mjZvPkgzZ34siwQt+uGHx0ls16//U/qNHduH7rxzWLFJFbh9+OF3RjUeffRGuvbaLsZ9WlqWwPs9y32x3Nw8gcURGjCgI0VGNpD5I+HIkT1p+vRRRhthz3r27M/p++93SL5ow/feu18KV3jk5OQZcWUE8edKfSCUXn759mLCHGUaN+55yszMkaxcqc/ixY/I/XP0xcaNQ2Q6uEeMeJqLQ22D2kj3oZTDhp/quOGGK4V5/jrZT4cPLxonK1f+Rm+9tYpgvofWDS2cafXqrfTqq1/wLT311M109dW2OQV9MT29uCXmn/+cQP37t6chQ54w0nwq5ljEnTDhRcMPY2jIkK7GWEX4s88upl9+2SvjOGsfRHJWHyOz8nB4lVwQlAdbd3hUqJCE5tfy5pfIW2g9Sbu/p3NbPif/+pEU0nm4UcamI2dIAZm0Zz0l79tAjQfdSSGdhlFqzHZKPvirEa92w5aUsOMbSjm8mSJHPEANe98kBOXnlJ+dTrUatrClOfYHnfp+jhCk3jKPwvw8mT4zPob2z7+XvPzqSIEMIRy/baUMy0k+a+RRHg4IQAhICKLkX5eSr9Digq6eaLBOXPMuXfjtC6rXcxSFjn6QTr3zN8o+c1CG51/g1VIhZR7ZTonfzqPs0wcooE0fCr/tJWr64Md08KGulHVqHx15cjB51Q6k6H9+Tuc3fEpJ330geeSIRYEkoSFHP/Y5edauS+c+f4kyDm2mhuNnUoPrp1P6gU2UvvdnW7wy/kMrGzq0mzigU0g//PAnhYbWo86dm5XgummTKPORWOrevaXU8jA4VQIPrJQ3bz4kfgeofv26cqWrxoEbk+iRI2dpz57j0mTao0cr+uOPo1LggmVCQgpt2rSfYmOTxATZmAYP7kw33XQ1vfTScjp5MkFO+lg933zzADpw4BT9+us+mUV8/AUjq75928k6QNhj8jh9OlFMQB0MDZQjYl9148Z9csJCPph8ylNIrly50pjMOE++njx5ku677z6+detqpTVPnXqtFEgQpMAQwhAHr5gmTuwv/YDhBx+sJezH3nhjXzm5T5z4H45mXAMDA4Qm2FLeswCEdohFDEztCxZ8TxA2EMyPPDKOtmw5JDTPdHrooTFSQKJ9v/xyM91zzwjRF0paWYyMhMOqPs8991cpINHnFixYJw6JFdC9944UAtemUbtTH7QzhPXXX28R7XuUrr/etjDiMjSvG035hfmUlpvGXpbXESO6U0xMnFxsYeEAHFD22bPvkH1rxYpNtH37Ebr77uFCCPegrVsP04YNu6lfvyukgMRWxdy5qwkLuPbtm0oBaJnRRU8s8NRxhjpjnJ0/n0b/+98G2rv3BP31r4MM648r7aPmZ1UfNbw83AXNB0o2HmeLFrDlwdcdHhUqJOu17EXeQitK3v8znVj9uiwXNDtV+NUVJtjctCQ68c2rtvBlJ+mKuz+gBt1HFYuXm36eTn03R8ZJ3LGaGvWdRNBS08/sF3nYDmBknD1M2edjZZzT6+fJK/4gLJEvygJCfrivCPKuZ9Pa0vf+IrVCaIYZh7caWeVnpBB+eRfLmXPumCEkOVJBZhodny0EqxB0PvXDKfPELsqK+ZNqteguoxTm5co0XnWC5X1e8rkSPOp1GUoIT9nyFaVut522O7t4FjWbuZLqX3t7uQnJrl1biIHuIQf3b7/tl+WB2SgkxIY11wkTwrFjcdS8ue3QFGtoHB4QYDNhHTp0Wg5iDGRMcGbCZPXppz9Kb5yOHTOmtzRRff75RqEhZAstZI0sD4TsqVMJcqLnAzqYlCHw2CQMTQj3ZoJJC/Tuu6uNvVNoVWbCycJ162yaGA6pOJvMzemd3S9fLk7yXZzUzXEPH7bWWszxXLmH+Q0LBywsYA6HQIEQU2n8+H5ywn3ttS8oOztXat0dO0ZL0zjji/gQanfcMdQwSX711WZpduUwXBcu/EEscmzjb9WqzULTuVpqmGhXHKiCdvngg7bxC2vDG2/YrCRI6wrBxAghgvadNu1tIwm0aSZn9cFCQaVHHpkvF2bwUy0OuI+qG0VxLpxcRn+8++43kcSg667rIbGH8OXFxJw5Xwstf4pchEBIjhvXV8aHxofFA7T/NWuelf3cYOSCA3UG3SXOQsAUDmLrAtxoO5Cj9pERLv5Z1UcNL4u7oPsUKug+lQpDWpLnrmXkeXBNWdiVKW2FCslaYS1k4ZL2/mBZSO+AILlflyEEHVPOhTgqyMsh7FGqlH5qr3GbGX9UuqEZglKP7aA8YY5s2Hs8hXYbRRlnD9KZDR9RRuwBGV6Zf0nrPqSgATcLYfQl5acmUpoQlnFLn5MC051yRN43j+p2K9K4OS32Ogtzi5taOEy9+guTLAgaK34q+YZFq7dlcmP/D3TkyBmDDwaPWUgagXYc0Oiwzzh58kAxCefRmTMJYuW+VQpMNYmq3UCggoKCAowoU6YMtjxVi71OR49rGAyEA/uWrhwuOnSoqM4Q6u7WWc3Tyv3xxzbzqFVYefrBDAmtAtrhmjXPyEctoNUsX77RyKZuXdue2quv3mn4saNNmybslO0F7HCQByZ0WBCYmjSpL5333FOyX8MUDoJlQhVQKJeqDclITv7Qj0C7dx+TV6s/Z/VRywB8IJzsUVL2eWpRr7m9YMOfTZqGh3Bg/x2EPcK33/6bdPMfjy1YZ4CBWoaEhAtunxBHnZOT0w0Byfnw1ZX24bi4WtVHDS+TOyWWPM7to8LgaCqM6iPkhFeZ2JUlcYUKSaHDybLB7GpJtmDYS0oGm8xxBblZRXE4neEjOtCcW4SJdQQFte0nDwC1vuUVOvzZTEo7YVvpG1Er2JEde5gO3N+B6g+5nQKvHCt+NwghNZL239vWJeGG4gVfc6sUkNACsb+YdWo/RdzzNtXpNKjYISBHVSkstD2fCI0081jxR1QKxSKkvMjUTJKtWUt0JS9oMa+88rnYw+okJo4m1KxZI2kee+mlZcWEW3HeHsVYwySKyRka68aN+6WWOGnSAGrSJMSu2bIYA+Om0KX40KiY3J3IOZ2j69y5c+1qknv27KHXXivaZ3fEB2Eqbqy1q2mguWHf+LrrustDNdhDg7B5/vklRrS4uGRh4p1j3LMDWgkfRFmy5GdhJv1dmssXLfoHPfHERKHtP2cIOuA0fvwLnNS4mvfYjAA7Dkf14bZQ41ixcVQfNT7MnI7oaEoMdQ3pTN5imyevIM9u1F27jpUI42eFn3nmUzKHZ2XZ+hePMdSH6yZatBgvHu+qJxaG2dlFzykjL2eYuNM+5vKqeZfVjdOshBOt0f0o7+bFVNByMHnuXVlWtqVKbyGdSsXHMlFmnO3RiOArrrEMz8tIFnK0UJ5Y5Qh+QeHyZGpOajx7uXTFYZ6EP1bR4cWP0b4Ppsk0IZ2HFUtbcHGP0qeObUVbLLAcbwrEPikOyBx5chDFLXte7pHW7Woqy0Vt0DuouMaMYgT2ukHgUkCn3/s/aarFwZ/aba4sUUKYXUFWPLKO2wSjf+QVhEM/6s+siU6ePFmY1xbQm28WNwWVyNDCgx/wxv4fE4RSaQiTwtq124R57Uu5rwgzLlbYKmHfkgmnaUFYHYPatYuUk8iiRT9JU21WVo5xAERGuPgHsytIPShxMUheUA7sfdo7ZajGrUh30YRYMpe8PPuTsTk2+LCWgDA2J5vjrVu3g/7+9w/kyVRg1LNnayNKSkqmNCenpmZJTQSCkX9GJMUBjR+mVuA4depgGYL9TEzSISH1jLTMg9sEh2pU863VqVRn9TlwwGZhgDnYHrlbH3t84B+TGiOD8ey0u8QHwaBRMhZ85UUYhDlwAxZMKkbwy8jIkUGdOjWTV7xsANirBPMz/NUxpIa70j5qfEfujh07yjkF80rDhrYtFkfx7YV5HN8kgwrDO9uLUuH+FapJXhCHbCAIg1pfRdGjxBtHxMEdv+Am4hTqYDqy9ElZuZRj26les+4UPfpRSj7wKzXuP1X6x2/9wuXKB7XpR4EiD+xVIr/QHmNk2ozYg8V4FORkyv3J4Lb9hUkW+5dnxN7kcZmmWMQy3OBwDAR2ytav5WMrgb1GS27ZJ4vMxfDIPm0zMTec8KQ4xVpbmmbTD/4mFw0p276m2q17UejYf1D67p/kYRurlw5AeEJQIo+sY7so51yMPOiTl5JAqTu+kzzDxj9Ovo1a0PmfFslTrvWvmSL2KVdR8salRi2joqLEBFhfDCCb6dQIcMHxxx9H5IEOCDMMQgxeq705PEoB81twsG2vEgcXIIRwWAOmLRxGwOSHPTHEYzOUec8Q+004bLBv30kaNKiTLOGvv9qwxUGcsLD2YpLvQQcPnpaHbby9S64DITyx7wbtBycGcWjnzJkk47EUmH6HDOkiT9tinxVl6NOnnTjZelLuvboAS7lEmTbNttgrK7PU1EwKD68vT/bWq1e7xMEqmPNeeGEqwcQKXPHIBo75x8UVvc0FBz1gJsVzj8uX/yoOPdnwxUGsO+54w7KIOMGM07833tiPPvpovTh0skbyxh7jmjXbxX7uDjHxRwtN80px2na+3BOFCQ+nb996629ywTRlyrUleDurD8yjO3fGiNPJzcQhowdEmX+4eEhoqLBOvCNN6aWpT4mCXPTYdO53eXBnSJPB9MGB+faiWfqvXbtd9jPsy0ZEhBL21mFmxV77Tz/tFod8fiFo5zgMhxOuH320Tmj7PeQYURdR+/adEId9usuDUajbzTf3L5Ef1xmYLF36i2xrHObByW4cSnKlfUowteOB+QQ/EOaVuLg4OzGdeIsDUZIu4SnXChWSMLfiUY/m454VZtCr5Q8VTju5y1Zx8X/im9fECdgXKaiNCBc/UML2VXThkBAYKl00HxbzYgDF5Bos0kL4gXBQJ+XoVrIStCe/e4siBk2jyKG2k4Gn180Vj4B8pbItk9tDPNMZMmgKNbjOxh+CLH7lqwQzrEpZJ/ZQ8obFFNhvPEX87R0ZdOjh3pSbJA6uCIGGE7HggR80P5xGxTOT0LxVil34GDWa9CyF3/qC9D776VOUtE4MVBEv5vkx1PShhRQ8YLL8IQJ4Jf3wkcpCCK5geZ+ZmVnM35Ub26m/zUIw9RKm0g4yCZ6BxGSsEvYaoRkyDR/eXTqxav7vf7+Uzyzi2UbWHKFZ4HQfhJdK2O+Kigol3sP6/fcDYgAKi4QgCEtoD+CBHw6A4OAHHnJXJxTEXb9+Jw0c2En8bHu36iMgEIxYbXfv3oKuucYmiGGq2rbN1obMi6/gV5UJjxngVCn2a0HY58NzilgogNCloP0jju2+UC4cnnlmsbzHHybrxo3ri5OdPeXjDBzAr0VjsyFfEQ5hBZwh9GD2hrDCKeMZM8ZIIQBBAMKhLtaa0BfQD7DPiR80S/QFFWtn9QHPJ5/8hF58caq0Ljz++AR4yTxYY3VWH5nA+Cs+5gzviw6cav3y+CoaEz2KPjq00K7JVcWGeaBeDz00Ty5ScKoaPxDK+cUXtjkQB46woIA5HG+rQhqMMewxMuExKIwpWFPwmAesK8BVJbXOt98+RAaBF8zjoJMn4522j4x48c+qPhyuao/x8fHsXbprTjoVRvQQFmax4LWQA6Vj6noqj4iIiBI9QPiJzftz4tizTYV3nZ39mF7i9Wt+wY0pVxxmyU0vPvEhlXftIPGigTDKihen60qxZ4Z9T7/6TchDvGiAzbz2S1P2kKe6zaS+DcWGsqDlMV/Qe/vfN5jiRQF+4tlMCEicXi0t4XSqlzjclBMXU1oWMp1X7XrizT7NKS81gXITTpXgtXTpUvGAsp94zdU8YSIr3YIBR9mxHwiBhVOmpSFoiRBomDBZ8Kl8nnxyonxOERoPTtCePp0gj+arceDG6VXsu1nxMMd1dA8TF8oDbRTC2vweWkdpEbZ2xCojyh0bptGp9JLYGxEqwQHt/OjRs5aYIXu8wCE8PJj+/DPGbhxgghcJ4EUOOH2MRUtpCM8choUFyhPI6iEZ5oUH94ODA4o9l8phfHVWH8TDg/d4DhECw+q0dHnVJ9A3kJYMXkSv7fovrTn1LRfRrSsem2nRohElJqZaPnsKywu2GHbvFtYvIUStCDywQIXAs0dcZ19fH2lxwWLGTM7axxzffD979myBe2uxz7pLnKCdaQ526z5/+AtU0PUWEoKBPDfNIa8NL7uVvqyRK01IlrWgVS093scZ5Bski5WUnUQJWYlVrYgulQcrPgjHtLQ0sdqf5FKaSxWJhSRMRdWBcOLR6+KpvJjUY5RbUHTQpzqUX5fRPQQiAiIopyBbvJrOvoByj2P1jY2Ft6+vr3gO9k5hlSg7HoXhnagwSLw1KfUseZzaUqnAVLC5tVLrUqmZYSBcDoMBJrcVK1aIB/g3Vyp+pc1MNbuVlkdlpTuScrSystL5VAEELrWloApAYBQBL8I4c+ZMuQhIMPWI3Sl/RgaV6PCqV6/eLHN+wk+YUdKFeclapTfH1/fVF4GMjAzxFpEd5daZP3vmFI2/JoXCQ/Jo876iPRMgFBmWS/MeiXUYZpWW04V5bqTzwvSs8uUwq3TIsyLLY5Unl2fZj/WQvSaNQI1EYOfOneLtQmXbJqoqwJU8+ldVSqbLUS0QmD6uaH8ZAmLnET968ZMG1LdDBpnDHr0lQYY7CuO0XHnw5HQcxnwdhSH9pSwPl19fNQIageqNgNYkq3f7XfLSz5iQSOENxBtyEr3pn5MT6Yn3w+hMgjgQcNqXJl97oVjY2SRv+s+iBrT/pJ/dME47QWijzJPTcRjzHXN1GtkL47SVVZ7fhNaM+nN5CgqLTvJe8kbSBdAIaARKjYA+uFNq6HRCINChWTY9ObVoY/6mpyMMYMxht/yrCeXm2YSHozAwgJmUSU0HPzWtozDEvdTlQRk0aQQ0AtUXgQoTkiNGjBCvBtsoHha/UH3R0SXXCGgENAIagRqNgN6TrNHNryuvEdAIaAQ0Ao4Q0ELSETo6TCOgEdAIaARqNAL6Ockq3vxePr4UEBxKqQln5TthS1vcemHiFV8Xkig32/1Xz3GetQNDxCuxCigz5Tx7uXwNb9uVvHx8ZPyM5ERKOnnE5bQ6okZAI6ARuFQIaE2yFMi3GzSGmvUYUIqU7ie56q8P0T2LNlFo87buJ76Yon5kC8mj320PW/KI7NSbOg6/yTJM9Zy2+Hea+MoS1ctl96TXl9PNry6Tv7HPFL3CT2Xg41eL/vKvD+neJdvpwVUH6J5PNlGn6y7NW4CCG0dT97G3k19AXbWI2q0R0AjUMAS0kCxFgw976EUafP+zpUjpfpLk2OOUfj6BslJsL/F2n4N40XRWhuSReOKwZfL+dzxKw2b8xzJM9Uw6dZTOHdmjernsfmN0O8IvL8f6va4QRvcu2UYtel9LOekpFHdwF/nXC6Ie4+50OY/yjNhmwPU06N5ZYnHSrjzZal4aAY1ANUOgWplbYXps0l58JkZcT+/eQjmZtu8IMuYwBzbp0ENM5HvpwtmT7C2v3r62b6upkzQ0l/z8XPHe3DwZx79OoJjEsyhf3Ed17Utn9m4rlgcmcvkBafGSZ08vb0J8UH5uTgkzpm/tOjIsNzNDmijljZt/nt7etOe7ZfLHZWQWvrUC8CVdyslIo0atO0kTqLnOiAse6efj6d1JvcTXUWxffVB5oB74gbg+MKlmp6dyNPHyfS/x86CP771OmHxLvA9fxqsbGk4NW3UUwvw8nd67vYRp2IZ7tl0sBt//LwJmvy1+m37+0CawgXVEx15GOeCAX3i7roT6n9z5m8SeIyDMx7+WWBSIT6Jd/FoAyu7j52+0ozPc0LfQL7xFGpB/3SADl6w0fVKbsdZXjUBNQaDaCMkRD79CHYbcKAWDbBzxiZeVz06jg7+slpM4zIARHXoa7QaBsfD+UXIfDp53L/xVCAwfemtcZyMOTHqHfl1LX8y6S/pNX7GLzp85RkHhTeVkjIl215rPaO2rjxrhUkiKu8BGkYT4oLhDu6UAkTfiDwJj2qe/y9sf3n2Wti63Ni9yfKvrgLsep14TphlBH/1tBJ07XKTF3bngJyEQaovPHeUbkzjCP753pCEgGkS3odvmfWfwQDlQHqYpc9fKuvI91wcC7bWRrdibHvr6IHkJ7EAJxw7Q/LuGGGFw3PXxL8X4iALQhg9epN8/e6dYPEc3bfqPFIuTXENAIi7whyBkgpZ5w9NzjbIgnx/f+zdtWfaejNJmwEgaNfNtWvPqI7Rr9f+k39hn5knt9OUhTeW9M9yGTH+OOo6YyFmSahqed2s/So49YYRph0ZAI3D5I1AtzK1XTryXOgwdT+niwMf6d56hT6bfQDFbfiS/Orb3Y/abMkMKSAi4r/59H53atVkKsZGPWX8M1lGzYi/q0C9raNUL/yfMfmnUacTNVCvQ9vFQCKBPpo+WJsM0cZAGbvw+f+p2uyyhyZSGtiyZS589PJEObPjGltxCgYPmlZ4UL+scH7Ofwlq2py6j/mpkl3TqiOQBoQFi7YojLHvsFll+CD6EcX0+mjaco8jr4ofGST7QZq1eMJ4Sd0oKRQjPVc9Pp8zUZOp/5z/lYqEYIzs3WHhA0085d9pODLE2EjiOfvIdofV60bYVH9KG91+gPKHBD7x7JtVp0Mh+OsHbTI5w2/DBfyQOf65aJJN998bjBi4p8WfMrPS9RkAjcJkjUC00yZ7j75HNMP+uaw3NcNnMKUbTQICCFgohBjPh/h+/ohnfHKamXa4y4rjqyE5LkRoq4kMzhdBpJMyIMVt/MjS5QqG94ZRo7P4dlmzzsrMMc2+yENyloYwLiXRix0aK6na1LbntRTUlWC2ecaPEJDU+lia9/jk1atPJiAOhBh71E+OkH2vBHAGLChLzPky2IHv1YX8IUnyLzkwQ5iCcoL0gBObhTd9Rx2ETpGkcbeGM6jVsIqNkp9o3Z7bsc60UpMe3/0Lr58yS8f2EuRsLKOxb/jj3OWfZFAu3hxtwxy+qaz8ZP+H4Qbu4FGOobzQCGoHLEoFqIST96wYSHhvAIwxW5CfCMdGr+2gwi4U0bSk1EAg1V0k9mHL2kM2c6l8v2NXkMh4ekXjvr33dSlOayKgzY3J6z1bJQu65lYZZGdLANNxz/N3SRK2yqR3cQL21684QB5NAPthntUOhzWwHaLBYYTr48zdSSNaPaMFeLl2rCm4uFVZH0ghoBC4pAiVtUZe0ONaZF4pvHlppMMViW2g4arjZTMiHVNQ4cEMLNEjseVVlwh6emUpr3jXzcfU+rEV7uXcKs+/ql2fQnAndaOPC12RyDyqpdVrxhVZekJ8nnge1L1TZVOzpWdRlPQy3rZ0KLn7aTdWYcZDHTFUBN3OZ9L1GQCNQNREomnGqZvlkqWACxb6gvUkUJyqhQamCL6hxlDwIwlokDqNAI2VqP2QcO92+Qmj71rb//BzKimf98Gvdb4Tb/Cs7AU7n8r6gu3kzjjgQtPvbZfJRk5Z9htplkyPM4VYaJh5PwUnS8LZdLNNizxUUrTyf2uoitvxigiyxFwrCaV8mnLgtDeGUM6heWITd5JMnT6YFCxbQm2++aTeODtAIaASqNwLVQkj+/r85EuXbP1hPvW++X+41jn/xE+o80vagOU6ggqa8u0aeTLzlzS/lCcgTYv+K6bx4wwsEwegn5lD3v9xB/ab+g4PcvqYnnZMCe8j//ZtaX32dPDCjMsEhFAh0/ALFSdnSEPZT8cKC4CbRMnlE+57yPiSqlcvsoOWBR0THK2UanNqV98opYAQkXnz7zbh/f0R4UUJ09/5GHthnRBr8gJ9vrTrGPR6X2Ll6sYzbe9J06T/22Q9K4GEwE46jm3+Qi5lRj78l2w8ncEE4IAPCCwdwqrdV32GyrSa9vkL6H9n0vdwHjuzcm4Y++CL1m/J36iHaESdctyybJ+Pw6d9214yWvMc9t0A+ViID3fw7e+BPmWLAnY9Rl+tvkeVRNVQERkVFUf369Skiwr4gdTNbHV0joBGoYghUiz1JHPGHZojJ6urbi05q/vHlxxLOjQvfkIIAgmX4jJek33nx4DtOqDKtE6diJ0S3Jjwkjt/JPzdRZOc+HGxcC4SWaCbWRtl/zSsP0+in5spDPTjYEyf2LnHylcls2mV/d64TXvpUCiVOwy8vwAnQuZP72E6ZOjEH43EJCEamllcNJfwgWF4eGsXe9NO85+Uhm6YCD2CoPgIC4ceLESTAIZsbX1go0y5/Yiod/X29/DXvdY3NX/A+tu1nIWivFs9KlsTyl49ekW3ZduAoaiuEGYQsHrHBnurKZ+6h6x9/k7DHyXTo1zXSCXPryll3E4Qwlwd+696ZJU74npNx8Bzj9i/my3aBIMXBJWiZeOMQk2wbJ7gh7inxHC4OILXoPZiGPPC8TP7+bQMJ/YopONi2V52Zmcle+qoR0AhcZghUq09lYSWPxxygqZ09uLPYg+RoFxztb9yuG8Uf3SvNflZthQkTb6/BCUZN5YcA2gSmzdgDO4yXM5SWe2DDCKmBJ8QcsGwnvAUHz4jG7vtDyPuSghgabmiztrKPlLYMrqRbunQp+fn50bx58+irr75yJYmOoxHQCFQzBKqFJsmYYkKE1maPcGrx2LYN9oKlP+9fOYykA91GANonn7B1O7EpAR4jwc8exR/dZy9I+mOPFYuoiqSGDRtKAZmWlqYFZEUCrXlrBC4xAtVKSF5irHT2GgEDAZjlV6xYQZs3bzb8tEMjoBG4/BDQQvLya1Ndo0pAID4+nubPn18JOeksNAIagUuJQLU43XopAdJ5awQ0AhoBjUDNRUALyZrb9rrmGgGNgEZAI+AEAS0knQCkgzUCGgGNgEag5iKghWTNbXtdc42ARkAjoBFwgoAWkk4A0sEaAY2ARkAjUHMRqDGnWwPqhxmveENz47VjeLbvciK8sg5f1MBXSKwID/wHNY6m86djSryIwSq+9tMIaAQ0AjUdgRojJPtM/j/qOvpWo70XPTCWzuzdZtyXhwPvCnX0btVtn38gPxjsal74VmLnkZPphHiF3prZjt81i5eq3/7+Otq1+n/EH1k259NtzG3ylW/4/iO+M1meNPa2EdSlTwfy9vaiw3ti6KPXlpLVK/7KM0/NSyOgEdAIVDQCNcbcuu6tp+iN0e3ot8VvVximeB2al7eP/NUJaUiBjSLl10nYz1OEuUPdx94hebS/9i9Ok7nyWSqnnxtzmot1hEn3jaUB1/UR75r1oLSUDOrcuz3NeMH2oWzrFNpXI6AR0AhUDwSqvCbp41eLPL29i31QGdDyx4VzMtMl0viOYuN2XQlmVbwejV96zc2AV9ohbr4DEyvyys/PLfbuUeSTm5VZ7B2hiIeXo6clxRF/eQL5LHnU9lUSuPG1EbxI/fOn7rDUWPEe2nBRXvA/ufO3EubP2oEhoi6h0nRaS3z0GS8mP7zxW7A2CDwiOvaS2KQlnDX8VYcsa5c+4nV+u1XvYm6YYSHAC8T3Kd01QeP7jj2u7kwZaZn09N0vyxevv/TJExTRPJwaNKpPCWetP5RdrAD6RiOgEdAIVFEEqryQHP3kO9T8ykE079Z+lBx7QsII4TB9xS75fs/3p/SnDkNvpOH/mF3sqxkpcafpk+mj7L7o3Ko9Hlx1gGLEp5yWzZwig8F3xMOvyq+J7Fv/hfS77tHXSdXs8K3LRQ+OpcTjh6xYWvq16H0t4Qsd0DAlia9S/Pjev8Unn94z4ne9wWYahgaML2N0EWZXVUjim4k3v7ZcvuwdidIS44y07Oh2w1QafN8zJICRXuliv9KKJr6yRHzHsSvh3bdv3HCFVRS7fu17tCFPL0/avXW/FJDXTx5Cvn6+Mn7foT1p5cdr7abVARoBjYBGoKojUOXNrb8tfktiiO9IMnUYNl5MzN60e80S6YVPMh3buoGWPX4rLbhnGP25apH8pNP14puFZSFopyphjxACEi9J/2LWXbRl6VzyDahDE/7zqRrNoRs8Ifg9vbzk/uSG91+gPPFC7oF3z6Q6DRoZadsOHE0F+Xm074eVlJGcSE2ExqjS2GfeJ29h3sUeJAQs9iRV8guoS4PumyU/PP3j3Odo19olFBAUokYpF3doIxvP0zFnKSikHg2+oR+dOhoredcPtX1Kqlwy0kw0AhoBjcAlQKDKC0mYTqHhtOo33IAHGpJQWwgHYUB7vv9cCshTO38nD2H+2/3dMmm+DGnq+geKJSMnfz3Hi302ke/a1x6l1PhY2v/jV+KU7E7C/qMq4ByxadnnWqn9nfhjI62fM4t+/+wdWz2Ettdj3J0yKczL9SOaS2EMD5hjYZbFR5RBMMUiP5xSxSEdCOud3yyWYfyHAz/QuPFBamioOPiTpHwLkePhGrt/B104e7JUX84IalBPskpNSaO7HruFcnPy6IOXbYuGukEBajbarRHQCGgEqh0CVd7cCkQPib04aHD4jiC0uNAW7eic+GZkbrbtY7d1Q8Pplv+uLCGosNdWnuRfN1CaLm9+dVkJtuFtOtMhO/uCauTQZu3kbczWnwzvgz9/Q9BS60fYPg7cfsiNMh+cQPWvE0iHfllDbfqPpG5jphI++NywVQeZNlY8xsJ0RHwgWD29y6dsjwrzMdOZfduLfYCY/de9/TThVxrKTM+SyXr270JNohvRglc/k+ZXeGZn5ZSGpU6jEdAIaASqDALVQkhuWvRfKSRhco3d/4fUkLZ/scAA8Yan5koBuXX5+7R33Qq6IPYupy22aZVGJFcdF/fvEB0mSzNhr/Pj+0aavSnzgmsHVPgjwTjwwgTt10aF8tJx2AR5xSMb+DE17zVIOgsK8tnLuJpNwzBBm8kcxxxemvvEONszme26tqJjB0/Sjk17qG2XlpLVhaTU0rDUaTQCGgGNQJVBoFoIyfPCTJieFE/Ne10jtUns1e1eu9QAsWHLDvI06w/vPiv9oEXhy/Uw05op6dQR6RXW4ooSp04hwIKaRBtJcMBGpayUZHniNCv1AhVaCCo1rj13fMx+GRTdY4A0teKmVb8R0o8/CN1IaKUo+09iv5LpypvulfusMLWeO7JXeoe37cLB1EKYcVVKOHZA3ra4cjAd+e176W6sxFfjDp/xEjUXdb1w9gQt+r8xapBT98FdNjwLhRl63ouLZPxufTvK6/4dxQ8zTZ48mYYMGUKpqak0ffp0p7x1BI2ARkAjcKkRqBZCEiDtXb+Cet54N4U0bSkfhGeNDGEQPA1btifsVWKy7nvrQ/C2pAM/fS1Pi15928NSkGZeSKTd39rMpxB+weFRdNUtDxIeu4js3LsYj9//N4cG3vME3fPJrwStFW/taS3MoNHd+9OHd9i0vGIJLG6ObPpemonBe+iDL4o35MRTj7/cIfc6tyybR1Hd+slTrzhlu+OrhQYHlKff1H9Ik+svH71C0GiDxdtzrv/nfyn5zHHqOPwmIy4c2KNEWTsMnyAeVTlHIZEtxBuHmhWLwzcNmrWhgOAG5OPnz14uX5MTU+RjHnjcY9DovpQUn0w9B3ShnOxcqVWqjKKioqh+/foUGCjM1po0AhoBjUA1QIDtfFW+qBBQTJuXvMtOeYUGmZWeQoPvf5aunf4vKShxItTK5Ajh+sO7tjg4UYpHR5jwuAWepew7ZQZ1G3sbxe77Qwax1ogDMBBcdRuE0zXTnpKPYHQfe7sUcMyDr1Z5Iwz5r5x1t3wWs/PISdTnlgfkc6Dr3pkltWEcuAHt+W65vPLfzm9sh2EglEHLn5gqhW27QWMkD35Okt9yg3qsffVReYoWi4a214ym1IRYZlfsioVFWejNpz+Uz0kOHnM1jb9rlDhRm09znl1QgmVwsO20a2ambS+5RATtoRHQCGgEqhgCHhERESVmSOFH586do5yc0h+8GDFiBG3cuJEuXLhQaVXGwZ6c9FT5/GRZMoUZM/7oPrsP1uPUaJjQXHHi9NyRPSVedOBq3igvzMIQxqpm7Gp6xMPzknhW8/yZY5bJcFI2okMvWR9773S1TFgKz9DwEPKv5Ucnj56xTL106VLy8/OjefPm0VdffWUZR3tqBDQCGoGqhEC1Mbe6AhoEW3kQHolwRBBocYd2OYriUlh5lPfswZ0O8yrIyyv397TayzA+NtFeEDVs2FAKyLS0NC0g7aKkAzQCGoGqhsBlJSSrGri6PEUIwAy8YsUK2rx5c5GndmkENAIagSqOgBaSVbyBLpfixcfH0/z58y+X6uh6aAQ0AjUEgWpzcKeGtIeupkZAI6AR0AhUIQS0kKxCjaGLohHQCGgENAJVCwEtJKtWe+jSaAQ0AhoBjUAVQsDuIyDJycmUJ05GatIIaAQ0AhoBjUBNRUBrkjW15XW9NQIaAY2ARsApAg5Pt2Zl2b7w4JSLjqAR0AhoBDQCGoHLEIEK1SQLmw+k3EdjKHf6Niq4yv4Lrf8SPYZe7PXcZQivrpJGoAgBHx8fUr/+UhSiXTUBAS/xofWq1P4e4otHvr6+4qtKHuUKP/o56nq5kFe9evVmmSsj/AhaZFleSweeHpnnySNWvL0mrC0VdLyRPHd+Rh7ZJT+flJabRve0u5MOpxymU+mnzcWpUfd4+Xfjxo0l9rm5uUbd0fGaNm1KuGZkZBj+VcXh7+9P4eHhhPez4q066vtg8ZrDkJAQGYZw/qGfVeZrCy8lVpgcW7WyfQS8KrbfpcSG8wZG0dHRUpCo7/eNjIyk2rVry37FcavjFe0fEBBg2ee9xesj69SpQxjz6thR64lwCJ/yOiuCuQZzCsZrefFEeVu3bk2oD/heDlShmiRlXSDPg2vJc9PbNqyCoiwxO5l+ivYl76c7295uGV6TPNPT0+Xr2yAoVYIAgiCqah0PE1uzZs3k5IYJoFatWiVWy4iD1ar6wztcsYqtKVTeq/XLFTf0C/QhlSAg8avuBMVDFf5qfSAAMeYdjQmE4/WO5UW6T7qGZMUKyYtl8Mi4+EFiLx+7pVpydBlFBkRQu6C2lnEw0V4ug8Wyghc9saJLTEyUK7GgoCDpC+GIukOAmgcZNEuEAR8zWQ0CKz9zOnfusWLExHb+/Hn5nUirtCdOnKCjR48av7i4OBkNJ6hLQ5hIUGd7Jh3UEROtowkH+Tri44gHwhhvrr+9eqDtylIOe3xVf5QF9cXPXvsCK2DG4XxV+XAc1KkqE2PP9XZUVtQF9cY4sSJ74we8gRHaj/GAW8WN4wB3diOOFSHdyZMn5Ycj1HD4c1r4w80/jqfec3w1DcfD1VkbIj3Ka2/sqLycuR2NH07rqE9i3rA3jrme4IN8uA2YL18RT+WBezNxnR2NQ+aDMpmpkkaD7UMjhb4BVLIKtiIdvHBYOtoGtZFapbmg48ePJ3y0FzRx4sQqaXI0l7m09wkJCdIkGRYWJk0zrFXGxhZ96gqdBt9nVAc/hM7Zs2dlttDqYKY6ffq0IbygjcLEsn+/7cPPpS2fmg4m+QMHDkgTUaNGjdQgu26YXkEQrO4QzLPIAxMEE75Wk5R0cREmPIEZvlnJhEXH8ePHpRmL/erWrStX7eqAwsIEr84DIT34MOG9sxD0fJANYTAZY9ECnEEwkyEOm8gxIKMvmg4RbrV14Up9kNYRmeuLuDBhq30F2gfKy4Qyot+o/aBJkyYEXJiys7MlbvzpNfZ3dkW9gR/qi/a1Zzp0xsdeOPdrmKwxOYJQxjNnzhSzsqAcMCWqkysWmOgLIGfjp2XLlsX6GWOGvI4dO0b5+fmG+Rz8UE/80DcR98gR28fIEdamTRtDuKplQFiDBg3kVgTcIJSZ6fDhw9IMCvMlEyZxvkf/g+AFIV9sazAm8ANGCOc2QH/juQTh3FfhdoecjR/wQjnbti1SeNTxBa0ZZVUJ/Q3jB7iCYJ2CIEfZuQ1RH8RhMtcHfQ7tjvZRx6qj+QBzAMapKhzRxgcPHuRsqGi2MbwqwJFim9wLWw21yzwxy/YFieZ1m9mNwwHlsQpiXlXxio6BSQ4dH4IQDY9Opu4boLNjosOEeOrUKTkpQfNUJ7rKqhsPQlfyQ50wkDFZ8IBwJR3iYLLnSQqTEDRSFRPUHwMCAwSDCQIUAwyLBSZgCYGAMmMxAg0X8VAuEMIheFA2TLzAnScg5sFXDCwsQhAHbREaGspBchJAOoShLdXFDEdyVh+O5+gKPFCPmJgYOTlg4sRCCD8QsIaAxISIfpKamlqiLMAM/Qa4YVJFHNTN1UUPlw8TTvPmzQntAAxV3DlOeV1RL7QbjxNzWTFu0PYYH8AG7QSsmFwZP+gDLIQw58CNNmULD3hh4gb+qDsmepQJbQ0NigmTNn7oc+axggUeygceIJQT9/jx+EAfxT3KD0HA4eifTKgPMMFCGQsBXHGPdgCh3IgDHsCM+yynd/XqbPwwH2jUKAP6HMYoFsYoAxPaBeVE3VB3q/4GzNFvgTsviiAYQVwf4AnFADxQNpVcmQ9QLuSNBTIWJSgT+r9KlaJJeqScJq+fX6H8PvdTQeth5Hn0R/L64l61HCS6DyVlJ1F0Xet9S3QINtOVdgVULMMqfoOGwqBDZ+OJUC0yBgA6Hzo8CHFbtGghJ0RzI6vpLrWbV3Wq9udKmTAJYdBgIudVolkTxaochEEDzLB/C80DP6TFpMNaLOKkpKTI+GpZWONCX+NwTHjAG4NQ1QgxIQJr/FAvDDYQ8kJclJO1U0ycXD7EcaU+iOeMeHLFpIE8UBfUF2XGRMT1weSL8gATVbMBf570sbAAbhC00FbcXXBBQ1AJmFUUAXNuN9RRNXOi3GgDxFHHB+6ZXBk/WMgBC2CiulmzAS/0EcRB28KNPCCY0BZIA8LYBGFCR7urhD6JHwtVzG0cn+OpfQ5lMYeDJ7DHfMCYYGwAByyW0Je5LRGOfgFCP1Fx4/wcXZ2NH06LsrBVC8IS+GB8ABP0QfxQbuAEzDB+rMoCAYk6gx+0Sx5jXB8Ie/AHcb/nMvB4czQfcFtCCCMP/LjdmE+lCElkVhggVtnefuQRt1v89nD+xa51fOrQgQuHivnxzc8//0z41STCBAuzBDq2ugLlhlUbE4MLcdDpqjJhQkM51QnLlfIiDQYWJgOYcTBRqAMePBiXaGE+MRMGFwYCDzJ7+fNqFBMfE9xWQhLlYcJExytl5oH8mHgi5XtX6sNxHV1RLvQRzpvjQkiAuCy8sIAfJl3GAffADeXHZMQEfHniZj9nVxUzxFXzdJbW3XAVe5RVnWC5biwMzLy5nzgbP2gjJsYGfirW8Ocw1a3GYR4VdeX6ol7Q5K2I+4G5T6q4WaUz+3Fe9sYPx1exZaHOfRJXtpBxfFwZR/ZT+6SZB5dD7XOom9pnuZ0dzQeYQ7BIRHmQH/hh8QthyVQ5QjKgARV0u5U8/1hIXmse57yLXWt7i5W6py8dTYkp5l+Tb3iQ8pWx4HvzqpTDceU4ql9lDlw1X3ajA2OA2Ju8OJ69K0w3EJJYHePKJ37ZwoB0GEy876TyMQ9AYGeFkZrGmVvlWRpertTHURlQBwhIXKExYYDDDYsCE5dLrS/cFUHAAyt/rOAhiFmLdjUvtazO0qjYO4trDncnH3PaqnyPCZ8tC66Usyz9QO1PVnmp7cN4czyYfSG00T8gbCGQsAdsLo85HafHlcPUOU11c1xn8wH6KfYfsXjHvAJzLn58zgJ8iozEzLUCroXBtn1Gz8Pr7XLHyVZQTKq1kOzYsSMtWLBA/srzGLTdAlXhAKx4QOoqEJ0OnYxN0dxJ1Tj2zF/otFiB8v5FRVWdzR8wkZSWoEHAdMidmM0u4Ie6Q5NG3c0/zo9XpGo6DsOVTVsw3TCxm8PY396V81DxZh7mNI7qY45rvkddMTHA3ISFByYbc724zOoKm7UK5od0WLyokwz6DU9EHM+VKwQ1FikQ2upq3JW0nJ9aDqRDv+Y+7wof1mB5X9achnmpY8M8fsxpKvqe687aj1V+iMPamBrO/Q31Mfd7nge4H6h9UnWr/By5OS9zP3OUxhyGfFEezAO4mvueOb7VPbexOq7UPo40rswHiAeMUBbsj/LCTq1f5WiSnhezyc9BmSxpSMRgyinIoa3x2yzDYbPm/Sy2s1tGrCGemIzQQXAIBXshLOB4n44HBUwJ6FDQvKwGGOBC58KEa+5krkIJ3phkOD3yxESEVSILbUx8KC/uuWyu8kc8lJ1NzxioGGiYPFVeWEVDu4TAR6dHPOSJ8rF2iTjoPzjogTIDO4RjcoJGCvywquRTtDDrIC9M+GpejsqOQYe8MWlhQYd0vJfD6VypD8e1dwVf5IWVL7AG/rwQ4TTAAeGMHdxmQp1RTpicgA/aD9iWVuM383fnntsWYx39lnFzZt5T88DCA/0PEx3GBzBAW6PdoemCnI0flV9Z3OhXvAUCTDEOeJygfiwcUW8QxjEvClTTKMIwdtCn0MYI4z4JHsAH9cVhKdQXfrxI4P13jA3gCWyAh7pIAH9XyNn4cYUHyo5xyX1RPfDmSnrEQX3R99FPgCnGk7k+rswHwJvxA+4sHFkII69KEZKFkT2RF1HycdvV9F/Ly5+uixxOeFYyM9/6fbHq6TWW9iY2NeoWB5kwqaFRuWEx2fFkgg4EnDCg+DQn9gl4gKpgsfBkgaaGueJGJ+c9AsTniQ2DmHli4gWxEJc3bv5hEKAuTBAS6gk/TOqYkFBnTAhM6v4IygMzJ7RnlJPLigEFAk8ISwgN7nOYVHhyZZ7OrtB2o8XeKAQuCJOgihH8nNUHcZwR9k9QVn50gCdLdfLFJIk4wAVtgrJgkmRCm2AhgH7E+GKSUM3YHLeir8ANdeFFH/JDnWBKBHG9+Co9Lf6wKILAUMeHKnScjR97eTnL1xyO9uc+Bp7oAxi3IJSR+ybwhkUA44TbACe4efwgPtoRYWhHEAQ990to7pjkseCDAGKCwAShXOj3WCyhL4DQ19V+ID2d/DkbP46SMzaYl4ADxiAIPPFD+VXi+Kqf6sZBM7QxMENcXvhwOlfmA+QJQctthHkTcwGwYXL4qSx1c5wTuHMtjLyS8iZ8JE4PiOcjEw6S97zBlsnHRo+mu9reQTd+fzNl5BUddlAjz549W56427VrF82cOVMNqtFuCDh0dHVVqgKCTgDBoTa6Go6VLvYDQPxclhpe1dyoC8psr75cXmCCFSbqjY5vReAF/KziADcMZAhIdaKy4uPID+VA/hBOVuRqfazSqn4QuFb1UOOgTphAcHIVZUJ7qwS8UGfwQb0vJbEGBoFur/1cKR/aFxgDf6s2cDZ+XMmjKsXhfot2RjuywOAycrizvsLxHV0djR9H6TjM2djgeM6u3K+xAMAiAXuM5j7jaD5gTJAGuJipYjXJ5BPk9e2T5JEWRx4nNpnzNu5/ObuRfj+3xa6ARESsvtDgr7/+upFOO0hOZrwatcKDB4tVGPxYC4XZ0WoSsZfuUvnzqtNZ/lad3ZzGES/gBkFcVnJWDkdlcCdvR2XFih1aFMoCExyEoZUpFZOEo77kTnnKGteeUHOXL4S9I4GPsKpSZ3frZhXfWb91Fm7F055fWfuus7FhL1/2VzVqCEf8wNMsIBHfUV7OMKlQTZIrUx5XDGyQFQDlwb+m8oAGAlMbJk1Hk0lNxedyqLf6fBnqw4eFMDlo0ghUVwRgNubtDNQBghDmZwjv8qRqQAyLLQAAAI5JREFUIyTLs9Kal0agpiEAkxJMi9XBWlDT2kbXt2wIwDSPBX5FLfocmluhZWjSCGgELh8EMKFo0ghcbghUZL+ulOckL7cG0fXRCGgENAIagZqBgN1lJey7jjY7awY8upYaAY2ARkAjUJMR0JpkTW59XXeNgEZAI6ARcIiAFpIO4dGBGgGNgEZAI1CTEfh/FzWVjiZJjUcAAAAASUVORK5CYII=;" parent="1" vertex="1">
                    <mxGeometry x="640" y="410" width="457" height="102" as="geometry"/>
                </mxCell>
                <mxCell id="14" value="" style="rounded=0;whiteSpace=wrap;html=1;fillColor=none;strokeWidth=5;" parent="1" vertex="1">
                    <mxGeometry x="700" y="220" width="70" height="50" as="geometry"/>
                </mxCell>
                <mxCell id="16" value="" style="rounded=0;whiteSpace=wrap;html=1;fillColor=none;strokeWidth=5;" parent="1" vertex="1">
                    <mxGeometry x="710" y="415" width="70" height="30" as="geometry"/>
                </mxCell>
                <mxCell id="20" value="" style="edgeStyle=none;html=1;" parent="1" source="19" target="14" edge="1">
                    <mxGeometry relative="1" as="geometry"/>
                </mxCell>
                <mxCell id="21" style="edgeStyle=none;html=1;entryX=0.5;entryY=0;entryDx=0;entryDy=0;" parent="1" source="19" target="16" edge="1">
                    <mxGeometry relative="1" as="geometry"/>
                </mxCell>
                <mxCell id="19" value="&lt;font color=&quot;#000000&quot;&gt;State variable&lt;/font&gt;" style="rounded=0;whiteSpace=wrap;html=1;fontFamily=Helvetica;fontSize=12;fontColor=#FFFFFF;fillColor=#FFFF99;strokeWidth=5;" parent="1" vertex="1">
                    <mxGeometry x="670" y="330" width="120" height="30" as="geometry"/>
                </mxCell>
                <mxCell id="25" style="edgeStyle=none;html=1;" parent="1" source="22" target="23" edge="1">
                    <mxGeometry relative="1" as="geometry"/>
                </mxCell>
                <mxCell id="27" style="edgeStyle=none;html=1;entryX=0.5;entryY=0;entryDx=0;entryDy=0;" parent="1" source="22" target="26" edge="1">
                    <mxGeometry relative="1" as="geometry"/>
                </mxCell>
                <mxCell id="22" value="&lt;font color=&quot;#000000&quot;&gt;function to change state&lt;/font&gt;" style="rounded=0;whiteSpace=wrap;html=1;fontFamily=Helvetica;fontSize=12;fontColor=#FFFFFF;fillColor=#FFFF99;strokeWidth=5;" parent="1" vertex="1">
                    <mxGeometry x="830" y="330" width="120" height="30" as="geometry"/>
                </mxCell>
                <mxCell id="23" value="" style="rounded=0;whiteSpace=wrap;html=1;fillColor=none;strokeWidth=5;" parent="1" vertex="1">
                    <mxGeometry x="810" y="220" width="130" height="50" as="geometry"/>
                </mxCell>
                <mxCell id="26" value="" style="rounded=0;whiteSpace=wrap;html=1;fillColor=none;strokeWidth=5;" parent="1" vertex="1">
                    <mxGeometry x="790" y="415" width="70" height="30" as="geometry"/>
                </mxCell>
                <mxCell id="28" value="" style="rounded=0;whiteSpace=wrap;html=1;fillColor=none;strokeWidth=5;" parent="1" vertex="1">
                    <mxGeometry x="670" y="446" width="190" height="44" as="geometry"/>
                </mxCell>
                <mxCell id="29" value="" style="rounded=0;whiteSpace=wrap;html=1;fillColor=none;strokeWidth=5;" parent="1" vertex="1">
                    <mxGeometry x="950" y="220" width="120" height="30" as="geometry"/>
                </mxCell>
                <mxCell id="31" style="edgeStyle=none;html=1;entryX=0.5;entryY=1;entryDx=0;entryDy=0;" parent="1" source="30" target="29" edge="1">
                    <mxGeometry relative="1" as="geometry"/>
                </mxCell>
                <mxCell id="32" style="edgeStyle=none;html=1;entryX=1;entryY=0.5;entryDx=0;entryDy=0;" parent="1" source="30" target="28" edge="1">
                    <mxGeometry relative="1" as="geometry"/>
                </mxCell>
                <mxCell id="30" value="&lt;font color=&quot;#000000&quot;&gt;Initial value for this state&lt;/font&gt;" style="rounded=0;whiteSpace=wrap;html=1;fontFamily=Helvetica;fontSize=12;fontColor=#FFFFFF;fillColor=#FFFF99;strokeWidth=5;" parent="1" vertex="1">
                    <mxGeometry x="990" y="330" width="120" height="30" as="geometry"/>
                </mxCell>
                <mxCell id="41" style="edgeStyle=none;html=1;exitX=0.5;exitY=1;exitDx=0;exitDy=0;entryX=0.5;entryY=0;entryDx=0;entryDy=0;" parent="1" source="33" target="38" edge="1">
                    <mxGeometry relative="1" as="geometry"/>
                </mxCell>
                <mxCell id="33" value="" style="shape=image;verticalLabelPosition=bottom;labelBackgroundColor=default;verticalAlign=top;aspect=fixed;imageAspect=0;image=data:image/png,iVBORw0KGgoAAAANSUhEUgAAAJ8AAABbCAYAAABtYldCAAABXWlDQ1BJQ0MgUHJvZmlsZQAAKJF1kMErwwEUxz9jUlo4SNLKDovLaH6bcmQjqR3WbIXbb7/NqJlfv/0kNwfuKy5uwoGTGw47KH8AJQ4Sbv4A2YX1834btpH3en0/fXvv9XrQ5FJ1PesElnOmEZsKeWbn5j2tLzhppp0+FFXL6+PRaERa+NbGKN3hsPVm0N4VPzz3LjwFe8duBy7dxZPjv/0N0ZZK5zXRDylF0w0THH7h6Jqp27wh3GXIUcI7NmeqfGRzssrFSk88Fha+Fu7UFtWU8LOwL1nnZ+p4Obuqfd1gX+9K5xIzot1SbiaYJCLpIYHCCMOMisc/M8HKTJgVdNYxWCLDIqZMj4ujkyUtPE0OjSF8wgp+qYD9698/rHkr+zD6Bs2FmpfchbMt6Lmved496NiE0ytdNdSfzzpKzvxCQKmyKwQtj5b12g+t21AuWNb7vmWVD2T/A1zkPgHj1GQQDnfuJwAAAGJlWElmTU0AKgAAAAgAAgESAAMAAAABAAEAAIdpAAQAAAABAAAAJgAAAAAAA5KGAAcAAAASAAAAUKACAAQAAAABAAAAn6ADAAQAAAABAAAAWwAAAABBU0NJSQAAAFNjcmVlbnNob3TpYZjFAAACPGlUWHRYTUw6Y29tLmFkb2JlLnhtcAAAAAAAPHg6eG1wbWV0YSB4bWxuczp4PSJhZG9iZTpuczptZXRhLyIgeDp4bXB0az0iWE1QIENvcmUgNi4wLjAiPgogICA8cmRmOlJERiB4bWxuczpyZGY9Imh0dHA6Ly93d3cudzMub3JnLzE5OTkvMDIvMjItcmRmLXN5bnRheC1ucyMiPgogICAgICA8cmRmOkRlc2NyaXB0aW9uIHJkZjphYm91dD0iIgogICAgICAgICAgICB4bWxuczpleGlmPSJodHRwOi8vbnMuYWRvYmUuY29tL2V4aWYvMS4wLyIKICAgICAgICAgICAgeG1sbnM6dGlmZj0iaHR0cDovL25zLmFkb2JlLmNvbS90aWZmLzEuMC8iPgogICAgICAgICA8ZXhpZjpQaXhlbFlEaW1lbnNpb24+OTE8L2V4aWY6UGl4ZWxZRGltZW5zaW9uPgogICAgICAgICA8ZXhpZjpVc2VyQ29tbWVudD5TY3JlZW5zaG90PC9leGlmOlVzZXJDb21tZW50PgogICAgICAgICA8ZXhpZjpQaXhlbFhEaW1lbnNpb24+MTU5PC9leGlmOlBpeGVsWERpbWVuc2lvbj4KICAgICAgICAgPHRpZmY6T3JpZW50YXRpb24+MTwvdGlmZjpPcmllbnRhdGlvbj4KICAgICAgPC9yZGY6RGVzY3JpcHRpb24+CiAgIDwvcmRmOlJERj4KPC94OnhtcG1ldGE+Cu6t4cYAABIHSURBVHgB7V13WFRXFj90UGmKvYKiorhiwa7YJRoRNboSNyZqTKLxi2V1zR/xs8Wy9liS3bj2SHR17frprkYTY429xAZiQUURVEBAsOz73fE+34zDMPNmzJsZ7vm+x3vv9nveb865575zHi6VKlV6SYIEBzTggKsGfYouBQcYBwT4BBA044AAn2asFx0L8AkMaMYBAT7NWC86FuATGNCMAzYB39Rhjyhh0226uT2ZRsZlaDYZ0bFjccDd2uF6eb6kD7pm0cNMV5oX70dbfvGxtklRv4hwwGrwtW+cSy4uRPG7itPi9b5FhG1imrbggNVq191d94IkJc3NFuMRbRQhDlgNPr9iOvC9EC/pihBsbDNVq8HXo202G8mRc162GZFopchwQPWab/Oc+/SnGvnk5vaSNu0rRldvehQZpomJ2oYDqiVfggS2tMeu5CoZG3VC8m0zGtFKkeKAavCN+SaQIgeUp/0nvKlW1XyqVuFZkWKcmKz1HFANPt711lf7eq0b5PIkcRYcMIsDVoMvN0/SuxJ5iyWfWQwXhV5zwGrwJd/T2SxtGgrJ95qt4socDlgNvrNXPSkrx4XaNsqlpK3JNCgmy5x+RRnBAVK91cJ59/wFUcT7FShW2u+rVv4ZHb/oybPEWXDAJAdcRACRSf6IzLfIAavV7lscm2jayTkgwOfkD9iepyfAZ89Px8nHJsDn5A/YnqenCnySkUKensKqtecH6whjUwU+R5iYGKP9c0CAz/6fkdOOUIDPaR+t/U/M6jcc9j9F80fo5uZG9erVo5s3b1J6err5FS0s6enlQTEfdKHQ8GC6fCaRNi7f+UYLPQe+QxHNw8nd3Y0SLiTRynnr6cUL6XWSE5EAn+Jhent7U5s2bej8+fP0008/KXJsdxndpx117h1Frm46pZOf96Yf5Puf96QmbRtQxqMsysrIpvrN6tLo6SVp9rjvbDcQO2jJbtSun58f1ahRg0qWLGmULYGBgVS9enXy8nozVsTDw4NcXfWngjQXxHRKBInG6/n6+lK5cuX0+kA55PMy7u7u8r1hu7gvVqwYO/QaMfOmfrM6EqgyJUn2b6M10H7j1vUpOyuHJnwyi6aPXEB5T/OoUkh5CipnnDdGG3KARM0lX5kyZSg2NpYgdThB5f3www/sFqDs27ev3sO+du0abd++nRenoUOH0o0bN2jLli0sLSwsjDp16kS7d++my5cvU+fOnSk0NJRSUlJk4GVnZ9PGjRuZesXWUc+ePeX2ateuTThAx44doyNHjsh5ffr0of79+7P7fv36EdqxhL4Zv5Rys3XuZx+O6vtG1bqNazGpeP74JXr58iW9278TeXrptrVado6kLat2v1HHURM0BR8kTu/evaV1jTslJSXRb7/9RkFBQRQeHi7zs1u3bgx4ANelS5eoVatWFBISwspAPRojLvEM8yA9oU4h+erUqUNRUVG0adMmunPnDq1bt458fHwoJiaGAG6MBWRq7QeJailx4BVUr3S5UizrdlIKBZTyow49WlHytbtM8pUsHVhQNYdM19dVf/AUAACox+TkZNq2bRuTTADU2rVr5ZEAjE+fPmVSDVIMYAHVr19fLmPuBSQY2t+zZw9bvPv7+7Oqz58/p3v37lFqaiq7hzTDPY78fP3gKAC1oDxzx2GqXECQH8vOzMiiIV/+hbAmXDornqX5BhQ3VdXh8jSVfGXLlmUMg0QzRlifQYqlpaXJ2ZBEsPqw7rKULl68KFfJy8tjEldOMPPiwIEDhONtUc4TnUqObBNBFauVoxVz18nGydPcvLfVrSbtair5sKYBFaQmeb4xzpjK44aDYT0AjpOp+ryMFue0ew9Zt2ENQun6lVt0+vAFKl1ep4ofp2dqMaS31qem4IP6AsFAMEZZWVls0V2qlI75KINrWIQ5OTlyFQApICBAvg8ODpavLbl49ky37WFKqrZr145WrVpFK1eulK1jS/oorOyVc4msCOa0ZMYadt2wZT12vnT6ql51GD4rVqyghQsX6qU7yo2mahdqEPtqFSpUYNbm8ePH2VYLwMjXfffv3yeo5169etHVq1epadOmjLenT5+WeYw1IaziJk2aMKOhYsWKcp4lF2gHKr1q1aqsLah7/EDwI+AE65wDHc4VqGMJ+QX6UlTXZnKVwCB/6i5ZtI8fZtIvO4/Qo7QMepCSzrZV2se0pPTURxQZFSFtt+QzKShXlC4wTmxN8bWrMs8RrjWVfPh1b9iwgUmxypUrMwDCAlXure3YsYOePHlC2A6B1IFUSkhIoAsXLsj83b9/PzMMmjVrxgwRLlHVqNbDhw+zdtEWLG2l5Y0MNW3KA5UuKgWXpw6xrdmB9OK+xdh1dN92crGFE5axfT6U6zOkOz1/9py+nbxCzucXsN5BSi3A8xzhrCqGA0CARFKuoaydLLY5YNk+fvyYMjLe/LppiRIlCMzGXp2hBcr7hoR88OABwXp1BsJaz9vHi25du2N0OuvXr2eqf8mSJWy3wGghO07UVO0q+YJf761bt5RJetdQfUr1p5f56oZLPGN5jpiWeve1lW84fvzQYFiBJ9imckSyG/A5IvO0HDPWptjzxBsYRyW7UbuOykAxbvUc0NTgUD9sUdMZOCDA5wxP0UHnIMDnoA/OGYYtwOcMT9FB5yDA56APzhmG7RRbLXg9Bw8YEDaY8QbEmQhuZ9jXwz5mQRvspUuXZq8GlR5A9s4DpwDf6NGjqXz58ozXAN+AAQNszve5c+fqvfYz7GDevHnMm9owvaD7UaNGsXezW7duLTRepEuXLhQXF0fTpk3Te62obHvGjBnszRDaNYfw5iT2w2gKa1iTfIp5S36D+SxQKX7xJlK6biHYaeCYflSlekX2fvnI3hO0e8N+c7ootIxTqN1x48bR4MGD6fr164VOWG0BeFvzA68BIWn4Pc4FuYUZ6w8OCY0aNWJtdO3a1VgRvTRL2taraOImJKwqNevQSPryhAfdv/2APDzdWaDS3+Z8rldr3NzhFBYRShmS4wOA+M6f21O3uA56ZdTeaCb5wFA4CeD9sFKVwKkA73nhTcxf4qMcgofgtg7H09xcncMlnzSkHQ7uEsXT+Rn1oLqU9XAPUvaNe3jH1KxZk0kx7tmM9C+++AInRosWLWLlhg8fzpP0zgW1wQvBQQLzx6sxuPRjfBi/kgDQunXrsvACZbryGt47eN+tdLJQ5uOau4fh9SXnJ9LvJafSstlr6ezR33HLaOqyL6lUmUDmUQPPGgAU95fPJtJ3U1ZSqbKBNH7RKIrq1oJ2/LiXV1N91gx8YMr333/P1mcTJkyQJ/DRRx9Rhw4d6Ouvvya4XA0bNoxatmwp5+Pi1KlTNGfOHD1m6hUwuAFI4G7FA3+QvWDBAlYf7YOKFy9O48ePJ3jXcMK7ZqQZApTnG57xw/nqq6+oVq1achYAjDYyM187giIOBUBAABOWCK1btyZ45nBCwBPSucSDs4WS8OOcPn06k5xIx/iUnkC8LCT0smXL2O3SpUvlACskpN1/yA5eFmc4MNSuX4P8AnyZW1erLk1Y9r5tB9l50Jg4doYEhJf17esp7F7tH83ULtyk7t69yySaknEACXzkuMs7pNXevXtp4sSJNHXqVCYJGjRoQFgHWUP8wfI2xowZw4B34sQJwvoJvoUA4meffcaLFHpGMBSAB8MADp6IOYF65gDnDcAPD2V+/vlnlgQ3Mk74UQJ4kOJr1qxhZSBJlfTxxx+zdq9cuUKLFy9mLmeFBTMpeaxsi1+jfnCtKvRC+s7xtUs3WDICmEBJl25KccQ6t/7kpLssrUyFIHa25o9m4MOgASqAAGoIBDUCqxWSjRN+uTgAVICSh0wqpQsvq/YMFQdVCzW4efNm9jBhCAD4ALq5xEEE6YdgpcmTJzOphEApTg0bNmRqFnNE+48ePWLReDy/ffv2jCcA5s6dO5l2gBuZkiIiIpianjRpEh06dIjmz5+vzJavwS+AHAf4Z4oGSUaFl7cn7Vj7Wp3C1xAEQPb5JIZF0Z06pIsYDAx67Tluql1TeZqpXQwKUWRQhR07dmRA7NGjBxsrj1DDTePGjZnkMIzLgJq0FSFYHQSfwSlTpug1q1wn6WUYucGYAChlLC/8HvGjguSBJwrmCjp69ChT9ZCO8M6G0yoi67gX9pkzZ+Qe4MHNrXkkghfKkE7kGxsnVP2QIUPkdgq6ePf9joR4YXyWY+/mA3IxeE+DBo2NIzdp/P+ctppaRetUcU726zAGuYKFF5qCD2sVxMgiDhcGACxAMAyhlCCoAqgsnOPj41ksLcrNnDlTXg+ZM188dENCO9wFnj+4gwcP0urVq/WKGqurV8DCGy6xsYxQEoLcAT4+FmVeYSpTWdbS66iuzaljzzaUIhkgiyet0KsOCxeEYKYdP+6hzMdZBLd/0IMUXaATu1H5R1O1izHv2rWLAQnrGHy1QPl1AKy58Cs/efIkwZ0eUqRFixYFThXSAEDlFh4vCGkE4oFKUO3KLyTwTWn0B/ArD6xNzSXUQ7tKqYzNYazfAOIqVaqwfBgyy5cvlw/kw7IFcYdaqFZOsPSVhB+N8rMiALThGhblsVZEsBOO5s2bK5tg11jH4YNEiBOZNebbN4CfcOE6K/c4PYP+t/EXdl2jbjArdzNBJyBYoso/7irr2awa1iyffvop+xIBGuWfvMA19u0gHfHlqMjISPYJC662kG9IWEPCYIF1iWusdc6dO8cCj9q2bcv2ArGWw1cJlIQ+YOAAnFhHAejYAuLxJNhANoewTkOgEzaDsXTA+g17gFyFRkdHs2awbv3111/lJmHtQvVDte7bt48tRdA31oN4e2P4bRl8TQF1sERAn++9957clvICa1ke7GTYRtXQShQ3rCcD0u8nr1A3SfVyOrbvJJOECGhCcJOvfwlq2r4hVQ6pQCVLBxCAp9yI5vUsPWsu+TBgbtki/uLhQ31xDgMAKnLkyJGEh5eYmMgYZkw9QW3hoeIhDhw4kB1oH9sYWBfhAQDokEyGQTfYukEZgGDEiBE0duxYBnhLJB+2TrDnhi0OrLUgsbDQh0UKwlcWMG4epMQSpT9c2kP1QkojJgMSHNYzJJZyfYc63ADDcgXzBH+wT2jIE8N73h/OCGSCtMSBLRVEyvEjNDyEFUWb/5oZz67jhsaycpCC305ZxdKs/eMwnsxQLVBJysW8pZOHGoJRgU9eFESQFoj7hSrEd/ogFS0l7MMBxKhvuEdnblsAH+aMNgqKXcE2DsIm+bLB3LbVlKtWszIBeA8f6O85qmmL13EY8PEBi7PzcMAu1K7zsFPMxBIOCPBZwi1R1qYcsBvwnZPWNzhmvHKNUs4yVNpuKSzPWD6vZ2ke+kYdY/WQx9s1NVZjdXk9W+ZZMh6UtSfSDHx/V4CshgSuI5IXy+fS5nK0tAdnmLdYekOAfFN5vC5nLtrk9Xgeb9dUHurb23gKmgcfK/IN56jM47zl80eePZCbZAFOtHQgsBqxBWHoBmRJO7Ol/atgybK8LlmTYF5/yapLkvbWzkpbDSOkrQpl3k2pzDAJmKdN5PG6w6W6vE1ej+fxdgdLH9cpKI/X/aPGs0d6n4z5mxpPuGQ9Y/6G8+BjRd1F0jaVKd6hLuc5+rQHUmXt2sPAxRgcnwOaqV3HZ52YgbUcEOCzloOivmoOqAbf6skP6Mb2ZLq44TYNirGPNYRqLoiKmnBA9ZovvHo+dW+TTUNidcAL6aHua6CazFp0ahccUO3Vcj7Rg84n+lNkWB5F1n1Kri6Sx6vu+952MTExCPvngGq1y6eWlqFrwtVNII/zRJzN44DV4ONOwv7FBfjMY7koxTlgNfiS7+k098DuwujgTBVn8zig2uDgzfsWlz7POiuValXNp6xsV/rvUW8aMdu5/jsin6s425YDVks+yTGXSvnrou1vp7pRYrJqG8a2MxOt2T0HrEYKtlqCAl7Q1GX+9I//6L4UZfezFgO0Cw5YLfnqhOjczNfssl0crV1wRgzirXPAavC5v9piyXkqbfQJEhywgANWgQ8by3jT8eyZCzss6FcUFRwg1Wu++X9Np17tsqXQO6IDp70EKwUHLOaAavDtPuxD2OP7PcmDdh70sbhjUUFwwOp9PsFCwQG1HLBqzae2U1FPcAAcEOATONCMAwJ8mrFedCzAJzCgGQf+D9xMhQJvN6CKAAAAAElFTkSuQmCC;" parent="1" vertex="1">
                    <mxGeometry x="1370" y="179" width="159" height="91" as="geometry"/>
                </mxCell>
                <mxCell id="34" value="&lt;font color=&quot;#000000&quot;&gt;currentState&lt;/font&gt;" style="rounded=0;whiteSpace=wrap;html=1;fontFamily=Helvetica;fontSize=12;fontColor=#FFFFFF;fillColor=#FFFF99;" parent="1" vertex="1">
                    <mxGeometry x="1370" y="149" width="160" height="30" as="geometry"/>
                </mxCell>
                <mxCell id="42" style="edgeStyle=none;html=1;entryX=0.5;entryY=0;entryDx=0;entryDy=0;" parent="1" source="35" target="39" edge="1">
                    <mxGeometry relative="1" as="geometry"/>
                </mxCell>
                <mxCell id="35" value="" style="shape=image;verticalLabelPosition=bottom;labelBackgroundColor=default;verticalAlign=top;aspect=fixed;imageAspect=0;image=data:image/png,iVBORw0KGgoAAAANSUhEUgAAAIMAAAAnCAYAAAAsEPueAAABXWlDQ1BJQ0MgUHJvZmlsZQAAKJF1kMErwwEUxz9jUlo4SNLKDovLaH6bcmQjqR3WbIXbb7/NqJlfv/0kNwfuKy5uwoGTGw47KH8AJQ4Sbv4A2YX1834btpH3en0/fXvv9XrQ5FJ1PesElnOmEZsKeWbn5j2tLzhppp0+FFXL6+PRaERa+NbGKN3hsPVm0N4VPzz3LjwFe8duBy7dxZPjv/0N0ZZK5zXRDylF0w0THH7h6Jqp27wh3GXIUcI7NmeqfGRzssrFSk88Fha+Fu7UFtWU8LOwL1nnZ+p4Obuqfd1gX+9K5xIzot1SbiaYJCLpIYHCCMOMisc/M8HKTJgVdNYxWCLDIqZMj4ujkyUtPE0OjSF8wgp+qYD9698/rHkr+zD6Bs2FmpfchbMt6Lmved496NiE0ytdNdSfzzpKzvxCQKmyKwQtj5b12g+t21AuWNb7vmWVD2T/A1zkPgHj1GQQDnfuJwAAAGJlWElmTU0AKgAAAAgAAgESAAMAAAABAAEAAIdpAAQAAAABAAAAJgAAAAAAA5KGAAcAAAASAAAAUKACAAQAAAABAAAAg6ADAAQAAAABAAAAJwAAAABBU0NJSQAAAFNjcmVlbnNob3Ti/F94AAACPGlUWHRYTUw6Y29tLmFkb2JlLnhtcAAAAAAAPHg6eG1wbWV0YSB4bWxuczp4PSJhZG9iZTpuczptZXRhLyIgeDp4bXB0az0iWE1QIENvcmUgNi4wLjAiPgogICA8cmRmOlJERiB4bWxuczpyZGY9Imh0dHA6Ly93d3cudzMub3JnLzE5OTkvMDIvMjItcmRmLXN5bnRheC1ucyMiPgogICAgICA8cmRmOkRlc2NyaXB0aW9uIHJkZjphYm91dD0iIgogICAgICAgICAgICB4bWxuczpleGlmPSJodHRwOi8vbnMuYWRvYmUuY29tL2V4aWYvMS4wLyIKICAgICAgICAgICAgeG1sbnM6dGlmZj0iaHR0cDovL25zLmFkb2JlLmNvbS90aWZmLzEuMC8iPgogICAgICAgICA8ZXhpZjpQaXhlbFlEaW1lbnNpb24+Mzk8L2V4aWY6UGl4ZWxZRGltZW5zaW9uPgogICAgICAgICA8ZXhpZjpVc2VyQ29tbWVudD5TY3JlZW5zaG90PC9leGlmOlVzZXJDb21tZW50PgogICAgICAgICA8ZXhpZjpQaXhlbFhEaW1lbnNpb24+MTMxPC9leGlmOlBpeGVsWERpbWVuc2lvbj4KICAgICAgICAgPHRpZmY6T3JpZW50YXRpb24+MTwvdGlmZjpPcmllbnRhdGlvbj4KICAgICAgPC9yZGY6RGVzY3JpcHRpb24+CiAgIDwvcmRmOlJERj4KPC94OnhtcG1ldGE+CrQCXEsAAAl/SURBVHgB7VsJUFXXGf7YHvDYBUEhsikQcKm4m6QxVZAyxCaOSTNiUFDExOgk2Eli617G0FHbEarJRHS0o5YGrOkQiVVnEqdaVFzTyGZYBQR8gLIvsvT+5/Ve73v38dguHR3u79x7z/n///z3nP989z//OTxNJk+e3NvQ0ACFFA+YKi5QPMB7QAED7wnlCQUMCggEDyhgEFyhFBQwKBgQPKCAQXCFUlDAoGBA8IACBsEVSsFcpVLByspK8YSMHli+fHm/1lJTU/vV2fn7HUynIO9en7oDsdNnYz2BuV5dqcrkgeOnjvdpKeqtqD5lhgR92RqsHUO2xTwGhvb2djFPKcvggY6ODqNWBuNzY7YGY8dohzjhiOUMbm5OcHV1NPh+Bwcb2NurDcqeFyaNb9w4pwF3d51fLD4J+s2A9cWKyzyXYk/wZ2LWiJRHbJlISdmIx4+bsXLlnyQdT039GJWVdVi79s8S2f+L4e7ujLlz/XH+/G20tAw+MiYnx8Hc3AzLlvU/SWMtXfC25zLsyf2jzvCcXZ2wfke0Do8q59K/R/bFOwI/u+4G3veLw3yXubhSe03gy10YschgrKMVFXUoKqoypjLisgULpmD9+gj4+o4b8Xet9H0Xbd1t+K76os671HZqECBs7W0YsAhcdJma6k5LeUs5chvyEDdpjU57uSuyRgYvL1c4O9vh9u1ig/2kQZqamnCT8Dl6enoN6hDTxcUegYETUFr6EOXlGkFPpTKHSmWB5uY2vPjiC8xpubn3BTlfsLGxYnIzM1P8+GMp2to6eREsLMxhaWnBLmLa2VnD1taaycmuPtFy4O/vjvv3NSgre6gvZnV/fw80NraiuvqRRG5lZoVw9zCk3f87unq7JHJiXDyThbNffWdQxjO/KkvHrmnbEeQQyIDB8+V8ygIGtdoShw5tADmOqLOzCzQR+pSZuYMhn/ilpTWSZYImODFxlTA5pFdQUIkNG76gInbsiMScOf6or2/CmDF2jNfa2oH33juIqqp6Vt+8+W0sWvQzVuZv164VYNu2E+jt7cXGjUsQHj6TF2HXrhVCmZY03g5NMPVFnNsQINasSRL06Sv++ustQn8LC6sY0AUFruBt48WqBQ0FYrZOmew4c76rq5GCiVe81/gTKwbaBzzbYIiPf5MBISenDBkZ2Vi3LpybLFt+HMIzPj6FO9NQMSdz8yKhTz99C/RVJyamIyfnPmbM8IWfn4dEj8CXnJyB6dN98eqrU7BzZyT3zgNMr62tA2fOZOPChTtcFDFHXNwvudwgAEuXzsfp01k4cuQ8vv32OsLCZuL112cjKSkDhYUPWFuNRvsjH4pg+/at4fpqAQLSiRPfY+LE8YiImK3TF+oHAYRsREa+hkmTxmPJkjk6Oj623qxe3lqhwxdXFr35c9BFYC29V44vdx9HOzcOMdV21LGqj52PmC1rWZbIQM7u7u7BRx+lsM5RuExKipN0ND9f6xAatImJRAy12orZuXHjJxZ2z569Cbr06eTJi/jmm2x2paVtho+Pm6BCE0NEX7S7+xikpV3Cli3vYMoULwaGhoYW0BUcPJHpUejn+8UY3C0sLBjW1ircuVOMrVu15wWkk5l5nVcRnps2pXD2WqHRNGL//rUICPBAba0ghpeNJ6s8aJPmSO2t7agsrUbOzQI4Ottj6uxA+AR4Iu537yJ525GnRrhSL/evvqMePjbeOnw5K7KAgb6g2tpGoV+0jtOED5YyMq4iOjoEp079ltuJtODq1QIcPHgGHR1PdExdvpwr1GkynZx82Tb24cPHePnlQNBSQRFITJQbDJT8/V9gqhcu3DbahJYoAgIRRUUia2tL9uRvjzofs6K9hT3au3V3LZqqOuz9+HNelVtaM7AvdTsDhMAUFWwtbJHf1PdppEh1SEXpwj4kM/I0oi9+9eokXLqUyxI8WtuPHYuXGDeUj5hwoYbWXgICPQ8d+ifb1sbGJkva98/QAlk/q9dv19XVrc+S7ASKmoqYjqdaCzBJAxGju7sbNZW1XNQ0gZOLg0gCqM3VUJmqUNxkODnXUR5iRRYwULZOOwCeKCTTgIZCtHtISEjFG28koKSkhtmlPEJML70UKFS9vd1YFKrhki9vb1cWEbKy8pGefpklgwsXThN0xYXOTm20MXQwlpenXc5CQqaLmwypXNKijRie/1su+jMydtwYNp7HdU8jLbXxVE9gTYubS/ozMWS5LMsEhe3Fi4Nx4MD7OHfuJlatCpF0iJzu6TmW8QkoFE5nzfJj9R9+KMGTJ13cmhuHW7cKkZWVBy8vN3h4OLOdiXhrSA1WrHgN9FVOm+YNR0cbLgHUrsf0pJ3MrFmT8MorQZzcR5LQsRdyN9qlEMXGLmb5waNHTdx789lE0PLwwQcRzP7evatBEYvyktDQYMlugRkxcqvjEr+S5lKEuYfidPk/dDSjN70DCy7JvXsjnztrsMW8RTNgxkW1ipIqyTK7eHwIOns6cb1OmkPpGB1GRRYwUGYfFDSBJU+UQNHk0WSJ84bIyAU62bibmyPbVVDfKUmjrN3V1QFRUQvZRfympjYuZ8jkziR6qCoQ7elpl0BEOjt3/lWQ0cRFRf2CbUOJSecMFKnEfSH+3btluHIlH/PmBeDDD39FLMTE7EdFRS3TpZ1PYmI027HQroWouLiaPelGKdFA06KUwiP4bHoCJtr5okgU5s0tzDB5ZgC7eMMPymrwRcJf+Cp7WptZI8IjHH/jzhro8GqkyCQ4OLhXo3l6sDOcF9E5g5OTjSQ7H4xNOj+gU0FyPJ0niGn37pXsnCE0dCsXOVzZWYZ4gsS6U6d6MxtDOWoW26G/o1BUqKp6BFqKBkIxMTE4fPKwjuqx+Yc5IBQh4W4iYlfE4ujRo0xOp4/u3uPQywG+vLgKtMPg6Q97ElnxypdZoL9tLP3Xr9HapU1YSSC2w7cZzlOWyMB3gJw1UIfxbfSfBAB9EOjrUL2v00BelyKCHETbUNpiDpc23foEtKPQp+bGFtz7jzbJ1Jfx9Uuaf+NabbYOEHiZnE9ZwSBnxwzZorOM55XojICuoZCmXZ7I3d+7nyswbN9+or/xKPJheECWreUw3q80fYY8wCKD8htI+WfE0lL3JFL/DYPxuTFbg7Gj3wf9+nO1TOh3/lmuy/n7RDltGfOZifJf8o25Z3TJlJxhdM230dEqYDDqntElVMAwuubb6GgVMBh1z+gSKmAYXfNtdLQKGIy6Z3QJFTCMrvk2Otr/AnHCRaZbzhLzAAAAAElFTkSuQmCC;" parent="1" vertex="1">
                    <mxGeometry x="1660" y="190" width="131" height="39" as="geometry"/>
                </mxCell>
                <mxCell id="36" value="function we get back from calling useReducer" style="text;html=1;strokeColor=none;fillColor=none;align=center;verticalAlign=middle;whiteSpace=wrap;rounded=0;" parent="1" vertex="1">
                    <mxGeometry x="1791" y="184" width="80" height="51" as="geometry"/>
                </mxCell>
                <mxCell id="38" value="" style="rounded=0;whiteSpace=wrap;html=1;fillColor=none;" parent="1" vertex="1">
                    <mxGeometry x="1590" y="340" width="60" height="30" as="geometry"/>
                </mxCell>
                <mxCell id="39" value="" style="rounded=0;whiteSpace=wrap;html=1;fillColor=none;" parent="1" vertex="1">
                    <mxGeometry x="1655" y="340" width="60" height="30" as="geometry"/>
                </mxCell>
                <mxCell id="49" style="edgeStyle=none;html=1;entryX=0.5;entryY=0;entryDx=0;entryDy=0;" parent="1" source="45" target="48" edge="1">
                    <mxGeometry relative="1" as="geometry"/>
                </mxCell>
                <mxCell id="45" value="" style="shape=image;verticalLabelPosition=bottom;labelBackgroundColor=default;verticalAlign=top;aspect=fixed;imageAspect=0;image=data:image/png,iVBORw0KGgoAAAANSUhEUgAAAMEAAABpCAYAAACDDUcfAAABXWlDQ1BJQ0MgUHJvZmlsZQAAKJF1kMErwwEUxz9jUlo4SNLKDovLaH6bcmQjqR3WbIXbb7/NqJlfv/0kNwfuKy5uwoGTGw47KH8AJQ4Sbv4A2YX1834btpH3en0/fXvv9XrQ5FJ1PesElnOmEZsKeWbn5j2tLzhppp0+FFXL6+PRaERa+NbGKN3hsPVm0N4VPzz3LjwFe8duBy7dxZPjv/0N0ZZK5zXRDylF0w0THH7h6Jqp27wh3GXIUcI7NmeqfGRzssrFSk88Fha+Fu7UFtWU8LOwL1nnZ+p4Obuqfd1gX+9K5xIzot1SbiaYJCLpIYHCCMOMisc/M8HKTJgVdNYxWCLDIqZMj4ujkyUtPE0OjSF8wgp+qYD9698/rHkr+zD6Bs2FmpfchbMt6Lmved496NiE0ytdNdSfzzpKzvxCQKmyKwQtj5b12g+t21AuWNb7vmWVD2T/A1zkPgHj1GQQDnfuJwAAAGJlWElmTU0AKgAAAAgAAgESAAMAAAABAAEAAIdpAAQAAAABAAAAJgAAAAAAA5KGAAcAAAASAAAAUKACAAQAAAABAAAAwaADAAQAAAABAAAAaQAAAABBU0NJSQAAAFNjcmVlbnNob3SqkEmoAAACPWlUWHRYTUw6Y29tLmFkb2JlLnhtcAAAAAAAPHg6eG1wbWV0YSB4bWxuczp4PSJhZG9iZTpuczptZXRhLyIgeDp4bXB0az0iWE1QIENvcmUgNi4wLjAiPgogICA8cmRmOlJERiB4bWxuczpyZGY9Imh0dHA6Ly93d3cudzMub3JnLzE5OTkvMDIvMjItcmRmLXN5bnRheC1ucyMiPgogICAgICA8cmRmOkRlc2NyaXB0aW9uIHJkZjphYm91dD0iIgogICAgICAgICAgICB4bWxuczpleGlmPSJodHRwOi8vbnMuYWRvYmUuY29tL2V4aWYvMS4wLyIKICAgICAgICAgICAgeG1sbnM6dGlmZj0iaHR0cDovL25zLmFkb2JlLmNvbS90aWZmLzEuMC8iPgogICAgICAgICA8ZXhpZjpQaXhlbFlEaW1lbnNpb24+MTA1PC9leGlmOlBpeGVsWURpbWVuc2lvbj4KICAgICAgICAgPGV4aWY6VXNlckNvbW1lbnQ+U2NyZWVuc2hvdDwvZXhpZjpVc2VyQ29tbWVudD4KICAgICAgICAgPGV4aWY6UGl4ZWxYRGltZW5zaW9uPjE5MzwvZXhpZjpQaXhlbFhEaW1lbnNpb24+CiAgICAgICAgIDx0aWZmOk9yaWVudGF0aW9uPjE8L3RpZmY6T3JpZW50YXRpb24+CiAgICAgIDwvcmRmOkRlc2NyaXB0aW9uPgogICA8L3JkZjpSREY+CjwveDp4bXBtZXRhPgrAp6l2AAAUf0lEQVR4Ae1dB3xUVdY/pBEIaRB6CYRQQugQOqEKLCjFhpFv+RRFBV2/xUVxV1wUpCx9xbirfiI1S5MOC64IFgSUJr0EQkmkhAAJIYEkwL7/Ge7Lm5GEycwkk8mc8/u9vHLLu+8/59x77rn3nJSqUaPGPRISBNwYAQ83/nb5dEGAERAhEEZwewRECNyeBQQAEQLhAbdHQITA7VlAABAhEB5wewRECNyeBQQAEQLhAbdHQITA7VlAABAhEB5wewRECNyeBQQAEQLhAbdHQITA7VlAABAhEB5wewQcIgQTR16n+FVJdG59Iv0xJs3tQRUAXAsBL3ubW9rnHv2+bzpdu+FBs+ICaM13ZeytUsoLAkWKgN1C0L31LSpViihukx/FLvcv0sbLywQBRyBgtzrk5WVyTLuY4umI9kgdgkCRI2C3EASUNQnBXXHSLPIfT17oGATsFoIBXTO4JTsPlnZMi6QWQaCIEbB5TrB6xmVqGp5Nnp73aNXWsnTynHcRN11eJwg4BgGbR4J4jelTUj3IQ5sUNwrLdkxrpBZBwAkI2CwEo/8eTFFDq9K2Pb7UIDSbalfLcULz5ZWCgP0I2CwE6tVr768LdG5xSz2SsyDgUgjYLQS3sjR9SCNfmRK41A8vjc1FwG4hSLxkmltHt5SRIBdWuXIlBOwWggMnfSg9sxR1bXWLEtYm0rD+6a70/dJWQYBsNpEq7O7cJWr+bDUaqK0X1K6aQ7uP+qgkOQsCLoFAKQnI6xK/kzSyEBGwWx0qxLZJ1YJAkSAgQlAkMMtLijMCIgTF+deRthUJAiIERQKzvKQ4I2CTEGiTafLxEStQcf5hpW3WI2CTEFhfveQUBIo/AiIExf83khYWMgIiBIUMsFRf/BGwe8W4+H+i9S309PSkJk2a0Llz5+jq1avWFyxAzp4DO1Pb7i0psLw/3dN8Ui8mJlNc7Eq6lHTFrJZBz/+OmrdvTF5enhR/OIHmz1pOd+9qy/P3yae0Nz0/+hmqVbc6Zd3Opp1b9tDmFdtUMp+joptRrye7UrkAP63+ZK2OZXTtSqpZHrkhkpHAwAW+vr4UHR1NzZs3Nzx17GW/Z3tScEggXbl4jW5rzBtarwa9Nf1VZlT1pmdfHURd+rbXoniUovS0DGrWLpLemPyySubzmJmvUUTzepR27QZBIH43uDv1i+mh52nePpKG/OEJTdgCKPlCCr/nz7P/QN7e0u/pIN2/KDZCEBAQQOHh4VS+fHnLNvJ9cHAw1a1bl0qX/q0vs7e3N3l4mH8KnoGJQOjhVTl/f3+qUqUKP1d/kA/pKo+Xl5d+b1kv7suWLcuHKl+Q86p5/6Y3h0ygqaNj6a/Dp9KRvSfIU+vto/u242pQf+vOzSgjPZPGvTSNJv/xQ62nz6IaYVUppIoJm7CIUKpQKZiOHzhFf/tTLM388ydctku/DnpT+sX0pHv37tGUUXM4/Vx8kiYsPtStf0c9j1yYEHB6t1CpUiUaOHAgoRdWBFVk0aJFfAvhePrpp82Y7vTp07R+/XqVnUaMGEFnz56lNWvW8LOIiAh65JFHaPPmzXT8+HHq1asX1atXjy5evKgLQEZGBq1cuZLVHph8Bw0apNfXsGFDwgH66aefaOfOnXraU089RUOGDOH7Z555hlBPQei7jbl1odzhPcepUcv65OdflquJbN2APDw96NDuY8zEjw55hJkXiR17RdGaBZupU+82nHfruu18HjY6hs8YEarXrkJJZy6ywED1uZp8nWrXr8kjATK16NCYvvryW84vf0wImHefRYwKeuAnnniCe92EhARatmwZffPNN5STk+uq2a9fPxYAMDmY+ubNmxQWFkaNGzfOs7VqBLDMgNEE9R85coTr7NKlC2f59ddfaenSpbR27Vq+h5DhHseePXssq9HvMcLYS1FdTKrXvu0HuaqKVSrwOSnhIgVVCKAeAzpR4ukL/Kx8xWA+4zko4dg5atO1OTN+YoIpT6VqISxQwCDl0jXO98JbMXQjNZ3u5NwhP21+IGSOgFOFoFGjRpqO6k2JiYm0bt067qkPHTpES5Ys0VsZEhKi6c63uZdHr75q1SpOa9asmZ7H2gv06Kj/66+/5klmYGAgF71z5w5dunSJkpOT+R69O+5xZGebBxGAwOSVZm07VL522gQZvTSYOf7IGX4cFGJi8Btp6TT87f+h7Kwc+nxaHKf5B5kYWI0ad7V97E+91J+FZN+PhzhPcEgQVahsUpsyM27RY9pI4h9Yjj6bEqd1LneotK8scjJQhj9OVYcqV67MTTl27JihSbmX0N+5R0tJ0R9CVYKVBHp5Qeno0aN6kaysLM3yUvDP//777wmHvVSvcRgNfmUA6/7/nLhAry7zpslDLyra1MPPm7mU1SNkuH0ri/PBGgQa9mYMeWpziE8mLaROfUwqUmZGJt28cZPTg7RJcZOohrRXG2XOxSdyPVn36+AM8ocRcOpIgIkbKC/1RaVzJos/+aWpCa5FEQLjK8qvvMpTWOcadarSiLFDtV4+mye2irnxPqXCRLSoR2dOnKf9Ow5TxaomFSn16g1uEixCIOT597JvWNWBxQkEq9O15FS+rhWumU81pl88ZyXfw9x6K+M2X8ufXAScKgRQK0CYyD6I0tPTeXJYoYKJCZAH17CgZGZm6kXA0EFBQfp9nTp19OuCXKi5SH6jTLdu3WjBggU0f/583ZpUkHeAoUdNeom/a9qb/6DUq2lmxU8cPMX3+KbPpizm65Ydm/D52P6TfI4/fIbPKPufld/xdXhkHa4TPT5GytuZJmZfNOdLgrrXsHk4dzbnT//K+dUfrIvMmzePDzUyqzR3ORdcH3AgMlBPYJevVq0aW2d2797NJlIIhZoXXL58mfDjPP7443Ty5Elq27Ytt2D//v16SzBngBWpTZs2VKZMGapevbqeVpAL1AMGCg0N5bpSNDUMggphVARrlhI4bCJEGWsJI96b00aySfTgz8eofc/WetGEY2cJz66npGm9+VW27nTXzJmw7mDyDBUIowIIFial62PhrWZYNSpfMYhVHjWqYI7Qrkcr6vJoB37f09rcAbRJGzmMBJO0MktjjqQ6JmOekn7tVCFAb7dixQo2kdasWZNwgK5cyV093bBhAw0ePJhgxsQBio+Pp8OHTQyB+23btlH37t2pXTuTrV2ZQm1ReXbs2MH1qLosTaS21Ik2gjCCwYwJgq5upBOaigQhAM0ZN5fGzHiVemiry6Cc7Bz6ePw8vsYf9Oz/PzWOXnzrWYoZMZCfY1T4eELu3GLpJ2upWmgVCm9Umw+0e+3CzbxCrVekXRh7f2UYMKa7w7VNPsZgRvTQRh3bXrDQg8MSlJqaSmlp5ioC6i5XrhzBxAkGt7TYqHfjB4UAgUlKAkF18i1TmixVGOO3wboEAchrOwQsSdVCK9OpI2d5lDOWxfX06dOpfv36dPDgQXrnnXcsk93ivtgIgVugXQw/cvny5ewb8uKLL+om4mLYzEJtklPVoUL9MqncKgSwyo61D3dVhQCSjARWsYpkKskIONVEWpKBlW9zHQRECFznt5KWFhICIgSFBKxU6zoIiBC4zm8lLS0kBEQICglYqdZ1ECgRJlJsu8COUxAWyrCiXJII282xEIgtDXktFFasWJEXw7DVQ6hgCJQIIXjjjTeoatWq/OUQgqFDhxYMBStyz5w58zcunMZis2bNYu8247P8rkeNGsV7lODIA0ef/Kh3794UExNDkyZNMtsuYiwzZcoUXmlHvdYQVqIH/m8fitC82sqU9eUdrXDoj4tdpW/ZRj2Ocuh/WOAAa9pcWHlKhDo0ZswYeuGFF+jMmTOFhRP7HsD/AAe2d6DnVfc457Ud/EENwsa7Vq1acR19+/Z9UBazZwWp26xgPjfwU8YGOx8fb7qsRbrw9vFih/63tD1LRnKEQ781gQOM7yzqa6eNBPhhsWUZ+4+MQzw2mWEfEby71GY15IOTPdwZ4YBz65bJ8USBhd4fh9oKrZ6rM8pBpTCWwz3I+G7cYzcq9tLAndO4ivr6668jmemjjz7ifK+99pp6ZHbOqw6VCdux8f3YnQqnf7QP7TcSBCUyMpLgdpoXYbcs9lMZNxNa5lXbwrH1XOGJPJe0UC9zpy+hA7uO6EUmzn2bHfjh0I+drEaH/n9MmK95rAXTux+NIjj0b/jXFi5ndOjHjldsE0cEDTj0w5fZMnAA2jB10Vg9cADe42xymhDgx/n0009Zfx83bpyOw3PPPUc9evSgDz74gLDVeuTIkdSxY0c9HRf79u2jGTNmmP2oZhksbsCs2GatHOSR/OGHH3J51A/y8/Ojd999V9/Jimfnz5/nZ5aCgrQHEX7wsWPHUoMGDfRkCBLqvXHD5AiDhE6dOvG74egP1a1z5868E1YVQmAAPFcjADYVGgmdxOTJk3kkwXO0D++2JIxYc+fO5ceff/65HogAD1IuX+PDWAYb9Ro2C6eAIH8WAkc49FsTOMDYBmdc/xa5ImoFHOYvXLjAPbzxBwSzYo++coVE771lyxZ67733aOLEidwztmjRgqAn20OKwVQdo0ePZgGAYz30a/g2YGv3K6+8orI89IygARAATGDnzJnDkS6gNilBUxXAXwF5vv3WFPVBOfwjHZ0DBACj2uLFizkPRhYjYbMb6j1x4gTFxsZy8IGHOf0bMTbWpa5Rvk6DWgS/5dOabwPIEQ791gQOUG1w1tlpQoAPBnODGaEegDC8w8qDnl4RejIcEBgIhwq1YuxtVV5bz1A9oAJBPVm9ejUzFSasEEAInLWkmBmjAZz6x48fz700AgooatmyJas/+EbUf/36dY6eodLhFwFMICAbN27k0RLbx42E4GBQn95//3368ccfafbs2cZk/Rp4QdhwAL/8aJgWzQ5O+BuWmNQc5HWEQ781gQPya1dRpDlNHcLHIeoDVJSePXuyQAwYMIC/WUWUwE3r1q25J7X0G4b64ihC0C8QfBYmTJhgVq1RjzZLeMAN2gTGNsYigt8FhBs9MbzW8K2gXbt2sQqGCBrwlkMIGUTCUF5xv/zyi/4GeNQp6xceAgtjmEikP6idUMGGDx+u15PXxaNaVDyoLbAObVmdG0TAEQ791gQOyKtdRfXcqUIAXRYxfhBHCBNVWEzwwyEECwhDNFQJnOPi4ujnn3/mfFOnTtX1ZWuAAvNZEt6nXCMVA23fvp0WLlxolvVBZc0yFPBGjWBQ74yEYGEQAtUWY9rDVBlj3oJeI9xjz0HR7HEW+/48s+JGh/4N//o6X4d++DQbHfrT7jv0PyhwAPydQSpwgNlLnXDjVHUI37tp0yZmaOi5iEJnjPYGnRy93t69ewluluhVO3TIDTVoiRd6RwiMsoiodPTOIOXQD5XLGPFOLa7hfRBC44G5i7WEcqjXOEphkQv6PYSpVq1anI4J9xdffKEfSIclCIQ0kDEeKixjRoLwKr9gPIdgWc5x8BxzCQQFwNG+fXs8MiME7oL9HladaaM//o0AOsKh35rAAWaNcsKNlxPeafZK6LQvv/wyW0yQoEIp4hp2f4wWiIgQFRXFoRGVOoF0S8IcAxNrWGNwDV0YboNQF7p27cprCdD1+/c3OZ2r8ngHJuIQEujZEDiYbqHjoxfGQpg1BD0eAQGwqAWVDvo91hCUatOnTx+uBvOaH374Qa8S1iGoZFB5tm7dyioi3o35AlbDLWOnYkREGahueOeTTz6p12W8wFxHBQWwrANmzJiRg5jxEQ8VgYIV/bR1L48MjnDotyZwgHqvs86eWm/xXkFfjh4GPaSlbbug9aj8iPup/ION8wGVjl4SIwAYBQyNsCswPVoGwVKRKVAfVCvEH0XoRghT06ZNuSfGHAMqB3pmtB8MDwJjQQhQBk72MMuCATFKWIZixAIXRijLtmINA71y7dq1+f3orTEhhfoGQRs2bBiXg+XIqPbA5In24Rneha0PaCcm1BidMMJhdMP34rsPHDjA8wiMLJi4oxxGAsxF8L2KUC/ivIIQncMY5KyxNgeIbGUaQRCfCJYhdSBMPAL4ol6YTRHypWmbCEI++DPP+stn7PyPeg/vOUGNWtTnshxK3tuL1i36Sg8agDy/aGsRbbu1oAZN6/I7EQ4SqhcEpDiQy3iWgbmgKhgnnQUFEMKLyS/cCfMi9J6IWwQVBf+nAMxbUALzQWBR3tLGb21dUOvwzajDGPLFWB5mUoRJUeqcMc3R1/Y69KM91gQOcHS7ranPZYTAmo+RPIKALQg4fWJsS6OljCDgSARECByJptTlkgg43Trkkqi5WKMPanML0AYtqNnbD1k5drFPc0hzZSRwCIzFq5K/3fetQKvCNSvWTs1q9Kq2ANlHWx8xphWvVjuvNTISOA/7Qntz7/tedp9pptVYbcvGo9p27GzN3DkyKYk+1u5BY2RE0PG3yTqkl5YLQaAEICDqUAn4EeUT7ENAhMA+/KR0CUDAZiFYOP4KnV2fSEdXJNGw/rn/xKIEYCKf4GYI2DwnaFw3mx6LzqDhA00CEDbANOFyM/zkc0sAAjZbhw6d8qZDpwIpKiKLoiJvk0cporum/8NXAmCRT3AnBGxWhxRIKWmmKjw8RQIUJnJ2LQTsFgLltBXoJ0LgWj+9tFYhYLcQJF4yaVTPPyaTYwWqnF0LAZsnxuoz/f3u0qppydQgNJvSMzzoq12+9H/Ty6tkOQsCxR4Bu0cCbTWeKgSaoqclJXvSqUSb59rFHixpYMlEwG6OhYk0JOguTZwbSP/80hQZumRCJV9VUhGweyRoFGZyP1y8yXFxgEoq2PJdxRMBu4XA675pNPO2tlAgJAi4IAJ2CQEWyLBynJNTig8X/H5psiBANs8JZv/pKj3eLUML9UH0/f7SAqUg4LII2CwEm3eUIawRHEnwpo3by7gsANJwQcDudQKBUBBwdQTsmhO4+sdL+wUBICBCIHzg9giIELg9CwgAIgTCA26PgAiB27OAACBCIDzg9giIELg9CwgAIgTCA26PgAiB27OAACBCIDzg9gj8F0yBdNILVpQuAAAAAElFTkSuQmCC;" parent="1" vertex="1">
                    <mxGeometry x="1516" y="512" width="193" height="105" as="geometry"/>
                </mxCell>
                <mxCell id="46" value="new state!" style="text;html=1;strokeColor=none;fillColor=none;align=center;verticalAlign=middle;whiteSpace=wrap;rounded=0;" parent="1" vertex="1">
                    <mxGeometry x="1711" y="539" width="80" height="51" as="geometry"/>
                </mxCell>
                <mxCell id="48" value="&lt;font color=&quot;#000000&quot;&gt;Component Rerender&lt;/font&gt;" style="rounded=0;whiteSpace=wrap;html=1;fontFamily=Helvetica;fontSize=12;fontColor=#FFFFFF;fillColor=#FFFF99;" parent="1" vertex="1">
                    <mxGeometry x="1521.5" y="660" width="187.5" height="50" as="geometry"/>
                </mxCell>
                <mxCell id="51" value="&lt;font color=&quot;#000000&quot;&gt;Rules around Recuder Functions&lt;/font&gt;" style="rounded=0;whiteSpace=wrap;html=1;fontFamily=Helvetica;fontSize=12;fontColor=#FFFFFF;fillColor=#FFFF99;" parent="1" vertex="1">
                    <mxGeometry x="40" y="600" width="320" height="40" as="geometry"/>
                </mxCell>
                <mxCell id="52" value="&lt;font color=&quot;#000000&quot;&gt;Whatever you return will be your new state&lt;/font&gt;" style="rounded=0;whiteSpace=wrap;html=1;fontFamily=Helvetica;fontSize=12;fontColor=#FFFFFF;fillColor=#99CCFF;" parent="1" vertex="1">
                    <mxGeometry x="80" y="650" width="240" height="30" as="geometry"/>
                </mxCell>
                <mxCell id="53" value="&lt;font color=&quot;#000000&quot;&gt;If you return nothing, then your state will be undefined&lt;/font&gt;" style="rounded=0;whiteSpace=wrap;html=1;fontFamily=Helvetica;fontSize=12;fontColor=#FFFFFF;fillColor=#99CCFF;" parent="1" vertex="1">
                    <mxGeometry x="80" y="690" width="240" height="30" as="geometry"/>
                </mxCell>
                <mxCell id="54" value="&lt;font color=&quot;#000000&quot;&gt;No async/await, no request, no promises,&lt;br&gt;&amp;nbsp;no outside variables&lt;/font&gt;" style="rounded=0;whiteSpace=wrap;html=1;fontFamily=Helvetica;fontSize=12;fontColor=#FFFFFF;fillColor=#99CCFF;" parent="1" vertex="1">
                    <mxGeometry x="80" y="730" width="240" height="70" as="geometry"/>
                </mxCell>
                <mxCell id="55" value="&lt;font color=&quot;#000000&quot;&gt;Need to update my state when have useRecuder&lt;/font&gt;" style="rounded=0;whiteSpace=wrap;html=1;fontFamily=Helvetica;fontSize=12;fontColor=#FFFFFF;fillColor=#FFFF99;" vertex="1" parent="1">
                    <mxGeometry x="80" y="850" width="240" height="70" as="geometry"/>
                </mxCell>
                <mxCell id="56" value="" style="group" vertex="1" connectable="0" parent="1">
                    <mxGeometry x="30" y="930" width="370" height="30" as="geometry"/>
                </mxCell>
                <mxCell id="57" value="Add ad new constant action type string" style="rounded=0;whiteSpace=wrap;html=1;fontFamily=Helvetica;fontSize=12;fontColor=#000000;fillColor=#FFFFFF;" vertex="1" parent="56">
                    <mxGeometry x="30" width="340" height="30" as="geometry"/>
                </mxCell>
                <mxCell id="58" value="1" style="rounded=0;whiteSpace=wrap;html=1;fontFamily=Helvetica;fontSize=12;fontColor=#000000;fillColor=#99CCFF;" vertex="1" parent="56">
                    <mxGeometry width="30" height="30" as="geometry"/>
                </mxCell>
                <mxCell id="59" value="" style="group" vertex="1" connectable="0" parent="1">
                    <mxGeometry x="30" y="970" width="370" height="30" as="geometry"/>
                </mxCell>
                <mxCell id="60" value="Add a call to 'dispatch'" style="rounded=0;whiteSpace=wrap;html=1;fontFamily=Helvetica;fontSize=12;fontColor=#000000;fillColor=#FFFFFF;" vertex="1" parent="59">
                    <mxGeometry x="30" width="340" height="30" as="geometry"/>
                </mxCell>
                <mxCell id="61" value="2" style="rounded=0;whiteSpace=wrap;html=1;fontFamily=Helvetica;fontSize=12;fontColor=#000000;fillColor=#99CCFF;" vertex="1" parent="59">
                    <mxGeometry width="30" height="30" as="geometry"/>
                </mxCell>
                <mxCell id="62" value="" style="group" vertex="1" connectable="0" parent="1">
                    <mxGeometry x="30" y="1010" width="370" height="30" as="geometry"/>
                </mxCell>
                <mxCell id="63" value="Add a new case statement in your reducer" style="rounded=0;whiteSpace=wrap;html=1;fontFamily=Helvetica;fontSize=12;fontColor=#000000;fillColor=#FFFFFF;" vertex="1" parent="62">
                    <mxGeometry x="30" width="340" height="30" as="geometry"/>
                </mxCell>
                <mxCell id="64" value="3" style="rounded=0;whiteSpace=wrap;html=1;fontFamily=Helvetica;fontSize=12;fontColor=#000000;fillColor=#99CCFF;" vertex="1" parent="62">
                    <mxGeometry width="30" height="30" as="geometry"/>
                </mxCell>
                <mxCell id="70" value="" style="edgeStyle=none;html=1;" edge="1" parent="1" source="68" target="69">
                    <mxGeometry relative="1" as="geometry"/>
                </mxCell>
                <mxCell id="68" value="&lt;font color=&quot;#000000&quot;&gt;Immer&lt;/font&gt;" style="rounded=0;whiteSpace=wrap;html=1;fontFamily=Helvetica;fontSize=12;fontColor=#FFFFFF;fillColor=#99CCFF;" vertex="1" parent="1">
                    <mxGeometry x="710" y="690" width="80" height="30" as="geometry"/>
                </mxCell>
                <mxCell id="69" value="&lt;font color=&quot;#000000&quot;&gt;We can edit state directly in reducer, (&quot;useReducer(produce(recuder))...&quot;)&lt;/font&gt;" style="rounded=0;whiteSpace=wrap;html=1;fontFamily=Helvetica;fontSize=12;fontColor=#FFFFFF;fillColor=#FFFF99;" vertex="1" parent="1">
                    <mxGeometry x="830" y="690" width="290" height="30" as="geometry"/>
                </mxCell>
            </root>
        </mxGraphModel>
    </diagram>
</mxfile>